<?xml version="1.0" encoding="UTF-8"?>
<!DOCTYPE score-partwise PUBLIC "-//Recordare//DTD MusicXML 3.1 Partwise//EN" "http://www.musicxml.org/dtds/partwise.dtd">
<score-partwise version="3.1">
  <work>
    <work-title>dummy</work-title>
    </work>
  <identification>
    <encoding>
      <software>MuseScore 2.2.1</software>
      <encoding-date>2018-06-02</encoding-date>
      <supports element="accidental" type="yes"/>
      <supports element="beam" type="yes"/>
      <supports element="print" attribute="new-page" type="yes" value="yes"/>
      <supports element="print" attribute="new-system" type="yes" value="yes"/>
      <supports element="stem" type="yes"/>
      </encoding>
    </identification>
  <defaults>
    <scaling>
      <millimeters>7.05556</millimeters>
      <tenths>40</tenths>
      </scaling>
    <page-layout>
      <page-height>1584</page-height>
      <page-width>1224</page-width>
      <page-margins type="even">
        <left-margin>56.6929</left-margin>
        <right-margin>56.6929</right-margin>
        <top-margin>56.6929</top-margin>
        <bottom-margin>113.386</bottom-margin>
        </page-margins>
      <page-margins type="odd">
        <left-margin>56.6929</left-margin>
        <right-margin>56.6929</right-margin>
        <top-margin>56.6929</top-margin>
        <bottom-margin>113.386</bottom-margin>
        </page-margins>
      </page-layout>
    <word-font font-family="FreeSerif" font-size="10"/>
    <lyric-font font-family="FreeSerif" font-size="11"/>
    </defaults>
  <credit page="1">
    <credit-words default-x="612" default-y="1527.31" justify="center" valign="top" font-size="24">dummy</credit-words>
    </credit>
  <part-list>
    <part-group type="start" number="1">
      <group-symbol>bracket</group-symbol>
      </part-group>
    <score-part id="P1">
      <part-name>Model III</part-name>
      <score-instrument id="P1-I1">
        <instrument-name>Model III</instrument-name>
        </score-instrument>
      <midi-device id="P1-I1" port="1"></midi-device>
      <midi-instrument id="P1-I1">
        <midi-channel>1</midi-channel>
        <midi-program>76</midi-program>
        <volume>78.7402</volume>
        <pan>0</pan>
        </midi-instrument>
      </score-part>
    <part-group type="stop" number="1"/>
    </part-list>
  <part id="P1">
    <measure number="0" implicit="yes" width="211.63">
      <print>
        <system-layout>
          <system-margins>
            <left-margin>6.50</left-margin>
            <right-margin>0.00</right-margin>
            </system-margins>
          <top-system-distance>170.00</top-system-distance>
          </system-layout>
        <staff-layout number="2">
          <staff-distance>65.00</staff-distance>
          </staff-layout>
        <staff-layout number="3">
          <staff-distance>65.00</staff-distance>
          </staff-layout>
        <staff-layout number="4">
          <staff-distance>65.00</staff-distance>
          </staff-layout>
        </print>
      <attributes>
        <divisions>480</divisions>
        <key>
          <fifths>0</fifths>
          </key>
        <time>
          <beats>4</beats>
          <beat-type>4</beat-type>
          </time>
        <staves>4</staves>
        <clef number="1">
          <sign>G</sign>
          <line>2</line>
          <clef-octave-change>1</clef-octave-change>
          </clef>
        <clef number="2">
          <sign>G</sign>
          <line>2</line>
          <clef-octave-change>1</clef-octave-change>
          </clef>
        <clef number="3">
          <sign>G</sign>
          <line>2</line>
          <clef-octave-change>1</clef-octave-change>
          </clef>
        <clef number="4">
          <sign>F</sign>
          <line>4</line>
          <clef-octave-change>1</clef-octave-change>
          </clef>
        </attributes>
      <direction placement="above">
        <direction-type>
          <metronome parentheses="no" default-x="-34.44" default-y="40.00">
            <beat-unit>quarter</beat-unit>
            <per-minute>32</per-minute>
            </metronome>
          </direction-type>
        <staff>1</staff>
        <sound tempo="32"/>
        </direction>
      <note default-x="78.29" default-y="-30.00">
        <pitch>
          <step>G</step>
          <octave>5</octave>
          </pitch>
        <duration>96</duration>
        <voice>1</voice>
        <type>16th</type>
        <time-modification>
          <actual-notes>5</actual-notes>
          <normal-notes>4</normal-notes>
          </time-modification>
        <stem>up</stem>
        <staff>1</staff>
        <beam number="1">begin</beam>
        <beam number="2">begin</beam>
        <notations>
          <tuplet type="start" bracket="no"/>
          </notations>
        </note>
      <direction placement="above">
        <direction-type>
          <metronome parentheses="no" default-y="40.00" relative-y="30.00">
            <beat-unit>quarter</beat-unit>
            <per-minute>40</per-minute>
            </metronome>
          </direction-type>
        <staff>1</staff>
        <sound tempo="40"/>
        </direction>
      <note default-x="97.90" default-y="-25.00">
        <pitch>
          <step>A</step>
          <octave>5</octave>
          </pitch>
        <duration>96</duration>
        <voice>1</voice>
        <type>16th</type>
        <time-modification>
          <actual-notes>5</actual-notes>
          <normal-notes>4</normal-notes>
          </time-modification>
        <stem>up</stem>
        <staff>1</staff>
        <beam number="1">continue</beam>
        <beam number="2">continue</beam>
        </note>
      <direction placement="above">
        <direction-type>
          <metronome parentheses="no" default-y="40.00">
            <beat-unit>quarter</beat-unit>
            <per-minute>52</per-minute>
            </metronome>
          </direction-type>
        <staff>1</staff>
        <sound tempo="52"/>
        </direction>
      <note default-x="118.88" default-y="-30.00">
        <pitch>
          <step>G</step>
          <octave>5</octave>
          </pitch>
        <duration>96</duration>
        <voice>1</voice>
        <type>16th</type>
        <time-modification>
          <actual-notes>5</actual-notes>
          <normal-notes>4</normal-notes>
          </time-modification>
        <stem>up</stem>
        <staff>1</staff>
        <beam number="1">continue</beam>
        <beam number="2">continue</beam>
        </note>
      <direction placement="above">
        <direction-type>
          <metronome parentheses="no" default-y="40.00" relative-y="-20.00">
            <beat-unit>quarter</beat-unit>
            <per-minute>72</per-minute>
            </metronome>
          </direction-type>
        <staff>1</staff>
        <sound tempo="72"/>
        </direction>
      <note default-x="163.13" default-y="-35.00">
        <pitch>
          <step>F</step>
          <alter>1</alter>
          <octave>5</octave>
          </pitch>
        <duration>96</duration>
        <voice>1</voice>
        <type>16th</type>
        <accidental>sharp</accidental>
        <time-modification>
          <actual-notes>5</actual-notes>
          <normal-notes>4</normal-notes>
          </time-modification>
        <stem>up</stem>
        <staff>1</staff>
        <beam number="1">continue</beam>
        <beam number="2">continue</beam>
        </note>
      <direction placement="above">
        <direction-type>
          <metronome parentheses="no" default-y="40.00" relative-y="20.00">
            <beat-unit>quarter</beat-unit>
            <per-minute>88</per-minute>
            </metronome>
          </direction-type>
        <staff>1</staff>
        <sound tempo="88.0002"/>
        </direction>
      <note default-x="181.86" default-y="-30.00">
        <pitch>
          <step>G</step>
          <octave>5</octave>
          </pitch>
        <duration>96</duration>
        <voice>1</voice>
        <type>16th</type>
        <time-modification>
          <actual-notes>5</actual-notes>
          <normal-notes>4</normal-notes>
          </time-modification>
        <stem>up</stem>
        <staff>1</staff>
        <beam number="1">end</beam>
        <beam number="2">end</beam>
        <notations>
          <tuplet type="stop"/>
          </notations>
        </note>
      <backup>
        <duration>480</duration>
        </backup>
      <note default-x="78.29" default-y="-140.00">
        <pitch>
          <step>F</step>
          <octave>5</octave>
          </pitch>
        <duration>160</duration>
        <voice>5</voice>
        <type>eighth</type>
        <time-modification>
          <actual-notes>3</actual-notes>
          <normal-notes>2</normal-notes>
          </time-modification>
        <stem>up</stem>
        <staff>2</staff>
        <beam number="1">begin</beam>
        <notations>
          <tuplet type="start" bracket="no"/>
          </notations>
        </note>
      <note default-x="114.60" default-y="-150.00">
        <pitch>
          <step>D</step>
          <octave>5</octave>
          </pitch>
        <duration>160</duration>
        <voice>5</voice>
        <type>eighth</type>
        <time-modification>
          <actual-notes>3</actual-notes>
          <normal-notes>2</normal-notes>
          </time-modification>
        <stem>up</stem>
        <staff>2</staff>
        <beam number="1">continue</beam>
        </note>
      <note default-x="167.41" default-y="-160.00">
        <pitch>
          <step>B</step>
          <octave>4</octave>
          </pitch>
        <duration>160</duration>
        <voice>5</voice>
        <type>eighth</type>
        <time-modification>
          <actual-notes>3</actual-notes>
          <normal-notes>2</normal-notes>
          </time-modification>
        <stem>up</stem>
        <staff>2</staff>
        <beam number="1">end</beam>
        <notations>
          <tuplet type="stop"/>
          </notations>
        </note>
      <backup>
        <duration>480</duration>
        </backup>
      <note>
        <rest/>
        <duration>480</duration>
        <voice>9</voice>
        <type>quarter</type>
        <staff>3</staff>
        </note>
      <backup>
        <duration>480</duration>
        </backup>
      <note default-x="78.29" default-y="-320.00">
        <pitch>
          <step>G</step>
          <octave>4</octave>
          </pitch>
        <duration>69</duration>
        <voice>13</voice>
        <type>16th</type>
        <time-modification>
          <actual-notes>7</actual-notes>
          <normal-notes>4</normal-notes>
          </time-modification>
        <stem>down</stem>
        <staff>4</staff>
        <beam number="1">begin</beam>
        <beam number="2">begin</beam>
        <notations>
          <tuplet type="start" bracket="no"/>
          </notations>
        </note>
      <note default-x="93.96" default-y="-345.00">
        <pitch>
          <step>B</step>
          <octave>3</octave>
          </pitch>
        <duration>69</duration>
        <voice>13</voice>
        <type>16th</type>
        <time-modification>
          <actual-notes>7</actual-notes>
          <normal-notes>4</normal-notes>
          </time-modification>
        <stem>down</stem>
        <staff>4</staff>
        <beam number="1">continue</beam>
        <beam number="2">continue</beam>
        </note>
      <note default-x="111.06" default-y="-335.00">
        <pitch>
          <step>D</step>
          <octave>4</octave>
          </pitch>
        <duration>69</duration>
        <voice>13</voice>
        <type>16th</type>
        <time-modification>
          <actual-notes>7</actual-notes>
          <normal-notes>4</normal-notes>
          </time-modification>
        <stem>down</stem>
        <staff>4</staff>
        <beam number="1">continue</beam>
        <beam number="2">continue</beam>
        </note>
      <note default-x="129.55" default-y="-325.00">
        <pitch>
          <step>F</step>
          <octave>4</octave>
          </pitch>
        <duration>69</duration>
        <voice>13</voice>
        <type>16th</type>
        <time-modification>
          <actual-notes>7</actual-notes>
          <normal-notes>4</normal-notes>
          </time-modification>
        <stem>down</stem>
        <staff>4</staff>
        <beam number="1">continue</beam>
        <beam number="2">continue</beam>
        </note>
      <note default-x="145.21" default-y="-315.00">
        <pitch>
          <step>A</step>
          <octave>4</octave>
          </pitch>
        <duration>69</duration>
        <voice>13</voice>
        <type>16th</type>
        <time-modification>
          <actual-notes>7</actual-notes>
          <normal-notes>4</normal-notes>
          </time-modification>
        <stem>down</stem>
        <staff>4</staff>
        <beam number="1">continue</beam>
        <beam number="2">continue</beam>
        </note>
      <note default-x="171.20" default-y="-325.00">
        <pitch>
          <step>F</step>
          <octave>4</octave>
          </pitch>
        <duration>69</duration>
        <voice>13</voice>
        <type>16th</type>
        <time-modification>
          <actual-notes>7</actual-notes>
          <normal-notes>4</normal-notes>
          </time-modification>
        <stem>down</stem>
        <staff>4</staff>
        <beam number="1">continue</beam>
        <beam number="2">continue</beam>
        </note>
      <note default-x="186.86" default-y="-335.00">
        <pitch>
          <step>D</step>
          <octave>4</octave>
          </pitch>
        <duration>69</duration>
        <voice>13</voice>
        <type>16th</type>
        <time-modification>
          <actual-notes>7</actual-notes>
          <normal-notes>4</normal-notes>
          </time-modification>
        <stem>down</stem>
        <staff>4</staff>
        <beam number="1">end</beam>
        <beam number="2">end</beam>
        <notations>
          <tuplet type="stop"/>
          </notations>
        </note>
      <backup>
        <duration>3</duration>
        </backup>
      </measure>
    <measure number="1" width="275.64">
      <note default-x="12.00" default-y="-15.00">
        <pitch>
          <step>C</step>
          <octave>6</octave>
          </pitch>
        <duration>960</duration>
        <voice>1</voice>
        <type>half</type>
        <stem>down</stem>
        <staff>1</staff>
        </note>
      <note default-x="105.76" default-y="-50.00">
        <pitch>
          <step>C</step>
          <octave>5</octave>
          </pitch>
        <duration>480</duration>
        <voice>1</voice>
        <type>quarter</type>
        <stem>up</stem>
        <staff>1</staff>
        </note>
      <note default-x="151.05" default-y="-35.00">
        <pitch>
          <step>F</step>
          <octave>5</octave>
          </pitch>
        <duration>69</duration>
        <voice>1</voice>
        <type>16th</type>
        <time-modification>
          <actual-notes>7</actual-notes>
          <normal-notes>4</normal-notes>
          </time-modification>
        <stem>up</stem>
        <staff>1</staff>
        <beam number="1">begin</beam>
        <beam number="2">begin</beam>
        <notations>
          <tuplet type="start" bracket="no"/>
          </notations>
        </note>
      <note default-x="166.71" default-y="-30.00">
        <pitch>
          <step>G</step>
          <octave>5</octave>
          </pitch>
        <duration>69</duration>
        <voice>1</voice>
        <type>16th</type>
        <time-modification>
          <actual-notes>7</actual-notes>
          <normal-notes>4</normal-notes>
          </time-modification>
        <stem>up</stem>
        <staff>1</staff>
        <beam number="1">continue</beam>
        <beam number="2">continue</beam>
        </note>
      <note default-x="182.38" default-y="-35.00">
        <pitch>
          <step>F</step>
          <octave>5</octave>
          </pitch>
        <duration>69</duration>
        <voice>1</voice>
        <type>16th</type>
        <time-modification>
          <actual-notes>7</actual-notes>
          <normal-notes>4</normal-notes>
          </time-modification>
        <stem>up</stem>
        <staff>1</staff>
        <beam number="1">continue</beam>
        <beam number="2">continue</beam>
        </note>
      <note default-x="198.04" default-y="-40.00">
        <pitch>
          <step>E</step>
          <octave>5</octave>
          </pitch>
        <duration>69</duration>
        <voice>1</voice>
        <type>16th</type>
        <time-modification>
          <actual-notes>7</actual-notes>
          <normal-notes>4</normal-notes>
          </time-modification>
        <stem>up</stem>
        <staff>1</staff>
        <beam number="1">continue</beam>
        <beam number="2">continue</beam>
        </note>
      <note default-x="219.54" default-y="-45.00">
        <pitch>
          <step>D</step>
          <octave>5</octave>
          </pitch>
        <duration>69</duration>
        <voice>1</voice>
        <type>16th</type>
        <time-modification>
          <actual-notes>7</actual-notes>
          <normal-notes>4</normal-notes>
          </time-modification>
        <stem>up</stem>
        <staff>1</staff>
        <beam number="1">continue</beam>
        <beam number="2">continue</beam>
        </note>
      <note default-x="235.21" default-y="-40.00">
        <pitch>
          <step>E</step>
          <octave>5</octave>
          </pitch>
        <duration>69</duration>
        <voice>1</voice>
        <type>16th</type>
        <time-modification>
          <actual-notes>7</actual-notes>
          <normal-notes>4</normal-notes>
          </time-modification>
        <stem>up</stem>
        <staff>1</staff>
        <beam number="1">continue</beam>
        <beam number="2">continue</beam>
        </note>
      <note default-x="250.87" default-y="-35.00">
        <pitch>
          <step>F</step>
          <octave>5</octave>
          </pitch>
        <duration>69</duration>
        <voice>1</voice>
        <type>16th</type>
        <time-modification>
          <actual-notes>7</actual-notes>
          <normal-notes>4</normal-notes>
          </time-modification>
        <stem>up</stem>
        <staff>1</staff>
        <beam number="1">end</beam>
        <beam number="2">end</beam>
        <notations>
          <tuplet type="stop"/>
          </notations>
        </note>
      <backup>
        <duration>3</duration>
        </backup>
      <backup>
        <duration>1920</duration>
        </backup>
      <note default-x="12.36" default-y="-170.00">
        <pitch>
          <step>G</step>
          <octave>4</octave>
          </pitch>
        <duration>240</duration>
        <voice>5</voice>
        <type>eighth</type>
        <stem>up</stem>
        <staff>2</staff>
        </note>
      <note>
        <rest/>
        <duration>240</duration>
        <voice>5</voice>
        <type>eighth</type>
        <staff>2</staff>
        </note>
      <note default-x="60.48" default-y="-155.00">
        <pitch>
          <step>C</step>
          <octave>5</octave>
          </pitch>
        <duration>480</duration>
        <voice>5</voice>
        <type>quarter</type>
        <stem>up</stem>
        <staff>2</staff>
        </note>
      <note default-x="105.76" default-y="-165.00">
        <pitch>
          <step>A</step>
          <octave>4</octave>
          </pitch>
        <duration>480</duration>
        <voice>5</voice>
        <type>quarter</type>
        <stem>up</stem>
        <staff>2</staff>
        </note>
      <note default-x="151.05" default-y="-150.00">
        <pitch>
          <step>D</step>
          <octave>5</octave>
          </pitch>
        <duration>240</duration>
        <voice>5</voice>
        <type>eighth</type>
        <stem>up</stem>
        <staff>2</staff>
        <beam number="1">begin</beam>
        </note>
      <note default-x="206.37" default-y="-155.00">
        <pitch>
          <step>C</step>
          <octave>5</octave>
          </pitch>
        <duration>240</duration>
        <voice>5</voice>
        <type>eighth</type>
        <stem>up</stem>
        <staff>2</staff>
        <beam number="1">end</beam>
        </note>
      <backup>
        <duration>1920</duration>
        </backup>
      <note>
        <rest/>
        <duration>1920</duration>
        <voice>9</voice>
        <staff>3</staff>
        </note>
      <backup>
        <duration>1920</duration>
        </backup>
      <note default-x="12.36" default-y="-330.00">
        <pitch>
          <step>E</step>
          <octave>4</octave>
          </pitch>
        <duration>240</duration>
        <voice>13</voice>
        <type>eighth</type>
        <stem>down</stem>
        <staff>4</staff>
        <beam number="1">begin</beam>
        </note>
      <note default-x="37.84" default-y="-320.00">
        <pitch>
          <step>G</step>
          <octave>4</octave>
          </pitch>
        <duration>240</duration>
        <voice>13</voice>
        <type>eighth</type>
        <stem>down</stem>
        <staff>4</staff>
        <beam number="1">continue</beam>
        </note>
      <note default-x="60.48" default-y="-315.00">
        <pitch>
          <step>A</step>
          <octave>4</octave>
          </pitch>
        <duration>240</duration>
        <voice>13</voice>
        <type>eighth</type>
        <stem>down</stem>
        <staff>4</staff>
        <beam number="1">continue</beam>
        </note>
      <note default-x="83.12" default-y="-310.00">
        <pitch>
          <step>B</step>
          <octave>4</octave>
          </pitch>
        <duration>240</duration>
        <voice>13</voice>
        <type>eighth</type>
        <stem>down</stem>
        <staff>4</staff>
        <beam number="1">end</beam>
        </note>
      <note>
        <rest/>
        <duration>240</duration>
        <voice>13</voice>
        <type>eighth</type>
        <staff>4</staff>
        </note>
      <note default-x="128.40" default-y="-310.00">
        <pitch>
          <step>B</step>
          <octave>4</octave>
          </pitch>
        <duration>240</duration>
        <voice>13</voice>
        <type>eighth</type>
        <stem>down</stem>
        <staff>4</staff>
        <beam number="1">begin</beam>
        </note>
      <note default-x="151.05" default-y="-305.00">
        <pitch>
          <step>C</step>
          <octave>5</octave>
          </pitch>
        <duration>240</duration>
        <voice>13</voice>
        <type>eighth</type>
        <stem>down</stem>
        <staff>4</staff>
        <beam number="1">continue</beam>
        </note>
      <note default-x="206.37" default-y="-315.00">
        <pitch>
          <step>A</step>
          <octave>4</octave>
          </pitch>
        <duration>240</duration>
        <voice>13</voice>
        <type>eighth</type>
        <stem>down</stem>
        <staff>4</staff>
        <beam number="1">end</beam>
        </note>
      </measure>
    <measure number="2" width="285.96">
      <note default-x="18.05" default-y="-40.00">
        <pitch>
          <step>E</step>
          <octave>5</octave>
          </pitch>
        <duration>960</duration>
        <voice>1</voice>
        <type>half</type>
        <stem>up</stem>
        <staff>1</staff>
        </note>
      <note>
        <rest/>
        <duration>480</duration>
        <voice>1</voice>
        <type>quarter</type>
        <staff>1</staff>
        </note>
      <note default-x="147.65" default-y="-40.00">
        <pitch>
          <step>E</step>
          <octave>5</octave>
          </pitch>
        <duration>96</duration>
        <voice>1</voice>
        <type>16th</type>
        <time-modification>
          <actual-notes>5</actual-notes>
          <normal-notes>4</normal-notes>
          </time-modification>
        <stem>up</stem>
        <staff>1</staff>
        <beam number="1">begin</beam>
        <beam number="2">begin</beam>
        <notations>
          <tuplet type="start" bracket="no"/>
          </notations>
        </note>
      <note default-x="163.31" default-y="-35.00">
        <pitch>
          <step>F</step>
          <octave>5</octave>
          </pitch>
        <duration>96</duration>
        <voice>1</voice>
        <type>16th</type>
        <time-modification>
          <actual-notes>5</actual-notes>
          <normal-notes>4</normal-notes>
          </time-modification>
        <stem>up</stem>
        <staff>1</staff>
        <beam number="1">continue</beam>
        <beam number="2">continue</beam>
        </note>
      <note default-x="200.07" default-y="-40.00">
        <pitch>
          <step>E</step>
          <octave>5</octave>
          </pitch>
        <duration>96</duration>
        <voice>1</voice>
        <type>16th</type>
        <time-modification>
          <actual-notes>5</actual-notes>
          <normal-notes>4</normal-notes>
          </time-modification>
        <stem>up</stem>
        <staff>1</staff>
        <beam number="1">continue</beam>
        <beam number="2">continue</beam>
        </note>
      <note default-x="231.69" default-y="-45.00">
        <pitch>
          <step>D</step>
          <alter>1</alter>
          <octave>5</octave>
          </pitch>
        <duration>96</duration>
        <voice>1</voice>
        <type>16th</type>
        <accidental>sharp</accidental>
        <time-modification>
          <actual-notes>5</actual-notes>
          <normal-notes>4</normal-notes>
          </time-modification>
        <stem>up</stem>
        <staff>1</staff>
        <beam number="1">continue</beam>
        <beam number="2">continue</beam>
        </note>
      <note default-x="261.19" default-y="-40.00">
        <pitch>
          <step>E</step>
          <octave>5</octave>
          </pitch>
        <duration>96</duration>
        <voice>1</voice>
        <type>16th</type>
        <time-modification>
          <actual-notes>5</actual-notes>
          <normal-notes>4</normal-notes>
          </time-modification>
        <stem>up</stem>
        <staff>1</staff>
        <beam number="1">end</beam>
        <beam number="2">end</beam>
        <notations>
          <tuplet type="stop"/>
          </notations>
        </note>
      <backup>
        <duration>1920</duration>
        </backup>
      <note default-x="18.42" default-y="-160.00">
        <pitch>
          <step>B</step>
          <octave>4</octave>
          </pitch>
        <duration>240</duration>
        <voice>5</voice>
        <type>eighth</type>
        <stem>up</stem>
        <staff>2</staff>
        <beam number="1">begin</beam>
        </note>
      <note default-x="42.08" default-y="-155.00">
        <pitch>
          <step>C</step>
          <octave>5</octave>
          </pitch>
        <duration>240</duration>
        <voice>5</voice>
        <type>eighth</type>
        <stem>up</stem>
        <staff>2</staff>
        <beam number="1">continue</beam>
        </note>
      <note default-x="65.75" default-y="-160.00">
        <pitch>
          <step>B</step>
          <octave>4</octave>
          </pitch>
        <duration>240</duration>
        <voice>5</voice>
        <type>eighth</type>
        <stem>up</stem>
        <staff>2</staff>
        <beam number="1">continue</beam>
        </note>
      <note default-x="89.41" default-y="-165.00">
        <pitch>
          <step>A</step>
          <octave>4</octave>
          </pitch>
        <duration>240</duration>
        <voice>5</voice>
        <type>eighth</type>
        <stem>up</stem>
        <staff>2</staff>
        <beam number="1">end</beam>
        </note>
      <note default-x="122.49" default-y="-170.00">
        <pitch>
          <step>G</step>
          <alter>1</alter>
          <octave>4</octave>
          </pitch>
        <duration>480</duration>
        <voice>5</voice>
        <type>quarter</type>
        <accidental>sharp</accidental>
        <stem>up</stem>
        <staff>2</staff>
        </note>
      <note default-x="147.65" default-y="-150.00">
        <pitch>
          <step>D</step>
          <octave>5</octave>
          </pitch>
        <duration>160</duration>
        <voice>5</voice>
        <type>eighth</type>
        <time-modification>
          <actual-notes>3</actual-notes>
          <normal-notes>2</normal-notes>
          </time-modification>
        <stem>up</stem>
        <staff>2</staff>
        <beam number="1">begin</beam>
        <notations>
          <tuplet type="start" bracket="no"/>
          </notations>
        </note>
      <note default-x="191.33" default-y="-160.00">
        <pitch>
          <step>B</step>
          <octave>4</octave>
          </pitch>
        <duration>160</duration>
        <voice>5</voice>
        <type>eighth</type>
        <time-modification>
          <actual-notes>3</actual-notes>
          <normal-notes>2</normal-notes>
          </time-modification>
        <stem>up</stem>
        <staff>2</staff>
        <beam number="1">continue</beam>
        </note>
      <note default-x="240.43" default-y="-170.00">
        <pitch>
          <step>G</step>
          <alter>1</alter>
          <octave>4</octave>
          </pitch>
        <duration>160</duration>
        <voice>5</voice>
        <type>eighth</type>
        <time-modification>
          <actual-notes>3</actual-notes>
          <normal-notes>2</normal-notes>
          </time-modification>
        <stem>up</stem>
        <staff>2</staff>
        <beam number="1">end</beam>
        <notations>
          <tuplet type="stop"/>
          </notations>
        </note>
      <backup>
        <duration>1920</duration>
        </backup>
      <note>
        <rest/>
        <duration>1440</duration>
        <voice>9</voice>
        <type>half</type>
        <dot/>
        <staff>3</staff>
        </note>
      <note>
        <rest/>
        <duration>480</duration>
        <voice>9</voice>
        <type>quarter</type>
        <staff>3</staff>
        </note>
      <backup>
        <duration>1920</duration>
        </backup>
      <note default-x="18.42" default-y="-320.00">
        <pitch>
          <step>G</step>
          <alter>1</alter>
          <octave>4</octave>
          </pitch>
        <duration>480</duration>
        <voice>13</voice>
        <type>quarter</type>
        <accidental>sharp</accidental>
        <stem>down</stem>
        <staff>4</staff>
        </note>
      <note default-x="65.75" default-y="-330.00">
        <pitch>
          <step>E</step>
          <octave>4</octave>
          </pitch>
        <duration>480</duration>
        <voice>13</voice>
        <type>quarter</type>
        <stem>down</stem>
        <staff>4</staff>
        </note>
      <note>
        <rest/>
        <duration>480</duration>
        <voice>13</voice>
        <type>quarter</type>
        <staff>4</staff>
        </note>
      <note default-x="147.65" default-y="-330.00">
        <pitch>
          <step>E</step>
          <octave>4</octave>
          </pitch>
        <duration>120</duration>
        <voice>13</voice>
        <type>16th</type>
        <stem>up</stem>
        <staff>4</staff>
        <beam number="1">begin</beam>
        <beam number="2">begin</beam>
        </note>
      <note default-x="181.23" default-y="-355.00">
        <pitch>
          <step>G</step>
          <alter>1</alter>
          <octave>3</octave>
          </pitch>
        <duration>120</duration>
        <voice>13</voice>
        <type>16th</type>
        <accidental>sharp</accidental>
        <stem>up</stem>
        <staff>4</staff>
        <beam number="1">continue</beam>
        <beam number="2">continue</beam>
        </note>
      <note default-x="211.27" default-y="-345.00">
        <pitch>
          <step>B</step>
          <octave>3</octave>
          </pitch>
        <duration>120</duration>
        <voice>13</voice>
        <type>16th</type>
        <stem>up</stem>
        <staff>4</staff>
        <beam number="1">continue</beam>
        <beam number="2">continue</beam>
        </note>
      <note default-x="250.53" default-y="-335.00">
        <pitch>
          <step>D</step>
          <octave>4</octave>
          </pitch>
        <duration>120</duration>
        <voice>13</voice>
        <type>16th</type>
        <stem>up</stem>
        <staff>4</staff>
        <beam number="1">end</beam>
        <beam number="2">end</beam>
        </note>
      </measure>
    <measure number="3" width="82.72">
      <note>
        <rest/>
        <duration>1920</duration>
        <voice>1</voice>
        <staff>1</staff>
        </note>
      <backup>
        <duration>1920</duration>
        </backup>
      <note>
        <rest/>
        <duration>1920</duration>
        <voice>5</voice>
        <staff>2</staff>
        </note>
      <backup>
        <duration>1920</duration>
        </backup>
      <note>
        <rest/>
        <duration>1920</duration>
        <voice>9</voice>
        <staff>3</staff>
        </note>
      <backup>
        <duration>1920</duration>
        </backup>
      <note>
        <rest/>
        <duration>1920</duration>
        <voice>13</voice>
        <staff>4</staff>
        </note>
      </measure>
    <measure number="4" width="82.72">
      <note>
        <rest/>
        <duration>1920</duration>
        <voice>1</voice>
        <staff>1</staff>
        </note>
      <backup>
        <duration>1920</duration>
        </backup>
      <note>
        <rest/>
        <duration>1920</duration>
        <voice>5</voice>
        <staff>2</staff>
        </note>
      <backup>
        <duration>1920</duration>
        </backup>
      <note>
        <rest/>
        <duration>1920</duration>
        <voice>9</voice>
        <staff>3</staff>
        </note>
      <backup>
        <duration>1920</duration>
        </backup>
      <note>
        <rest/>
        <duration>1920</duration>
        <voice>13</voice>
        <staff>4</staff>
        </note>
      </measure>
    <measure number="5" width="82.72">
      <note>
        <rest/>
        <duration>1920</duration>
        <voice>1</voice>
        <staff>1</staff>
        </note>
      <backup>
        <duration>1920</duration>
        </backup>
      <note>
        <rest/>
        <duration>1920</duration>
        <voice>5</voice>
        <staff>2</staff>
        </note>
      <backup>
        <duration>1920</duration>
        </backup>
      <note>
        <rest/>
        <duration>1920</duration>
        <voice>9</voice>
        <staff>3</staff>
        </note>
      <backup>
        <duration>1920</duration>
        </backup>
      <note>
        <rest/>
        <duration>1920</duration>
        <voice>13</voice>
        <staff>4</staff>
        </note>
      </measure>
    <measure number="6" width="82.72">
      <note>
        <rest/>
        <duration>1920</duration>
        <voice>1</voice>
        <staff>1</staff>
        </note>
      <backup>
        <duration>1920</duration>
        </backup>
      <note>
        <rest/>
        <duration>1920</duration>
        <voice>5</voice>
        <staff>2</staff>
        </note>
      <backup>
        <duration>1920</duration>
        </backup>
      <note>
        <rest/>
        <duration>1920</duration>
        <voice>9</voice>
        <staff>3</staff>
        </note>
      <backup>
        <duration>1920</duration>
        </backup>
      <note>
        <rest/>
        <duration>1920</duration>
        <voice>13</voice>
        <staff>4</staff>
        </note>
      </measure>
    <measure number="7" width="88.97">
      <print new-system="yes">
        <system-layout>
          <system-margins>
            <left-margin>6.50</left-margin>
            <right-margin>0.00</right-margin>
            </system-margins>
          <system-distance>150.00</system-distance>
          </system-layout>
        <staff-layout number="2">
          <staff-distance>65.00</staff-distance>
          </staff-layout>
        <staff-layout number="3">
          <staff-distance>65.00</staff-distance>
          </staff-layout>
        <staff-layout number="4">
          <staff-distance>65.00</staff-distance>
          </staff-layout>
        </print>
      <note>
        <rest/>
        <duration>1920</duration>
        <voice>1</voice>
        <staff>1</staff>
        </note>
      <backup>
        <duration>1920</duration>
        </backup>
      <note>
        <rest/>
        <duration>1920</duration>
        <voice>5</voice>
        <staff>2</staff>
        </note>
      <backup>
        <duration>1920</duration>
        </backup>
      <note>
        <rest/>
        <duration>1920</duration>
        <voice>9</voice>
        <staff>3</staff>
        </note>
      <backup>
        <duration>1920</duration>
        </backup>
      <note>
        <rest/>
        <duration>1920</duration>
        <voice>13</voice>
        <staff>4</staff>
        </note>
      </measure>
    <measure number="8" width="59.71">
      <note>
        <rest/>
        <duration>1920</duration>
        <voice>1</voice>
        <staff>1</staff>
        </note>
      <backup>
        <duration>1920</duration>
        </backup>
      <note>
        <rest/>
        <duration>1920</duration>
        <voice>5</voice>
        <staff>2</staff>
        </note>
      <backup>
        <duration>1920</duration>
        </backup>
      <note>
        <rest/>
        <duration>1920</duration>
        <voice>9</voice>
        <staff>3</staff>
        </note>
      <backup>
        <duration>1920</duration>
        </backup>
      <note>
        <rest/>
        <duration>1920</duration>
        <voice>13</voice>
        <staff>4</staff>
        </note>
      </measure>
    <measure number="9" width="59.71">
      <note>
        <rest/>
        <duration>1920</duration>
        <voice>1</voice>
        <staff>1</staff>
        </note>
      <backup>
        <duration>1920</duration>
        </backup>
      <note>
        <rest/>
        <duration>1920</duration>
        <voice>5</voice>
        <staff>2</staff>
        </note>
      <backup>
        <duration>1920</duration>
        </backup>
      <note>
        <rest/>
        <duration>1920</duration>
        <voice>9</voice>
        <staff>3</staff>
        </note>
      <backup>
        <duration>1920</duration>
        </backup>
      <note>
        <rest/>
        <duration>1920</duration>
        <voice>13</voice>
        <staff>4</staff>
        </note>
      </measure>
    <measure number="10" width="59.71">
      <note>
        <rest/>
        <duration>1920</duration>
        <voice>1</voice>
        <staff>1</staff>
        </note>
      <backup>
        <duration>1920</duration>
        </backup>
      <note>
        <rest/>
        <duration>1920</duration>
        <voice>5</voice>
        <staff>2</staff>
        </note>
      <backup>
        <duration>1920</duration>
        </backup>
      <note>
        <rest/>
        <duration>1920</duration>
        <voice>9</voice>
        <staff>3</staff>
        </note>
      <backup>
        <duration>1920</duration>
        </backup>
      <note>
        <rest/>
        <duration>1920</duration>
        <voice>13</voice>
        <staff>4</staff>
        </note>
      </measure>
    <measure number="11" width="59.71">
      <note>
        <rest/>
        <duration>1920</duration>
        <voice>1</voice>
        <staff>1</staff>
        </note>
      <backup>
        <duration>1920</duration>
        </backup>
      <note>
        <rest/>
        <duration>1920</duration>
        <voice>5</voice>
        <staff>2</staff>
        </note>
      <backup>
        <duration>1920</duration>
        </backup>
      <note>
        <rest/>
        <duration>1920</duration>
        <voice>9</voice>
        <staff>3</staff>
        </note>
      <backup>
        <duration>1920</duration>
        </backup>
      <note>
        <rest/>
        <duration>1920</duration>
        <voice>13</voice>
        <staff>4</staff>
        </note>
      </measure>
    <measure number="12" width="59.71">
      <note>
        <rest/>
        <duration>1920</duration>
        <voice>1</voice>
        <staff>1</staff>
        </note>
      <backup>
        <duration>1920</duration>
        </backup>
      <note>
        <rest/>
        <duration>1920</duration>
        <voice>5</voice>
        <staff>2</staff>
        </note>
      <backup>
        <duration>1920</duration>
        </backup>
      <note>
        <rest/>
        <duration>1920</duration>
        <voice>9</voice>
        <staff>3</staff>
        </note>
      <backup>
        <duration>1920</duration>
        </backup>
      <note>
        <rest/>
        <duration>1920</duration>
        <voice>13</voice>
        <staff>4</staff>
        </note>
      </measure>
    <measure number="13" width="59.71">
      <note>
        <rest/>
        <duration>1920</duration>
        <voice>1</voice>
        <staff>1</staff>
        </note>
      <backup>
        <duration>1920</duration>
        </backup>
      <note>
        <rest/>
        <duration>1920</duration>
        <voice>5</voice>
        <staff>2</staff>
        </note>
      <backup>
        <duration>1920</duration>
        </backup>
      <note>
        <rest/>
        <duration>1920</duration>
        <voice>9</voice>
        <staff>3</staff>
        </note>
      <backup>
        <duration>1920</duration>
        </backup>
      <note>
        <rest/>
        <duration>1920</duration>
        <voice>13</voice>
        <staff>4</staff>
        </note>
      </measure>
    <measure number="14" width="59.71">
      <note>
        <rest/>
        <duration>1920</duration>
        <voice>1</voice>
        <staff>1</staff>
        </note>
      <backup>
        <duration>1920</duration>
        </backup>
      <note>
        <rest/>
        <duration>1920</duration>
        <voice>5</voice>
        <staff>2</staff>
        </note>
      <backup>
        <duration>1920</duration>
        </backup>
      <note>
        <rest/>
        <duration>1920</duration>
        <voice>9</voice>
        <staff>3</staff>
        </note>
      <backup>
        <duration>1920</duration>
        </backup>
      <note>
        <rest/>
        <duration>1920</duration>
        <voice>13</voice>
        <staff>4</staff>
        </note>
      </measure>
    <measure number="15" width="59.71">
      <note>
        <rest/>
        <duration>1920</duration>
        <voice>1</voice>
        <staff>1</staff>
        </note>
      <backup>
        <duration>1920</duration>
        </backup>
      <note>
        <rest/>
        <duration>1920</duration>
        <voice>5</voice>
        <staff>2</staff>
        </note>
      <backup>
        <duration>1920</duration>
        </backup>
      <note>
        <rest/>
        <duration>1920</duration>
        <voice>9</voice>
        <staff>3</staff>
        </note>
      <backup>
        <duration>1920</duration>
        </backup>
      <note>
        <rest/>
        <duration>1920</duration>
        <voice>13</voice>
        <staff>4</staff>
        </note>
      </measure>
    <measure number="16" width="59.71">
      <note>
        <rest/>
        <duration>1920</duration>
        <voice>1</voice>
        <staff>1</staff>
        </note>
      <backup>
        <duration>1920</duration>
        </backup>
      <note>
        <rest/>
        <duration>1920</duration>
        <voice>5</voice>
        <staff>2</staff>
        </note>
      <backup>
        <duration>1920</duration>
        </backup>
      <note>
        <rest/>
        <duration>1920</duration>
        <voice>9</voice>
        <staff>3</staff>
        </note>
      <backup>
        <duration>1920</duration>
        </backup>
      <note>
        <rest/>
        <duration>1920</duration>
        <voice>13</voice>
        <staff>4</staff>
        </note>
      </measure>
    <measure number="17" width="59.71">
      <note>
        <rest/>
        <duration>1920</duration>
        <voice>1</voice>
        <staff>1</staff>
        </note>
      <backup>
        <duration>1920</duration>
        </backup>
      <note>
        <rest/>
        <duration>1920</duration>
        <voice>5</voice>
        <staff>2</staff>
        </note>
      <backup>
        <duration>1920</duration>
        </backup>
      <note>
        <rest/>
        <duration>1920</duration>
        <voice>9</voice>
        <staff>3</staff>
        </note>
      <backup>
        <duration>1920</duration>
        </backup>
      <note>
        <rest/>
        <duration>1920</duration>
        <voice>13</voice>
        <staff>4</staff>
        </note>
      </measure>
    <measure number="18" width="59.71">
      <note>
        <rest/>
        <duration>1920</duration>
        <voice>1</voice>
        <staff>1</staff>
        </note>
      <backup>
        <duration>1920</duration>
        </backup>
      <note>
        <rest/>
        <duration>1920</duration>
        <voice>5</voice>
        <staff>2</staff>
        </note>
      <backup>
        <duration>1920</duration>
        </backup>
      <note>
        <rest/>
        <duration>1920</duration>
        <voice>9</voice>
        <staff>3</staff>
        </note>
      <backup>
        <duration>1920</duration>
        </backup>
      <note>
        <rest/>
        <duration>1920</duration>
        <voice>13</voice>
        <staff>4</staff>
        </note>
      </measure>
    <measure number="19" width="59.71">
      <note>
        <rest/>
        <duration>1920</duration>
        <voice>1</voice>
        <staff>1</staff>
        </note>
      <backup>
        <duration>1920</duration>
        </backup>
      <note>
        <rest/>
        <duration>1920</duration>
        <voice>5</voice>
        <staff>2</staff>
        </note>
      <backup>
        <duration>1920</duration>
        </backup>
      <note>
        <rest/>
        <duration>1920</duration>
        <voice>9</voice>
        <staff>3</staff>
        </note>
      <backup>
        <duration>1920</duration>
        </backup>
      <note>
        <rest/>
        <duration>1920</duration>
        <voice>13</voice>
        <staff>4</staff>
        </note>
      </measure>
    <measure number="20" width="59.71">
      <note>
        <rest/>
        <duration>1920</duration>
        <voice>1</voice>
        <staff>1</staff>
        </note>
      <backup>
        <duration>1920</duration>
        </backup>
      <note>
        <rest/>
        <duration>1920</duration>
        <voice>5</voice>
        <staff>2</staff>
        </note>
      <backup>
        <duration>1920</duration>
        </backup>
      <note>
        <rest/>
        <duration>1920</duration>
        <voice>9</voice>
        <staff>3</staff>
        </note>
      <backup>
        <duration>1920</duration>
        </backup>
      <note>
        <rest/>
        <duration>1920</duration>
        <voice>13</voice>
        <staff>4</staff>
        </note>
      </measure>
    <measure number="21" width="59.71">
      <note>
        <rest/>
        <duration>1920</duration>
        <voice>1</voice>
        <staff>1</staff>
        </note>
      <backup>
        <duration>1920</duration>
        </backup>
      <note>
        <rest/>
        <duration>1920</duration>
        <voice>5</voice>
        <staff>2</staff>
        </note>
      <backup>
        <duration>1920</duration>
        </backup>
      <note>
        <rest/>
        <duration>1920</duration>
        <voice>9</voice>
        <staff>3</staff>
        </note>
      <backup>
        <duration>1920</duration>
        </backup>
      <note>
        <rest/>
        <duration>1920</duration>
        <voice>13</voice>
        <staff>4</staff>
        </note>
      </measure>
    <measure number="22" width="59.71">
      <note>
        <rest/>
        <duration>1920</duration>
        <voice>1</voice>
        <staff>1</staff>
        </note>
      <backup>
        <duration>1920</duration>
        </backup>
      <note>
        <rest/>
        <duration>1920</duration>
        <voice>5</voice>
        <staff>2</staff>
        </note>
      <backup>
        <duration>1920</duration>
        </backup>
      <note>
        <rest/>
        <duration>1920</duration>
        <voice>9</voice>
        <staff>3</staff>
        </note>
      <backup>
        <duration>1920</duration>
        </backup>
      <note>
        <rest/>
        <duration>1920</duration>
        <voice>13</voice>
        <staff>4</staff>
        </note>
      </measure>
    <measure number="23" width="59.71">
      <note>
        <rest/>
        <duration>1920</duration>
        <voice>1</voice>
        <staff>1</staff>
        </note>
      <backup>
        <duration>1920</duration>
        </backup>
      <note>
        <rest/>
        <duration>1920</duration>
        <voice>5</voice>
        <staff>2</staff>
        </note>
      <backup>
        <duration>1920</duration>
        </backup>
      <note>
        <rest/>
        <duration>1920</duration>
        <voice>9</voice>
        <staff>3</staff>
        </note>
      <backup>
        <duration>1920</duration>
        </backup>
      <note>
        <rest/>
        <duration>1920</duration>
        <voice>13</voice>
        <staff>4</staff>
        </note>
      </measure>
    <measure number="24" width="59.71">
      <note>
        <rest/>
        <duration>1920</duration>
        <voice>1</voice>
        <staff>1</staff>
        </note>
      <backup>
        <duration>1920</duration>
        </backup>
      <note>
        <rest/>
        <duration>1920</duration>
        <voice>5</voice>
        <staff>2</staff>
        </note>
      <backup>
        <duration>1920</duration>
        </backup>
      <note>
        <rest/>
        <duration>1920</duration>
        <voice>9</voice>
        <staff>3</staff>
        </note>
      <backup>
        <duration>1920</duration>
        </backup>
      <note>
        <rest/>
        <duration>1920</duration>
        <voice>13</voice>
        <staff>4</staff>
        </note>
      </measure>
    <measure number="25" width="162.49">
      <print new-page="yes">
        <system-layout>
          <system-margins>
            <left-margin>6.50</left-margin>
            <right-margin>-0.00</right-margin>
            </system-margins>
          <top-system-distance>70.00</top-system-distance>
          </system-layout>
        <staff-layout number="2">
          <staff-distance>65.00</staff-distance>
          </staff-layout>
        <staff-layout number="3">
          <staff-distance>65.00</staff-distance>
          </staff-layout>
        <staff-layout number="4">
          <staff-distance>65.00</staff-distance>
          </staff-layout>
        </print>
      <note>
        <rest/>
        <duration>1920</duration>
        <voice>1</voice>
        <staff>1</staff>
        </note>
      <backup>
        <duration>1920</duration>
        </backup>
      <note>
        <rest/>
        <duration>1920</duration>
        <voice>5</voice>
        <staff>2</staff>
        </note>
      <backup>
        <duration>1920</duration>
        </backup>
      <note>
        <rest/>
        <duration>1920</duration>
        <voice>9</voice>
        <staff>3</staff>
        </note>
      <backup>
        <duration>1920</duration>
        </backup>
      <note>
        <rest/>
        <duration>1920</duration>
        <voice>13</voice>
        <staff>4</staff>
        </note>
      </measure>
    <measure number="26" width="133.23">
      <note>
        <rest/>
        <duration>1920</duration>
        <voice>1</voice>
        <staff>1</staff>
        </note>
      <backup>
        <duration>1920</duration>
        </backup>
      <note>
        <rest/>
        <duration>1920</duration>
        <voice>5</voice>
        <staff>2</staff>
        </note>
      <backup>
        <duration>1920</duration>
        </backup>
      <note>
        <rest/>
        <duration>1920</duration>
        <voice>9</voice>
        <staff>3</staff>
        </note>
      <backup>
        <duration>1920</duration>
        </backup>
      <note>
        <rest/>
        <duration>1920</duration>
        <voice>13</voice>
        <staff>4</staff>
        </note>
      </measure>
    <measure number="27" width="133.23">
      <note>
        <rest/>
        <duration>1920</duration>
        <voice>1</voice>
        <staff>1</staff>
        </note>
      <backup>
        <duration>1920</duration>
        </backup>
      <note>
        <rest/>
        <duration>1920</duration>
        <voice>5</voice>
        <staff>2</staff>
        </note>
      <backup>
        <duration>1920</duration>
        </backup>
      <note>
        <rest/>
        <duration>1920</duration>
        <voice>9</voice>
        <staff>3</staff>
        </note>
      <backup>
        <duration>1920</duration>
        </backup>
      <note>
        <rest/>
        <duration>1920</duration>
        <voice>13</voice>
        <staff>4</staff>
        </note>
      </measure>
    <measure number="28" width="133.23">
      <note>
        <rest/>
        <duration>1920</duration>
        <voice>1</voice>
        <staff>1</staff>
        </note>
      <backup>
        <duration>1920</duration>
        </backup>
      <note>
        <rest/>
        <duration>1920</duration>
        <voice>5</voice>
        <staff>2</staff>
        </note>
      <backup>
        <duration>1920</duration>
        </backup>
      <note>
        <rest/>
        <duration>1920</duration>
        <voice>9</voice>
        <staff>3</staff>
        </note>
      <backup>
        <duration>1920</duration>
        </backup>
      <note>
        <rest/>
        <duration>1920</duration>
        <voice>13</voice>
        <staff>4</staff>
        </note>
      </measure>
    <measure number="29" width="133.23">
      <note>
        <rest/>
        <duration>1920</duration>
        <voice>1</voice>
        <staff>1</staff>
        </note>
      <backup>
        <duration>1920</duration>
        </backup>
      <note>
        <rest/>
        <duration>1920</duration>
        <voice>5</voice>
        <staff>2</staff>
        </note>
      <backup>
        <duration>1920</duration>
        </backup>
      <note>
        <rest/>
        <duration>1920</duration>
        <voice>9</voice>
        <staff>3</staff>
        </note>
      <backup>
        <duration>1920</duration>
        </backup>
      <note>
        <rest/>
        <duration>1920</duration>
        <voice>13</voice>
        <staff>4</staff>
        </note>
      </measure>
    <measure number="30" width="133.23">
      <note>
        <rest/>
        <duration>1920</duration>
        <voice>1</voice>
        <staff>1</staff>
        </note>
      <backup>
        <duration>1920</duration>
        </backup>
      <note>
        <rest/>
        <duration>1920</duration>
        <voice>5</voice>
        <staff>2</staff>
        </note>
      <backup>
        <duration>1920</duration>
        </backup>
      <note>
        <rest/>
        <duration>1920</duration>
        <voice>9</voice>
        <staff>3</staff>
        </note>
      <backup>
        <duration>1920</duration>
        </backup>
      <note>
        <rest/>
        <duration>1920</duration>
        <voice>13</voice>
        <staff>4</staff>
        </note>
      </measure>
    <measure number="31" width="133.23">
      <note>
        <rest/>
        <duration>1920</duration>
        <voice>1</voice>
        <staff>1</staff>
        </note>
      <backup>
        <duration>1920</duration>
        </backup>
      <note>
        <rest/>
        <duration>1920</duration>
        <voice>5</voice>
        <staff>2</staff>
        </note>
      <backup>
        <duration>1920</duration>
        </backup>
      <note>
        <rest/>
        <duration>1920</duration>
        <voice>9</voice>
        <staff>3</staff>
        </note>
      <backup>
        <duration>1920</duration>
        </backup>
      <note>
        <rest/>
        <duration>1920</duration>
        <voice>13</voice>
        <staff>4</staff>
        </note>
      </measure>
    <measure number="32" width="142.23">
      <note>
        <rest/>
        <duration>1920</duration>
        <voice>1</voice>
        <staff>1</staff>
        </note>
      <backup>
        <duration>1920</duration>
        </backup>
      <note>
        <rest/>
        <duration>1920</duration>
        <voice>5</voice>
        <staff>2</staff>
        </note>
      <backup>
        <duration>1920</duration>
        </backup>
      <note>
        <rest/>
        <duration>1920</duration>
        <voice>9</voice>
        <staff>3</staff>
        </note>
      <backup>
        <duration>1920</duration>
        </backup>
      <note>
        <rest/>
        <duration>1920</duration>
        <voice>13</voice>
        <staff>4</staff>
        </note>
      <barline location="right">
        <bar-style>light-heavy</bar-style>
        </barline>
      </measure>
    </part>
  </score-partwise>
