<?xml version="1.0" encoding="UTF-8" standalone="no"?>
<svg width="708.661px" height="99.2126px" viewBox="0 0 708.661 99.2126"
 xmlns="http://www.w3.org/2000/svg" xmlns:xlink="http://www.w3.org/1999/xlink" version="1.2" baseProfile="tiny">
<title>articulations</title>
<desc>Generated by MuseScore 2.3.2</desc>
<polyline class="StaffLines" fill="none" stroke="#000000" stroke-width="0.54" stroke-linejoin="bevel" points="28.3465,53.6088 680.315,53.6088"/>
<polyline class="Stem" fill="none" stroke="#000000" stroke-width="0.87" stroke-linecap="round" stroke-linejoin="bevel" points="562.901,52.3503 562.901,36.0184"/>
<polyline class="Stem" fill="none" stroke="#000000" stroke-width="0.87" stroke-linecap="round" stroke-linejoin="bevel" points="467.943,52.3503 467.943,36.0184"/>
<polyline class="Stem" fill="none" stroke="#000000" stroke-width="0.87" stroke-linecap="round" stroke-linejoin="bevel" points="372.984,52.3503 372.984,36.0184"/>
<polyline class="Stem" fill="none" stroke="#000000" stroke-width="0.87" stroke-linecap="round" stroke-linejoin="bevel" points="278.026,52.3503 278.026,36.0184"/>
<polyline class="Stem" fill="none" stroke="#000000" stroke-width="0.87" stroke-linecap="round" stroke-linejoin="bevel" points="183.068,52.3503 183.068,36.0184"/>
<polyline class="Stem" fill="none" stroke="#000000" stroke-width="0.87" stroke-linecap="round" stroke-linejoin="bevel" points="88.1098,52.3503 88.1098,36.0184"/>
<path class="Note" transform="matrix(1.34022,0,0,1.34022,554.514,53.6088)" d="M4.39453,-2.75391 C5.01953,-2.75391 5.54688,-2.59115 5.97656,-2.26562 C6.38021,-1.91406 6.58203,-1.47135 6.58203,-0.9375 C6.58203,-0.0390625 6.11979,0.800781 5.19531,1.58203 C4.25781,2.36328 3.25521,2.75391 2.1875,2.75391 C1.5625,2.75391 1.03516,2.59115 0.605469,2.26562 C0.201823,1.91406 0,1.47135 0,0.9375 C0,0.0390625 0.46875,-0.800781 1.40625,-1.58203 C2.31771,-2.36328 3.3138,-2.75391 4.39453,-2.75391"/>
<path class="Note" transform="matrix(1.34022,0,0,1.34022,459.556,53.6088)" d="M4.39453,-2.75391 C5.01953,-2.75391 5.54688,-2.59115 5.97656,-2.26562 C6.38021,-1.91406 6.58203,-1.47135 6.58203,-0.9375 C6.58203,-0.0390625 6.11979,0.800781 5.19531,1.58203 C4.25781,2.36328 3.25521,2.75391 2.1875,2.75391 C1.5625,2.75391 1.03516,2.59115 0.605469,2.26562 C0.201823,1.91406 0,1.47135 0,0.9375 C0,0.0390625 0.46875,-0.800781 1.40625,-1.58203 C2.31771,-2.36328 3.3138,-2.75391 4.39453,-2.75391"/>
<path class="Note" transform="matrix(1.34022,0,0,1.34022,364.598,53.6088)" d="M4.39453,-2.75391 C5.01953,-2.75391 5.54688,-2.59115 5.97656,-2.26562 C6.38021,-1.91406 6.58203,-1.47135 6.58203,-0.9375 C6.58203,-0.0390625 6.11979,0.800781 5.19531,1.58203 C4.25781,2.36328 3.25521,2.75391 2.1875,2.75391 C1.5625,2.75391 1.03516,2.59115 0.605469,2.26562 C0.201823,1.91406 0,1.47135 0,0.9375 C0,0.0390625 0.46875,-0.800781 1.40625,-1.58203 C2.31771,-2.36328 3.3138,-2.75391 4.39453,-2.75391"/>
<path class="Note" transform="matrix(1.34022,0,0,1.34022,269.639,53.6088)" d="M4.39453,-2.75391 C5.01953,-2.75391 5.54688,-2.59115 5.97656,-2.26562 C6.38021,-1.91406 6.58203,-1.47135 6.58203,-0.9375 C6.58203,-0.0390625 6.11979,0.800781 5.19531,1.58203 C4.25781,2.36328 3.25521,2.75391 2.1875,2.75391 C1.5625,2.75391 1.03516,2.59115 0.605469,2.26562 C0.201823,1.91406 0,1.47135 0,0.9375 C0,0.0390625 0.46875,-0.800781 1.40625,-1.58203 C2.31771,-2.36328 3.3138,-2.75391 4.39453,-2.75391"/>
<path class="Note" transform="matrix(1.34022,0,0,1.34022,174.681,53.6088)" d="M4.39453,-2.75391 C5.01953,-2.75391 5.54688,-2.59115 5.97656,-2.26562 C6.38021,-1.91406 6.58203,-1.47135 6.58203,-0.9375 C6.58203,-0.0390625 6.11979,0.800781 5.19531,1.58203 C4.25781,2.36328 3.25521,2.75391 2.1875,2.75391 C1.5625,2.75391 1.03516,2.59115 0.605469,2.26562 C0.201823,1.91406 0,1.47135 0,0.9375 C0,0.0390625 0.46875,-0.800781 1.40625,-1.58203 C2.31771,-2.36328 3.3138,-2.75391 4.39453,-2.75391"/>
<path class="Note" transform="matrix(1.34022,0,0,1.34022,79.723,53.6088)" d="M4.39453,-2.75391 C5.01953,-2.75391 5.54688,-2.59115 5.97656,-2.26562 C6.38021,-1.91406 6.58203,-1.47135 6.58203,-0.9375 C6.58203,-0.0390625 6.11979,0.800781 5.19531,1.58203 C4.25781,2.36328 3.25521,2.75391 2.1875,2.75391 C1.5625,2.75391 1.03516,2.59115 0.605469,2.26562 C0.201823,1.91406 0,1.47135 0,0.9375 C0,0.0390625 0.46875,-0.800781 1.40625,-1.58203 C2.31771,-2.36328 3.3138,-2.75391 4.39453,-2.75391"/>
<path class="Rest" transform="matrix(1.34022,0,0,1.34022,587.059,53.6088)" d="M1.40625,-4.10156 C1.78385,-4.10156 2.07031,-3.9974 2.26562,-3.78906 C2.46094,-3.55469 2.5651,-3.33333 2.57812,-3.125 C2.60417,-2.92969 2.66927,-2.70833 2.77344,-2.46094 C2.89062,-2.2526 3.04036,-2.14844 3.22266,-2.14844 C3.36589,-2.14844 3.58073,-2.3112 3.86719,-2.63672 C4.1276,-2.92318 4.31641,-3.17708 4.43359,-3.39844 C4.4987,-3.52865 4.58984,-3.59375 4.70703,-3.59375 L4.72656,-3.59375 C4.85677,-3.58073 4.94792,-3.51562 5,-3.39844 L2.53906,5 C2.40885,5.13021 2.22656,5.19531 1.99219,5.19531 C1.75781,5.19531 1.57552,5.13021 1.44531,5 L3.78906,-1.52344 C2.95573,-1.22396 2.2526,-1.07422 1.67969,-1.07422 C1.21094,-1.07422 0.807292,-1.22396 0.46875,-1.52344 C0.117188,-1.8099 -0.0585938,-2.1875 -0.0585938,-2.65625 C-0.0585938,-3.0599 0.0846354,-3.39844 0.371094,-3.67188 C0.657552,-3.95833 1.0026,-4.10156 1.40625,-4.10156"/>
<path class="Articulation" transform="matrix(1.34022,0,0,1.34022,462.606,33.5055)" d="M0.761719,-0.253906 L0,-4.39453 C0,-4.61589 0.0976562,-4.81771 0.292969,-5 C0.47526,-5.16927 0.716146,-5.25391 1.01562,-5.25391 C1.3151,-5.25391 1.55599,-5.16927 1.73828,-5 C1.93359,-4.81771 2.03125,-4.61589 2.03125,-4.39453 L1.26953,-0.253906 C1.25651,-0.0846354 1.17188,0 1.01562,0 C0.859375,0 0.77474,-0.0846354 0.761719,-0.253906"/>
<path class="Articulation" transform="matrix(1.34022,0,0,1.34022,368.75,30.9926)" d="M0.292969,-0.292969 C0.0976562,-0.488281 0,-0.722656 0,-0.996094 C0,-1.26953 0.0976562,-1.50391 0.292969,-1.69922 C0.488281,-1.89453 0.722656,-1.99219 0.996094,-1.99219 C1.26953,-1.99219 1.50391,-1.89453 1.69922,-1.69922 C1.89453,-1.50391 1.99219,-1.26953 1.99219,-0.996094 C1.99219,-0.722656 1.89453,-0.488281 1.69922,-0.292969 C1.50391,-0.0976562 1.26953,0 0.996094,0 C0.722656,0 0.488281,-0.0976562 0.292969,-0.292969"/>
<path class="Articulation" transform="matrix(1.34022,0,0,1.34022,270.03,33.5055)" d="M2.44141,-0.234375 C2.28516,-0.390625 2.20703,-0.579427 2.20703,-0.800781 C2.20703,-1.02214 2.28516,-1.21094 2.44141,-1.36719 C2.59766,-1.52344 2.78646,-1.60156 3.00781,-1.60156 C3.22917,-1.60156 3.41797,-1.52344 3.57422,-1.36719 C3.73047,-1.21094 3.80859,-1.02214 3.80859,-0.800781 C3.80859,-0.579427 3.73047,-0.390625 3.57422,-0.234375 C3.41797,-0.078125 3.22917,0 3.00781,0 C2.78646,0 2.59766,-0.078125 2.44141,-0.234375 M5.64453,-4.45312 C5.7487,-4.45312 5.83333,-4.42057 5.89844,-4.35547 C5.97656,-4.29036 6.01562,-4.20573 6.01562,-4.10156 C6.01562,-3.9974 5.97656,-3.91276 5.89844,-3.84766 C5.83333,-3.78255 5.7487,-3.75 5.64453,-3.75 L0.371094,-3.75 C0.266927,-3.75 0.182292,-3.78255 0.117188,-3.84766 C0.0390625,-3.91276 0,-3.9974 0,-4.10156 C0,-4.20573 0.0390625,-4.29036 0.117188,-4.35547 C0.182292,-4.42057 0.266927,-4.45312 0.371094,-4.45312 L5.64453,-4.45312 "/>
<path class="Articulation" transform="matrix(1.34022,0,0,1.34022,175.072,30.9926)" d="M5.60547,0 L0.410156,0 C0.31901,0 0.221354,-0.0390625 0.117188,-0.117188 C0.0390625,-0.195312 0,-0.286458 0,-0.390625 C0,-0.494792 0.0390625,-0.585938 0.117188,-0.664062 C0.221354,-0.742188 0.31901,-0.78125 0.410156,-0.78125 L5.60547,-0.78125 C5.69661,-0.78125 5.79427,-0.742188 5.89844,-0.664062 C5.97656,-0.585938 6.01562,-0.494792 6.01562,-0.390625 C6.01562,-0.286458 5.97656,-0.195312 5.89844,-0.117188 C5.79427,-0.0390625 5.69661,0 5.60547,0"/>
<path class="Hook" transform="matrix(1.34022,0,0,1.34022,562.465,36.0184)" d="M0,5 L0,0 L0.625,0 C0.625,0.742188 0.768229,1.48438 1.05469,2.22656 C1.36719,3.03385 1.71224,3.73698 2.08984,4.33594 C2.36328,4.76562 2.77344,5.42318 3.32031,6.30859 C3.73698,6.98568 4.08854,7.69531 4.375,8.4375 C4.66146,9.17969 4.80469,9.92188 4.80469,10.6641 C4.80469,12.0182 4.52474,13.3984 3.96484,14.8047 C3.8737,14.9609 3.75,15.0391 3.59375,15.0391 C3.46354,15.0391 3.34635,14.987 3.24219,14.8828 C3.16406,14.8047 3.125,14.707 3.125,14.5898 L3.125,14.4922 C3.6849,13.2031 3.96484,11.9271 3.96484,10.6641 C3.96484,10.013 3.76953,9.3099 3.37891,8.55469 C2.98828,7.78646 2.59115,7.17448 2.1875,6.71875 C1.73177,6.1849 1.21094,5.61198 0.625,5 L0,5 "/>
<path class="StaffText" transform="matrix(0.01,0,0,0.01,547.813,74.3099)" d="M1054.3,-131.2 C990.25,-28.8 903.617,22.4 794.4,22.4 C685.183,22.4 598.546,-29.8667 534.487,-134.4 C470.429,-238.933 438.4,-373.333 438.4,-537.6 C438.4,-692.267 470.967,-821.6 536.1,-925.6 C601.233,-1029.6 689.475,-1081.6 800.825,-1081.6 C903.708,-1081.6 987.692,-1030.4 1052.78,-928 C1117.86,-825.6 1150.4,-692.267 1150.4,-528 C1150.4,-365.867 1118.37,-233.6 1054.3,-131.2 M796,-1040 C655.733,-1040 585.6,-867.733 585.6,-523.2 C585.6,-187.2 655.2,-19.2 794.4,-19.2 C933.6,-19.2 1003.2,-187.733 1003.2,-524.8 C1003.2,-692.267 985.533,-820 950.2,-908 C914.867,-996 863.467,-1040 796,-1040 M1394.2,-160 C1418.52,-160 1439.4,-150.933 1456.84,-132.8 C1474.28,-114.667 1483,-93.3333 1483,-68.8 C1483,-45.3333 1474.02,-25.0667 1456.05,-8 C1438.08,9.06667 1416.94,17.6 1392.62,17.6 C1369.38,17.6 1349.29,9.06667 1332.38,-8 C1315.46,-25.0667 1307,-45.3333 1307,-68.8 C1307,-93.3333 1315.72,-114.667 1333.16,-132.8 C1350.6,-150.933 1370.95,-160 1394.2,-160 M2166.2,-314.45 C2166.2,-371.483 2153.67,-422.062 2128.6,-466.188 C2103.53,-510.312 2073.13,-544.483 2037.4,-568.7 C2001.67,-592.917 1961.67,-612.825 1917.4,-628.425 C1873.13,-644.025 1834.73,-654.246 1802.2,-659.088 C1769.67,-663.929 1741.13,-666.35 1716.6,-666.35 C1703.8,-666.35 1697.4,-670.658 1697.4,-679.275 C1697.4,-682.408 1697.93,-685.025 1699,-687.125 L1873.4,-1059.2 L2207.8,-1059.2 C2224.87,-1059.2 2238.47,-1061.87 2248.6,-1067.2 C2258.73,-1072.53 2269.67,-1083.73 2281.4,-1100.8 L2295.8,-1089.6 L2235,-955.7 C2230.73,-946.833 2218.47,-942.4 2198.2,-942.4 L1884.6,-942.4 L1817.4,-805.175 C1973.13,-777.208 2088.87,-731.746 2164.6,-668.788 C2240.33,-605.829 2278.2,-513.542 2278.2,-391.925 C2278.2,-328.258 2268.33,-271.613 2248.6,-221.988 C2228.87,-172.363 2203.8,-132.442 2173.4,-102.225 C2143,-72.0083 2107.8,-47.1917 2067.8,-27.775 C2027.8,-8.35833 1989.4,4.85833 1952.6,11.875 C1915.8,18.8917 1878.73,22.4 1841.4,22.4 C1781.67,22.4 1734.2,13.6 1699,-4 C1663.8,-21.6 1646.2,-45.8667 1646.2,-76.8 C1646.2,-116.267 1669.13,-136 1715,-136 C1744.87,-136 1783.53,-119.733 1831,-87.2 C1878.47,-54.6667 1916.07,-38.4 1943.8,-38.4 C2006.73,-38.4 2059.53,-65.0375 2102.2,-118.312 C2144.87,-171.588 2166.2,-236.967 2166.2,-314.45"/>
<path class="StaffText" transform="matrix(0.01,0,0,0.01,547.813,93.3099)" d="M465.6,283.2 C437.867,266.133 409.067,245.6 379.2,221.6 C349.333,197.6 315.467,164.267 277.6,121.6 C239.733,78.9333 206.55,33.3333 178.05,-15.2 C149.55,-63.7333 125.55,-122.133 106.05,-190.4 C86.55,-258.667 76.8,-329.6 76.8,-403.2 C76.8,-480 86.55,-552.8 106.05,-621.6 C125.55,-690.4 148.483,-747.467 174.85,-792.8 C201.217,-838.133 234.933,-881.867 276,-924 C317.067,-966.133 350.933,-997.333 377.6,-1017.6 C404.267,-1037.87 435.2,-1059.2 470.4,-1081.6 L484.8,-1056 C437.867,-1017.6 400,-982.933 371.2,-952 C342.4,-921.067 314.667,-880.8 288,-831.2 C261.333,-781.6 242.133,-722.4 230.4,-653.6 C218.667,-584.8 212.8,-502.933 212.8,-408 C212.8,-308.8 218.667,-223.467 230.4,-152 C242.133,-80.5333 261.333,-19.4667 288,31.2 C314.667,81.8667 342.4,123.2 371.2,155.2 C400,187.2 437.867,221.333 484.8,257.6 L465.6,283.2 M1187.3,-131.2 C1123.25,-28.8 1036.62,22.4 927.4,22.4 C818.183,22.4 731.546,-29.8667 667.487,-134.4 C603.429,-238.933 571.4,-373.333 571.4,-537.6 C571.4,-692.267 603.967,-821.6 669.1,-925.6 C734.233,-1029.6 822.475,-1081.6 933.825,-1081.6 C1036.71,-1081.6 1120.69,-1030.4 1185.78,-928 C1250.86,-825.6 1283.4,-692.267 1283.4,-528 C1283.4,-365.867 1251.37,-233.6 1187.3,-131.2 M929,-1040 C788.733,-1040 718.6,-867.733 718.6,-523.2 C718.6,-187.2 788.2,-19.2 927.4,-19.2 C1066.6,-19.2 1136.2,-187.733 1136.2,-524.8 C1136.2,-692.267 1118.53,-820 1083.2,-908 C1047.87,-996 996.467,-1040 929,-1040 M1527.2,-160 C1551.52,-160 1572.4,-150.933 1589.84,-132.8 C1607.28,-114.667 1616,-93.3333 1616,-68.8 C1616,-45.3333 1607.02,-25.0667 1589.05,-8 C1571.08,9.06667 1549.94,17.6 1525.62,17.6 C1502.38,17.6 1482.29,9.06667 1465.38,-8 C1448.46,-25.0667 1440,-45.3333 1440,-68.8 C1440,-93.3333 1448.72,-114.667 1466.16,-132.8 C1483.6,-150.933 1503.95,-160 1527.2,-160 M2299.2,-314.45 C2299.2,-371.483 2286.67,-422.062 2261.6,-466.188 C2236.53,-510.312 2206.13,-544.483 2170.4,-568.7 C2134.67,-592.917 2094.67,-612.825 2050.4,-628.425 C2006.13,-644.025 1967.73,-654.246 1935.2,-659.088 C1902.67,-663.929 1874.13,-666.35 1849.6,-666.35 C1836.8,-666.35 1830.4,-670.658 1830.4,-679.275 C1830.4,-682.408 1830.93,-685.025 1832,-687.125 L2006.4,-1059.2 L2340.8,-1059.2 C2357.87,-1059.2 2371.47,-1061.87 2381.6,-1067.2 C2391.73,-1072.53 2402.67,-1083.73 2414.4,-1100.8 L2428.8,-1089.6 L2368,-955.7 C2363.73,-946.833 2351.47,-942.4 2331.2,-942.4 L2017.6,-942.4 L1950.4,-805.175 C2106.13,-777.208 2221.87,-731.746 2297.6,-668.788 C2373.33,-605.829 2411.2,-513.542 2411.2,-391.925 C2411.2,-328.258 2401.33,-271.613 2381.6,-221.988 C2361.87,-172.363 2336.8,-132.442 2306.4,-102.225 C2276,-72.0083 2240.8,-47.1917 2200.8,-27.775 C2160.8,-8.35833 2122.4,4.85833 2085.6,11.875 C2048.8,18.8917 2011.73,22.4 1974.4,22.4 C1914.67,22.4 1867.2,13.6 1832,-4 C1796.8,-21.6 1779.2,-45.8667 1779.2,-76.8 C1779.2,-116.267 1802.13,-136 1848,-136 C1877.87,-136 1916.53,-119.733 1964,-87.2 C2011.47,-54.6667 2049.07,-38.4 2076.8,-38.4 C2139.73,-38.4 2192.53,-65.0375 2235.2,-118.312 C2277.87,-171.588 2299.2,-236.967 2299.2,-314.45 M3246.4,-1059.2 L3246.4,-1033.95 L2907.2,12.8 L2803.2,12.8 L3120,-942.4 L2772.8,-942.4 C2729.07,-942.4 2695.73,-934.388 2672.8,-918.363 C2649.87,-902.338 2621.33,-867.075 2587.2,-812.575 L2560,-825.4 L2654.4,-1059.2 L3246.4,-1059.2 M4070.4,-484.475 C4070.4,-495.142 4077.87,-523.675 4092.8,-570.075 C4107.73,-616.475 4115.2,-670.075 4115.2,-730.875 C4073.6,-705.142 4039.47,-677.258 4012.8,-647.225 C3986.13,-617.192 3966.13,-595.413 3952.8,-581.888 C3939.47,-568.363 3921.07,-561.6 3897.6,-561.6 C3859.2,-561.6 3840,-580.533 3840,-618.4 C3840,-636.733 3846.92,-650.488 3860.76,-659.663 C3874.6,-668.838 3891.64,-675.313 3911.88,-679.088 C3932.11,-682.863 3960.6,-691.379 3997.34,-704.638 C4034.08,-717.896 4069.49,-734.592 4103.57,-754.725 C4062.04,-775.942 4017.05,-792.379 3968.59,-804.038 C3920.13,-815.696 3886.58,-826.3 3867.95,-835.85 C3849.32,-845.4 3840,-862.9 3840,-888.35 C3840,-904.25 3845.33,-917.767 3856,-928.9 C3866.67,-940.033 3879.47,-945.6 3894.4,-945.6 C3911.47,-945.6 3926.67,-940.829 3940,-931.288 C3953.33,-921.746 3964.8,-910.083 3974.4,-896.3 C3984,-882.517 4001.33,-864.492 4026.4,-842.225 C4051.47,-819.958 4081.07,-798.75 4115.2,-778.6 C4115.2,-839.4 4108.27,-893.267 4094.4,-940.2 C4080.53,-987.133 4073.6,-1015.93 4073.6,-1026.6 C4073.6,-1042.6 4079.15,-1055.93 4090.25,-1066.6 C4101.35,-1077.27 4115.12,-1082.6 4131.56,-1082.6 C4148,-1082.6 4162.45,-1077 4174.91,-1065.8 C4187.37,-1054.6 4193.6,-1040.47 4193.6,-1023.4 C4193.6,-1009.53 4185.6,-980.467 4169.6,-936.2 C4153.6,-891.933 4145.6,-838.342 4145.6,-775.425 C4183.85,-798.758 4217.11,-825.533 4245.38,-855.75 C4273.64,-885.967 4295.51,-909.029 4310.98,-924.938 C4326.44,-940.846 4343.78,-948.8 4362.98,-948.8 C4380.04,-948.8 4393.91,-942.967 4404.57,-931.3 C4415.24,-919.633 4420.57,-904.792 4420.57,-886.775 C4420.57,-864.508 4409.91,-848.6 4388.57,-839.05 C4367.24,-829.5 4333.11,-818.1 4286.18,-804.85 C4239.24,-791.6 4197.11,-774.367 4159.77,-753.15 C4191.77,-733 4225.91,-716.829 4262.18,-704.638 C4298.44,-692.446 4326.97,-684.758 4347.77,-681.575 C4368.57,-678.392 4386.18,-671.933 4400.57,-662.2 C4414.97,-652.467 4422.18,-638.408 4422.18,-620.025 C4422.18,-601.642 4417.11,-587.042 4406.98,-576.225 C4396.84,-565.408 4383.24,-560 4366.18,-560 C4343.78,-560 4325.11,-566.742 4310.18,-580.225 C4295.24,-593.708 4273.64,-615.825 4245.38,-646.575 C4217.11,-677.325 4183.85,-705.425 4145.6,-730.875 C4145.6,-670.075 4153.87,-615.942 4170.4,-568.475 C4186.93,-521.008 4195.2,-494.608 4195.2,-489.275 C4195.2,-472.208 4188.6,-457.275 4175.39,-444.475 C4162.18,-431.675 4146.38,-425.275 4128,-425.275 C4112.63,-425.275 4099.19,-431.142 4087.68,-442.875 C4076.16,-454.608 4070.4,-468.475 4070.4,-484.475 M5583.3,-131.2 C5519.25,-28.8 5432.62,22.4 5323.4,22.4 C5214.18,22.4 5127.55,-29.8667 5063.49,-134.4 C4999.43,-238.933 4967.4,-373.333 4967.4,-537.6 C4967.4,-692.267 4999.97,-821.6 5065.1,-925.6 C5130.23,-1029.6 5218.47,-1081.6 5329.82,-1081.6 C5432.71,-1081.6 5516.69,-1030.4 5581.77,-928 C5646.86,-825.6 5679.4,-692.267 5679.4,-528 C5679.4,-365.867 5647.37,-233.6 5583.3,-131.2 M5325,-1040 C5184.73,-1040 5114.6,-867.733 5114.6,-523.2 C5114.6,-187.2 5184.2,-19.2 5323.4,-19.2 C5462.6,-19.2 5532.2,-187.733 5532.2,-524.8 C5532.2,-692.267 5514.53,-820 5479.2,-908 C5443.87,-996 5392.47,-1040 5325,-1040 M5923.2,-160 C5947.52,-160 5968.4,-150.933 5985.84,-132.8 C6003.28,-114.667 6012,-93.3333 6012,-68.8 C6012,-45.3333 6003.02,-25.0667 5985.05,-8 C5967.08,9.06667 5945.94,17.6 5921.62,17.6 C5898.38,17.6 5878.29,9.06667 5861.38,-8 C5844.46,-25.0667 5836,-45.3333 5836,-68.8 C5836,-93.3333 5844.72,-114.667 5862.16,-132.8 C5879.6,-150.933 5899.95,-160 5923.2,-160 M6590.07,-595 C6687.12,-523.767 6753.18,-463.958 6788.23,-415.575 C6823.28,-367.192 6840.8,-312.167 6840.8,-250.5 C6840.8,-167.6 6812.05,-101.392 6754.54,-51.875 C6697.03,-2.35833 6619.91,22.4 6523.18,22.4 C6431.81,22.4 6357.37,-2.36667 6299.86,-51.9 C6242.35,-101.433 6213.6,-165.5 6213.6,-244.1 C6213.6,-298.333 6226.85,-343.792 6253.34,-380.475 C6279.83,-417.158 6336.86,-467.933 6424.43,-532.8 C6338.96,-606.167 6284.05,-660.925 6259.71,-697.075 C6235.37,-733.225 6223.2,-777.35 6223.2,-829.45 C6223.2,-902.717 6252.22,-963.592 6310.26,-1012.08 C6368.3,-1060.56 6441.4,-1084.8 6529.55,-1084.8 C6609.33,-1084.8 6675.02,-1063.22 6726.61,-1020.06 C6778.2,-976.904 6804,-921.875 6804,-854.975 C6804,-800.742 6788.04,-754.488 6756.11,-716.213 C6724.19,-677.938 6668.84,-637.533 6590.07,-595 M6465.82,-500.9 C6419.11,-463.683 6386.19,-426.467 6367.07,-389.25 C6347.96,-352.033 6338.4,-307.908 6338.4,-256.875 C6338.4,-187.758 6356.98,-131.933 6394.15,-89.4 C6431.32,-46.8667 6480.17,-25.6 6540.7,-25.6 C6592.77,-25.6 6635,-41.8167 6667.4,-74.25 C6699.8,-106.683 6716,-148.95 6716,-201.05 C6716,-218.067 6714.14,-234.017 6710.43,-248.9 C6706.71,-263.783 6702.99,-276.808 6699.26,-287.975 C6695.54,-299.142 6688.1,-311.638 6676.94,-325.463 C6665.78,-339.288 6656.75,-350.188 6649.85,-358.163 C6642.95,-366.137 6630.47,-377.567 6612.4,-392.45 C6594.33,-407.333 6580.78,-417.963 6571.75,-424.338 C6562.72,-430.713 6545.72,-442.942 6520.77,-461.025 C6495.82,-479.108 6477.51,-492.4 6465.82,-500.9 M6543.88,-623.7 C6544.94,-624.767 6552.11,-629.817 6565.39,-638.85 C6578.66,-647.883 6588.22,-655.058 6594.06,-660.375 C6599.9,-665.692 6608.93,-673.933 6621.14,-685.1 C6633.35,-696.267 6642.63,-706.9 6649,-717 C6655.37,-727.1 6662.53,-739.329 6670.5,-753.688 C6678.47,-768.046 6684.31,-783.996 6688.02,-801.538 C6691.74,-819.079 6693.6,-837.425 6693.6,-856.575 C6693.6,-911.858 6677.68,-955.717 6645.82,-988.15 C6613.97,-1020.58 6570.97,-1036.8 6516.8,-1036.8 C6466.9,-1036.8 6425.76,-1021.91 6393.38,-992.138 C6360.99,-962.363 6344.8,-924.617 6344.8,-878.9 C6344.8,-834.233 6360.2,-792.229 6390.99,-752.888 C6421.78,-713.546 6472.74,-670.483 6543.88,-623.7 M7644.4,-1059.2 L7644.4,-1033.95 L7305.2,12.8 L7201.2,12.8 L7518,-942.4 L7170.8,-942.4 C7127.07,-942.4 7093.73,-934.388 7070.8,-918.363 C7047.87,-902.338 7019.33,-867.075 6985.2,-812.575 L6958,-825.4 L7052.4,-1059.2 L7644.4,-1059.2 M7793.2,-1081.6 C7820.93,-1064.53 7849.73,-1044 7879.6,-1020 C7909.47,-996 7943.33,-962.667 7981.2,-920 C8019.07,-877.333 8052.25,-831.733 8080.75,-783.2 C8109.25,-734.667 8133.25,-676.267 8152.75,-608 C8172.25,-539.733 8182,-468.8 8182,-395.2 C8182,-318.4 8172.25,-245.6 8152.75,-176.8 C8133.25,-108 8110.32,-50.9333 8083.95,-5.6 C8057.58,39.7333 8023.87,83.4667 7982.8,125.6 C7941.73,167.733 7907.87,198.933 7881.2,219.2 C7854.53,239.467 7823.6,260.8 7788.4,283.2 L7774,257.6 C7820.93,219.2 7858.8,184.533 7887.6,153.6 C7916.4,122.667 7944.13,82.4 7970.8,32.8 C7997.47,-16.8 8016.67,-76 8028.4,-144.8 C8040.13,-213.6 8046,-295.467 8046,-390.4 C8046,-489.6 8040.13,-574.933 8028.4,-646.4 C8016.67,-717.867 7997.47,-778.933 7970.8,-829.6 C7944.13,-880.267 7916.4,-921.6 7887.6,-953.6 C7858.8,-985.6 7820.93,-1019.73 7774,-1056 L7793.2,-1081.6 "/>
<path class="StaffText" transform="matrix(0.01,0,0,0.01,452.855,74.3099)" d="M1054.3,-131.2 C990.25,-28.8 903.617,22.4 794.4,22.4 C685.183,22.4 598.546,-29.8667 534.487,-134.4 C470.429,-238.933 438.4,-373.333 438.4,-537.6 C438.4,-692.267 470.967,-821.6 536.1,-925.6 C601.233,-1029.6 689.475,-1081.6 800.825,-1081.6 C903.708,-1081.6 987.692,-1030.4 1052.78,-928 C1117.86,-825.6 1150.4,-692.267 1150.4,-528 C1150.4,-365.867 1118.37,-233.6 1054.3,-131.2 M796,-1040 C655.733,-1040 585.6,-867.733 585.6,-523.2 C585.6,-187.2 655.2,-19.2 794.4,-19.2 C933.6,-19.2 1003.2,-187.733 1003.2,-524.8 C1003.2,-692.267 985.533,-820 950.2,-908 C914.867,-996 863.467,-1040 796,-1040 M1394.2,-160 C1418.52,-160 1439.4,-150.933 1456.84,-132.8 C1474.28,-114.667 1483,-93.3333 1483,-68.8 C1483,-45.3333 1474.02,-25.0667 1456.05,-8 C1438.08,9.06667 1416.94,17.6 1392.62,17.6 C1369.38,17.6 1349.29,9.06667 1332.38,-8 C1315.46,-25.0667 1307,-45.3333 1307,-68.8 C1307,-93.3333 1315.72,-114.667 1333.16,-132.8 C1350.6,-150.933 1370.95,-160 1394.2,-160 M2166.2,-314.45 C2166.2,-371.483 2153.67,-422.062 2128.6,-466.188 C2103.53,-510.312 2073.13,-544.483 2037.4,-568.7 C2001.67,-592.917 1961.67,-612.825 1917.4,-628.425 C1873.13,-644.025 1834.73,-654.246 1802.2,-659.088 C1769.67,-663.929 1741.13,-666.35 1716.6,-666.35 C1703.8,-666.35 1697.4,-670.658 1697.4,-679.275 C1697.4,-682.408 1697.93,-685.025 1699,-687.125 L1873.4,-1059.2 L2207.8,-1059.2 C2224.87,-1059.2 2238.47,-1061.87 2248.6,-1067.2 C2258.73,-1072.53 2269.67,-1083.73 2281.4,-1100.8 L2295.8,-1089.6 L2235,-955.7 C2230.73,-946.833 2218.47,-942.4 2198.2,-942.4 L1884.6,-942.4 L1817.4,-805.175 C1973.13,-777.208 2088.87,-731.746 2164.6,-668.788 C2240.33,-605.829 2278.2,-513.542 2278.2,-391.925 C2278.2,-328.258 2268.33,-271.613 2248.6,-221.988 C2228.87,-172.363 2203.8,-132.442 2173.4,-102.225 C2143,-72.0083 2107.8,-47.1917 2067.8,-27.775 C2027.8,-8.35833 1989.4,4.85833 1952.6,11.875 C1915.8,18.8917 1878.73,22.4 1841.4,22.4 C1781.67,22.4 1734.2,13.6 1699,-4 C1663.8,-21.6 1646.2,-45.8667 1646.2,-76.8 C1646.2,-116.267 1669.13,-136 1715,-136 C1744.87,-136 1783.53,-119.733 1831,-87.2 C1878.47,-54.6667 1916.07,-38.4 1943.8,-38.4 C2006.73,-38.4 2059.53,-65.0375 2102.2,-118.312 C2144.87,-171.588 2166.2,-236.967 2166.2,-314.45 M3113.4,-1059.2 L3113.4,-1033.95 L2774.2,12.8 L2670.2,12.8 L2987,-942.4 L2639.8,-942.4 C2596.07,-942.4 2562.73,-934.388 2539.8,-918.363 C2516.87,-902.338 2488.33,-867.075 2454.2,-812.575 L2427,-825.4 L2521.4,-1059.2 L3113.4,-1059.2 "/>
<path class="StaffText" transform="matrix(0.01,0,0,0.01,452.855,93.3099)" d="M465.6,283.2 C437.867,266.133 409.067,245.6 379.2,221.6 C349.333,197.6 315.467,164.267 277.6,121.6 C239.733,78.9333 206.55,33.3333 178.05,-15.2 C149.55,-63.7333 125.55,-122.133 106.05,-190.4 C86.55,-258.667 76.8,-329.6 76.8,-403.2 C76.8,-480 86.55,-552.8 106.05,-621.6 C125.55,-690.4 148.483,-747.467 174.85,-792.8 C201.217,-838.133 234.933,-881.867 276,-924 C317.067,-966.133 350.933,-997.333 377.6,-1017.6 C404.267,-1037.87 435.2,-1059.2 470.4,-1081.6 L484.8,-1056 C437.867,-1017.6 400,-982.933 371.2,-952 C342.4,-921.067 314.667,-880.8 288,-831.2 C261.333,-781.6 242.133,-722.4 230.4,-653.6 C218.667,-584.8 212.8,-502.933 212.8,-408 C212.8,-308.8 218.667,-223.467 230.4,-152 C242.133,-80.5333 261.333,-19.4667 288,31.2 C314.667,81.8667 342.4,123.2 371.2,155.2 C400,187.2 437.867,221.333 484.8,257.6 L465.6,283.2 M1187.3,-131.2 C1123.25,-28.8 1036.62,22.4 927.4,22.4 C818.183,22.4 731.546,-29.8667 667.487,-134.4 C603.429,-238.933 571.4,-373.333 571.4,-537.6 C571.4,-692.267 603.967,-821.6 669.1,-925.6 C734.233,-1029.6 822.475,-1081.6 933.825,-1081.6 C1036.71,-1081.6 1120.69,-1030.4 1185.78,-928 C1250.86,-825.6 1283.4,-692.267 1283.4,-528 C1283.4,-365.867 1251.37,-233.6 1187.3,-131.2 M929,-1040 C788.733,-1040 718.6,-867.733 718.6,-523.2 C718.6,-187.2 788.2,-19.2 927.4,-19.2 C1066.6,-19.2 1136.2,-187.733 1136.2,-524.8 C1136.2,-692.267 1118.53,-820 1083.2,-908 C1047.87,-996 996.467,-1040 929,-1040 M1527.2,-160 C1551.52,-160 1572.4,-150.933 1589.84,-132.8 C1607.28,-114.667 1616,-93.3333 1616,-68.8 C1616,-45.3333 1607.02,-25.0667 1589.05,-8 C1571.08,9.06667 1549.94,17.6 1525.62,17.6 C1502.38,17.6 1482.29,9.06667 1465.38,-8 C1448.46,-25.0667 1440,-45.3333 1440,-68.8 C1440,-93.3333 1448.72,-114.667 1466.16,-132.8 C1483.6,-150.933 1503.95,-160 1527.2,-160 M2140.03,22.4 C2032.53,22.4 1946.05,-20.6167 1880.59,-106.65 C1815.13,-192.683 1782.4,-306.233 1782.4,-447.3 C1782.4,-490.967 1786.68,-535.971 1795.25,-582.312 C1803.82,-628.654 1822.55,-681.383 1851.45,-740.5 C1880.35,-799.617 1917.82,-852.608 1963.86,-899.475 C2009.9,-946.342 2074.41,-988.15 2157.38,-1024.9 C2240.34,-1061.65 2335.89,-1084.82 2444.03,-1094.4 L2447.3,-1068.8 C2320.38,-1048.53 2214.44,-997.592 2129.47,-915.975 C2044.51,-834.358 1991.27,-733.275 1969.75,-612.725 C2020.08,-641.292 2058.1,-659.913 2083.8,-668.588 C2109.5,-677.263 2140.03,-681.6 2175.38,-681.6 C2268.28,-681.6 2342.27,-651.883 2397.36,-592.45 C2452.45,-533.017 2480,-452.808 2480,-351.825 C2480,-241.542 2448.43,-151.6 2385.29,-82 C2322.15,-12.4 2240.39,22.4 2140.03,22.4 M2114.32,-611.2 C2041.51,-611.2 1992.52,-595.288 1967.35,-563.462 C1942.18,-531.637 1929.6,-484.425 1929.6,-421.825 C1929.6,-298.775 1949.95,-201.975 1990.64,-131.425 C2031.33,-60.875 2087.02,-25.6 2157.7,-25.6 C2214.47,-25.6 2257.84,-49.2042 2287.82,-96.4125 C2317.81,-143.621 2332.8,-210.725 2332.8,-297.725 C2332.8,-397.442 2313.79,-474.617 2275.78,-529.25 C2237.76,-583.883 2183.94,-611.2 2114.32,-611.2 M2940.03,22.4 C2832.53,22.4 2746.05,-20.6167 2680.59,-106.65 C2615.13,-192.683 2582.4,-306.233 2582.4,-447.3 C2582.4,-490.967 2586.68,-535.971 2595.25,-582.312 C2603.82,-628.654 2622.55,-681.383 2651.45,-740.5 C2680.35,-799.617 2717.82,-852.608 2763.86,-899.475 C2809.9,-946.342 2874.41,-988.15 2957.38,-1024.9 C3040.34,-1061.65 3135.89,-1084.82 3244.03,-1094.4 L3247.3,-1068.8 C3120.38,-1048.53 3014.44,-997.592 2929.47,-915.975 C2844.51,-834.358 2791.27,-733.275 2769.75,-612.725 C2820.08,-641.292 2858.1,-659.913 2883.8,-668.588 C2909.5,-677.263 2940.03,-681.6 2975.38,-681.6 C3068.28,-681.6 3142.27,-651.883 3197.36,-592.45 C3252.45,-533.017 3280,-452.808 3280,-351.825 C3280,-241.542 3248.43,-151.6 3185.29,-82 C3122.15,-12.4 3040.39,22.4 2940.03,22.4 M2914.32,-611.2 C2841.51,-611.2 2792.52,-595.288 2767.35,-563.462 C2742.18,-531.637 2729.6,-484.425 2729.6,-421.825 C2729.6,-298.775 2749.95,-201.975 2790.64,-131.425 C2831.33,-60.875 2887.02,-25.6 2957.7,-25.6 C3014.47,-25.6 3057.84,-49.2042 3087.82,-96.4125 C3117.81,-143.621 3132.8,-210.725 3132.8,-297.725 C3132.8,-397.442 3113.79,-474.617 3075.78,-529.25 C3037.76,-583.883 2983.94,-611.2 2914.32,-611.2 M4070.4,-484.475 C4070.4,-495.142 4077.87,-523.675 4092.8,-570.075 C4107.73,-616.475 4115.2,-670.075 4115.2,-730.875 C4073.6,-705.142 4039.47,-677.258 4012.8,-647.225 C3986.13,-617.192 3966.13,-595.413 3952.8,-581.888 C3939.47,-568.363 3921.07,-561.6 3897.6,-561.6 C3859.2,-561.6 3840,-580.533 3840,-618.4 C3840,-636.733 3846.92,-650.488 3860.76,-659.663 C3874.6,-668.838 3891.64,-675.313 3911.88,-679.088 C3932.11,-682.863 3960.6,-691.379 3997.34,-704.638 C4034.08,-717.896 4069.49,-734.592 4103.57,-754.725 C4062.04,-775.942 4017.05,-792.379 3968.59,-804.038 C3920.13,-815.696 3886.58,-826.3 3867.95,-835.85 C3849.32,-845.4 3840,-862.9 3840,-888.35 C3840,-904.25 3845.33,-917.767 3856,-928.9 C3866.67,-940.033 3879.47,-945.6 3894.4,-945.6 C3911.47,-945.6 3926.67,-940.829 3940,-931.288 C3953.33,-921.746 3964.8,-910.083 3974.4,-896.3 C3984,-882.517 4001.33,-864.492 4026.4,-842.225 C4051.47,-819.958 4081.07,-798.75 4115.2,-778.6 C4115.2,-839.4 4108.27,-893.267 4094.4,-940.2 C4080.53,-987.133 4073.6,-1015.93 4073.6,-1026.6 C4073.6,-1042.6 4079.15,-1055.93 4090.25,-1066.6 C4101.35,-1077.27 4115.12,-1082.6 4131.56,-1082.6 C4148,-1082.6 4162.45,-1077 4174.91,-1065.8 C4187.37,-1054.6 4193.6,-1040.47 4193.6,-1023.4 C4193.6,-1009.53 4185.6,-980.467 4169.6,-936.2 C4153.6,-891.933 4145.6,-838.342 4145.6,-775.425 C4183.85,-798.758 4217.11,-825.533 4245.38,-855.75 C4273.64,-885.967 4295.51,-909.029 4310.98,-924.938 C4326.44,-940.846 4343.78,-948.8 4362.98,-948.8 C4380.04,-948.8 4393.91,-942.967 4404.57,-931.3 C4415.24,-919.633 4420.57,-904.792 4420.57,-886.775 C4420.57,-864.508 4409.91,-848.6 4388.57,-839.05 C4367.24,-829.5 4333.11,-818.1 4286.18,-804.85 C4239.24,-791.6 4197.11,-774.367 4159.77,-753.15 C4191.77,-733 4225.91,-716.829 4262.18,-704.638 C4298.44,-692.446 4326.97,-684.758 4347.77,-681.575 C4368.57,-678.392 4386.18,-671.933 4400.57,-662.2 C4414.97,-652.467 4422.18,-638.408 4422.18,-620.025 C4422.18,-601.642 4417.11,-587.042 4406.98,-576.225 C4396.84,-565.408 4383.24,-560 4366.18,-560 C4343.78,-560 4325.11,-566.742 4310.18,-580.225 C4295.24,-593.708 4273.64,-615.825 4245.38,-646.575 C4217.11,-677.325 4183.85,-705.425 4145.6,-730.875 C4145.6,-670.075 4153.87,-615.942 4170.4,-568.475 C4186.93,-521.008 4195.2,-494.608 4195.2,-489.275 C4195.2,-472.208 4188.6,-457.275 4175.39,-444.475 C4162.18,-431.675 4146.38,-425.275 4128,-425.275 C4112.63,-425.275 4099.19,-431.142 4087.68,-442.875 C4076.16,-454.608 4070.4,-468.475 4070.4,-484.475 M5583.3,-131.2 C5519.25,-28.8 5432.62,22.4 5323.4,22.4 C5214.18,22.4 5127.55,-29.8667 5063.49,-134.4 C4999.43,-238.933 4967.4,-373.333 4967.4,-537.6 C4967.4,-692.267 4999.97,-821.6 5065.1,-925.6 C5130.23,-1029.6 5218.47,-1081.6 5329.82,-1081.6 C5432.71,-1081.6 5516.69,-1030.4 5581.77,-928 C5646.86,-825.6 5679.4,-692.267 5679.4,-528 C5679.4,-365.867 5647.37,-233.6 5583.3,-131.2 M5325,-1040 C5184.73,-1040 5114.6,-867.733 5114.6,-523.2 C5114.6,-187.2 5184.2,-19.2 5323.4,-19.2 C5462.6,-19.2 5532.2,-187.733 5532.2,-524.8 C5532.2,-692.267 5514.53,-820 5479.2,-908 C5443.87,-996 5392.47,-1040 5325,-1040 M5923.2,-160 C5947.52,-160 5968.4,-150.933 5985.84,-132.8 C6003.28,-114.667 6012,-93.3333 6012,-68.8 C6012,-45.3333 6003.02,-25.0667 5985.05,-8 C5967.08,9.06667 5945.94,17.6 5921.62,17.6 C5898.38,17.6 5878.29,9.06667 5861.38,-8 C5844.46,-25.0667 5836,-45.3333 5836,-68.8 C5836,-93.3333 5844.72,-114.667 5862.16,-132.8 C5879.6,-150.933 5899.95,-160 5923.2,-160 M6590.07,-595 C6687.12,-523.767 6753.18,-463.958 6788.23,-415.575 C6823.28,-367.192 6840.8,-312.167 6840.8,-250.5 C6840.8,-167.6 6812.05,-101.392 6754.54,-51.875 C6697.03,-2.35833 6619.91,22.4 6523.18,22.4 C6431.81,22.4 6357.37,-2.36667 6299.86,-51.9 C6242.35,-101.433 6213.6,-165.5 6213.6,-244.1 C6213.6,-298.333 6226.85,-343.792 6253.34,-380.475 C6279.83,-417.158 6336.86,-467.933 6424.43,-532.8 C6338.96,-606.167 6284.05,-660.925 6259.71,-697.075 C6235.37,-733.225 6223.2,-777.35 6223.2,-829.45 C6223.2,-902.717 6252.22,-963.592 6310.26,-1012.08 C6368.3,-1060.56 6441.4,-1084.8 6529.55,-1084.8 C6609.33,-1084.8 6675.02,-1063.22 6726.61,-1020.06 C6778.2,-976.904 6804,-921.875 6804,-854.975 C6804,-800.742 6788.04,-754.488 6756.11,-716.213 C6724.19,-677.938 6668.84,-637.533 6590.07,-595 M6465.82,-500.9 C6419.11,-463.683 6386.19,-426.467 6367.07,-389.25 C6347.96,-352.033 6338.4,-307.908 6338.4,-256.875 C6338.4,-187.758 6356.98,-131.933 6394.15,-89.4 C6431.32,-46.8667 6480.17,-25.6 6540.7,-25.6 C6592.77,-25.6 6635,-41.8167 6667.4,-74.25 C6699.8,-106.683 6716,-148.95 6716,-201.05 C6716,-218.067 6714.14,-234.017 6710.43,-248.9 C6706.71,-263.783 6702.99,-276.808 6699.26,-287.975 C6695.54,-299.142 6688.1,-311.638 6676.94,-325.463 C6665.78,-339.288 6656.75,-350.188 6649.85,-358.163 C6642.95,-366.137 6630.47,-377.567 6612.4,-392.45 C6594.33,-407.333 6580.78,-417.963 6571.75,-424.338 C6562.72,-430.713 6545.72,-442.942 6520.77,-461.025 C6495.82,-479.108 6477.51,-492.4 6465.82,-500.9 M6543.88,-623.7 C6544.94,-624.767 6552.11,-629.817 6565.39,-638.85 C6578.66,-647.883 6588.22,-655.058 6594.06,-660.375 C6599.9,-665.692 6608.93,-673.933 6621.14,-685.1 C6633.35,-696.267 6642.63,-706.9 6649,-717 C6655.37,-727.1 6662.53,-739.329 6670.5,-753.688 C6678.47,-768.046 6684.31,-783.996 6688.02,-801.538 C6691.74,-819.079 6693.6,-837.425 6693.6,-856.575 C6693.6,-911.858 6677.68,-955.717 6645.82,-988.15 C6613.97,-1020.58 6570.97,-1036.8 6516.8,-1036.8 C6466.9,-1036.8 6425.76,-1021.91 6393.38,-992.138 C6360.99,-962.363 6344.8,-924.617 6344.8,-878.9 C6344.8,-834.233 6360.2,-792.229 6390.99,-752.888 C6421.78,-713.546 6472.74,-670.483 6543.88,-623.7 M7644.4,-1059.2 L7644.4,-1033.95 L7305.2,12.8 L7201.2,12.8 L7518,-942.4 L7170.8,-942.4 C7127.07,-942.4 7093.73,-934.388 7070.8,-918.363 C7047.87,-902.338 7019.33,-867.075 6985.2,-812.575 L6958,-825.4 L7052.4,-1059.2 L7644.4,-1059.2 M7793.2,-1081.6 C7820.93,-1064.53 7849.73,-1044 7879.6,-1020 C7909.47,-996 7943.33,-962.667 7981.2,-920 C8019.07,-877.333 8052.25,-831.733 8080.75,-783.2 C8109.25,-734.667 8133.25,-676.267 8152.75,-608 C8172.25,-539.733 8182,-468.8 8182,-395.2 C8182,-318.4 8172.25,-245.6 8152.75,-176.8 C8133.25,-108 8110.32,-50.9333 8083.95,-5.6 C8057.58,39.7333 8023.87,83.4667 7982.8,125.6 C7941.73,167.733 7907.87,198.933 7881.2,219.2 C7854.53,239.467 7823.6,260.8 7788.4,283.2 L7774,257.6 C7820.93,219.2 7858.8,184.533 7887.6,153.6 C7916.4,122.667 7944.13,82.4 7970.8,32.8 C7997.47,-16.8 8016.67,-76 8028.4,-144.8 C8040.13,-213.6 8046,-295.467 8046,-390.4 C8046,-489.6 8040.13,-574.933 8028.4,-646.4 C8016.67,-717.867 7997.47,-778.933 7970.8,-829.6 C7944.13,-880.267 7916.4,-921.6 7887.6,-953.6 C7858.8,-985.6 7820.93,-1019.73 7774,-1056 L7793.2,-1081.6 "/>
<path class="StaffText" transform="matrix(0.01,0,0,0.01,357.897,74.98)" d="M1054.3,-131.2 C990.25,-28.8 903.617,22.4 794.4,22.4 C685.183,22.4 598.546,-29.8667 534.487,-134.4 C470.429,-238.933 438.4,-373.333 438.4,-537.6 C438.4,-692.267 470.967,-821.6 536.1,-925.6 C601.233,-1029.6 689.475,-1081.6 800.825,-1081.6 C903.708,-1081.6 987.692,-1030.4 1052.78,-928 C1117.86,-825.6 1150.4,-692.267 1150.4,-528 C1150.4,-365.867 1118.37,-233.6 1054.3,-131.2 M796,-1040 C655.733,-1040 585.6,-867.733 585.6,-523.2 C585.6,-187.2 655.2,-19.2 794.4,-19.2 C933.6,-19.2 1003.2,-187.733 1003.2,-524.8 C1003.2,-692.267 985.533,-820 950.2,-908 C914.867,-996 863.467,-1040 796,-1040 M1394.2,-160 C1418.52,-160 1439.4,-150.933 1456.84,-132.8 C1474.28,-114.667 1483,-93.3333 1483,-68.8 C1483,-45.3333 1474.02,-25.0667 1456.05,-8 C1438.08,9.06667 1416.94,17.6 1392.62,17.6 C1369.38,17.6 1349.29,9.06667 1332.38,-8 C1315.46,-25.0667 1307,-45.3333 1307,-68.8 C1307,-93.3333 1315.72,-114.667 1333.16,-132.8 C1350.6,-150.933 1370.95,-160 1394.2,-160 M2007.03,22.4 C1899.53,22.4 1813.05,-20.6167 1747.59,-106.65 C1682.13,-192.683 1649.4,-306.233 1649.4,-447.3 C1649.4,-490.967 1653.68,-535.971 1662.25,-582.312 C1670.82,-628.654 1689.55,-681.383 1718.45,-740.5 C1747.35,-799.617 1784.82,-852.608 1830.86,-899.475 C1876.9,-946.342 1941.41,-988.15 2024.38,-1024.9 C2107.34,-1061.65 2202.89,-1084.82 2311.03,-1094.4 L2314.3,-1068.8 C2187.38,-1048.53 2081.44,-997.592 1996.47,-915.975 C1911.51,-834.358 1858.27,-733.275 1836.75,-612.725 C1887.08,-641.292 1925.1,-659.913 1950.8,-668.588 C1976.5,-677.263 2007.02,-681.6 2042.38,-681.6 C2135.28,-681.6 2209.27,-651.883 2264.36,-592.45 C2319.45,-533.017 2347,-452.808 2347,-351.825 C2347,-241.542 2315.43,-151.6 2252.29,-82 C2189.15,-12.4 2107.39,22.4 2007.03,22.4 M1981.33,-611.2 C1908.51,-611.2 1859.52,-595.288 1834.35,-563.462 C1809.18,-531.637 1796.6,-484.425 1796.6,-421.825 C1796.6,-298.775 1816.95,-201.975 1857.64,-131.425 C1898.33,-60.875 1954.02,-25.6 2024.7,-25.6 C2081.47,-25.6 2124.84,-49.2042 2154.82,-96.4125 C2184.81,-143.621 2199.8,-210.725 2199.8,-297.725 C2199.8,-397.442 2180.79,-474.617 2142.78,-529.25 C2104.76,-583.883 2050.94,-611.2 1981.33,-611.2 M2807.03,22.4 C2699.53,22.4 2613.05,-20.6167 2547.59,-106.65 C2482.13,-192.683 2449.4,-306.233 2449.4,-447.3 C2449.4,-490.967 2453.68,-535.971 2462.25,-582.312 C2470.82,-628.654 2489.55,-681.383 2518.45,-740.5 C2547.35,-799.617 2584.82,-852.608 2630.86,-899.475 C2676.9,-946.342 2741.41,-988.15 2824.38,-1024.9 C2907.34,-1061.65 3002.89,-1084.82 3111.03,-1094.4 L3114.3,-1068.8 C2987.38,-1048.53 2881.44,-997.592 2796.47,-915.975 C2711.51,-834.358 2658.27,-733.275 2636.75,-612.725 C2687.08,-641.292 2725.1,-659.913 2750.8,-668.588 C2776.5,-677.263 2807.03,-681.6 2842.38,-681.6 C2935.28,-681.6 3009.27,-651.883 3064.36,-592.45 C3119.45,-533.017 3147,-452.808 3147,-351.825 C3147,-241.542 3115.43,-151.6 3052.29,-82 C2989.15,-12.4 2907.39,22.4 2807.03,22.4 M2781.32,-611.2 C2708.51,-611.2 2659.52,-595.288 2634.35,-563.462 C2609.18,-531.637 2596.6,-484.425 2596.6,-421.825 C2596.6,-298.775 2616.95,-201.975 2657.64,-131.425 C2698.33,-60.875 2754.02,-25.6 2824.7,-25.6 C2881.47,-25.6 2924.84,-49.2042 2954.82,-96.4125 C2984.81,-143.621 2999.8,-210.725 2999.8,-297.725 C2999.8,-397.442 2980.79,-474.617 2942.78,-529.25 C2904.76,-583.883 2850.94,-611.2 2781.32,-611.2"/>
<path class="StaffText" transform="matrix(0.01,0,0,0.01,357.897,93.98)" d="M465.6,283.2 C437.867,266.133 409.067,245.6 379.2,221.6 C349.333,197.6 315.467,164.267 277.6,121.6 C239.733,78.9333 206.55,33.3333 178.05,-15.2 C149.55,-63.7333 125.55,-122.133 106.05,-190.4 C86.55,-258.667 76.8,-329.6 76.8,-403.2 C76.8,-480 86.55,-552.8 106.05,-621.6 C125.55,-690.4 148.483,-747.467 174.85,-792.8 C201.217,-838.133 234.933,-881.867 276,-924 C317.067,-966.133 350.933,-997.333 377.6,-1017.6 C404.267,-1037.87 435.2,-1059.2 470.4,-1081.6 L484.8,-1056 C437.867,-1017.6 400,-982.933 371.2,-952 C342.4,-921.067 314.667,-880.8 288,-831.2 C261.333,-781.6 242.133,-722.4 230.4,-653.6 C218.667,-584.8 212.8,-502.933 212.8,-408 C212.8,-308.8 218.667,-223.467 230.4,-152 C242.133,-80.5333 261.333,-19.4667 288,31.2 C314.667,81.8667 342.4,123.2 371.2,155.2 C400,187.2 437.867,221.333 484.8,257.6 L465.6,283.2 M1187.3,-131.2 C1123.25,-28.8 1036.62,22.4 927.4,22.4 C818.183,22.4 731.546,-29.8667 667.487,-134.4 C603.429,-238.933 571.4,-373.333 571.4,-537.6 C571.4,-692.267 603.967,-821.6 669.1,-925.6 C734.233,-1029.6 822.475,-1081.6 933.825,-1081.6 C1036.71,-1081.6 1120.69,-1030.4 1185.78,-928 C1250.86,-825.6 1283.4,-692.267 1283.4,-528 C1283.4,-365.867 1251.37,-233.6 1187.3,-131.2 M929,-1040 C788.733,-1040 718.6,-867.733 718.6,-523.2 C718.6,-187.2 788.2,-19.2 927.4,-19.2 C1066.6,-19.2 1136.2,-187.733 1136.2,-524.8 C1136.2,-692.267 1118.53,-820 1083.2,-908 C1047.87,-996 996.467,-1040 929,-1040 M1527.2,-160 C1551.52,-160 1572.4,-150.933 1589.84,-132.8 C1607.28,-114.667 1616,-93.3333 1616,-68.8 C1616,-45.3333 1607.02,-25.0667 1589.05,-8 C1571.08,9.06667 1549.94,17.6 1525.62,17.6 C1502.38,17.6 1482.29,9.06667 1465.38,-8 C1448.46,-25.0667 1440,-45.3333 1440,-68.8 C1440,-93.3333 1448.72,-114.667 1466.16,-132.8 C1483.6,-150.933 1503.95,-160 1527.2,-160 M2446.4,-1059.2 L2446.4,-1033.95 L2107.2,12.8 L2003.2,12.8 L2320,-942.4 L1972.8,-942.4 C1929.07,-942.4 1895.73,-934.388 1872.8,-918.363 C1849.87,-902.338 1821.33,-867.075 1787.2,-812.575 L1760,-825.4 L1854.4,-1059.2 L2446.4,-1059.2 M2940.03,22.4 C2832.53,22.4 2746.05,-20.6167 2680.59,-106.65 C2615.13,-192.683 2582.4,-306.233 2582.4,-447.3 C2582.4,-490.967 2586.68,-535.971 2595.25,-582.312 C2603.82,-628.654 2622.55,-681.383 2651.45,-740.5 C2680.35,-799.617 2717.82,-852.608 2763.86,-899.475 C2809.9,-946.342 2874.41,-988.15 2957.38,-1024.9 C3040.34,-1061.65 3135.89,-1084.82 3244.03,-1094.4 L3247.3,-1068.8 C3120.38,-1048.53 3014.44,-997.592 2929.47,-915.975 C2844.51,-834.358 2791.27,-733.275 2769.75,-612.725 C2820.08,-641.292 2858.1,-659.913 2883.8,-668.588 C2909.5,-677.263 2940.03,-681.6 2975.38,-681.6 C3068.28,-681.6 3142.27,-651.883 3197.36,-592.45 C3252.45,-533.017 3280,-452.808 3280,-351.825 C3280,-241.542 3248.43,-151.6 3185.29,-82 C3122.15,-12.4 3040.39,22.4 2940.03,22.4 M2914.32,-611.2 C2841.51,-611.2 2792.52,-595.288 2767.35,-563.462 C2742.18,-531.637 2729.6,-484.425 2729.6,-421.825 C2729.6,-298.775 2749.95,-201.975 2790.64,-131.425 C2831.33,-60.875 2887.02,-25.6 2957.7,-25.6 C3014.47,-25.6 3057.84,-49.2042 3087.82,-96.4125 C3117.81,-143.621 3132.8,-210.725 3132.8,-297.725 C3132.8,-397.442 3113.79,-474.617 3075.78,-529.25 C3037.76,-583.883 2983.94,-611.2 2914.32,-611.2 M4070.4,-484.475 C4070.4,-495.142 4077.87,-523.675 4092.8,-570.075 C4107.73,-616.475 4115.2,-670.075 4115.2,-730.875 C4073.6,-705.142 4039.47,-677.258 4012.8,-647.225 C3986.13,-617.192 3966.13,-595.413 3952.8,-581.888 C3939.47,-568.363 3921.07,-561.6 3897.6,-561.6 C3859.2,-561.6 3840,-580.533 3840,-618.4 C3840,-636.733 3846.92,-650.488 3860.76,-659.663 C3874.6,-668.838 3891.64,-675.313 3911.88,-679.088 C3932.11,-682.863 3960.6,-691.379 3997.34,-704.638 C4034.08,-717.896 4069.49,-734.592 4103.57,-754.725 C4062.04,-775.942 4017.05,-792.379 3968.59,-804.038 C3920.13,-815.696 3886.58,-826.3 3867.95,-835.85 C3849.32,-845.4 3840,-862.9 3840,-888.35 C3840,-904.25 3845.33,-917.767 3856,-928.9 C3866.67,-940.033 3879.47,-945.6 3894.4,-945.6 C3911.47,-945.6 3926.67,-940.829 3940,-931.288 C3953.33,-921.746 3964.8,-910.083 3974.4,-896.3 C3984,-882.517 4001.33,-864.492 4026.4,-842.225 C4051.47,-819.958 4081.07,-798.75 4115.2,-778.6 C4115.2,-839.4 4108.27,-893.267 4094.4,-940.2 C4080.53,-987.133 4073.6,-1015.93 4073.6,-1026.6 C4073.6,-1042.6 4079.15,-1055.93 4090.25,-1066.6 C4101.35,-1077.27 4115.12,-1082.6 4131.56,-1082.6 C4148,-1082.6 4162.45,-1077 4174.91,-1065.8 C4187.37,-1054.6 4193.6,-1040.47 4193.6,-1023.4 C4193.6,-1009.53 4185.6,-980.467 4169.6,-936.2 C4153.6,-891.933 4145.6,-838.342 4145.6,-775.425 C4183.85,-798.758 4217.11,-825.533 4245.38,-855.75 C4273.64,-885.967 4295.51,-909.029 4310.98,-924.938 C4326.44,-940.846 4343.78,-948.8 4362.98,-948.8 C4380.04,-948.8 4393.91,-942.967 4404.57,-931.3 C4415.24,-919.633 4420.57,-904.792 4420.57,-886.775 C4420.57,-864.508 4409.91,-848.6 4388.57,-839.05 C4367.24,-829.5 4333.11,-818.1 4286.18,-804.85 C4239.24,-791.6 4197.11,-774.367 4159.77,-753.15 C4191.77,-733 4225.91,-716.829 4262.18,-704.638 C4298.44,-692.446 4326.97,-684.758 4347.77,-681.575 C4368.57,-678.392 4386.18,-671.933 4400.57,-662.2 C4414.97,-652.467 4422.18,-638.408 4422.18,-620.025 C4422.18,-601.642 4417.11,-587.042 4406.98,-576.225 C4396.84,-565.408 4383.24,-560 4366.18,-560 C4343.78,-560 4325.11,-566.742 4310.18,-580.225 C4295.24,-593.708 4273.64,-615.825 4245.38,-646.575 C4217.11,-677.325 4183.85,-705.425 4145.6,-730.875 C4145.6,-670.075 4153.87,-615.942 4170.4,-568.475 C4186.93,-521.008 4195.2,-494.608 4195.2,-489.275 C4195.2,-472.208 4188.6,-457.275 4175.39,-444.475 C4162.18,-431.675 4146.38,-425.275 4128,-425.275 C4112.63,-425.275 4099.19,-431.142 4087.68,-442.875 C4076.16,-454.608 4070.4,-468.475 4070.4,-484.475 M5583.3,-131.2 C5519.25,-28.8 5432.62,22.4 5323.4,22.4 C5214.18,22.4 5127.55,-29.8667 5063.49,-134.4 C4999.43,-238.933 4967.4,-373.333 4967.4,-537.6 C4967.4,-692.267 4999.97,-821.6 5065.1,-925.6 C5130.23,-1029.6 5218.47,-1081.6 5329.82,-1081.6 C5432.71,-1081.6 5516.69,-1030.4 5581.77,-928 C5646.86,-825.6 5679.4,-692.267 5679.4,-528 C5679.4,-365.867 5647.37,-233.6 5583.3,-131.2 M5325,-1040 C5184.73,-1040 5114.6,-867.733 5114.6,-523.2 C5114.6,-187.2 5184.2,-19.2 5323.4,-19.2 C5462.6,-19.2 5532.2,-187.733 5532.2,-524.8 C5532.2,-692.267 5514.53,-820 5479.2,-908 C5443.87,-996 5392.47,-1040 5325,-1040 M5923.2,-160 C5947.52,-160 5968.4,-150.933 5985.84,-132.8 C6003.28,-114.667 6012,-93.3333 6012,-68.8 C6012,-45.3333 6003.02,-25.0667 5985.05,-8 C5967.08,9.06667 5945.94,17.6 5921.62,17.6 C5898.38,17.6 5878.29,9.06667 5861.38,-8 C5844.46,-25.0667 5836,-45.3333 5836,-68.8 C5836,-93.3333 5844.72,-114.667 5862.16,-132.8 C5879.6,-150.933 5899.95,-160 5923.2,-160 M6590.07,-595 C6687.12,-523.767 6753.18,-463.958 6788.23,-415.575 C6823.28,-367.192 6840.8,-312.167 6840.8,-250.5 C6840.8,-167.6 6812.05,-101.392 6754.54,-51.875 C6697.03,-2.35833 6619.91,22.4 6523.18,22.4 C6431.81,22.4 6357.37,-2.36667 6299.86,-51.9 C6242.35,-101.433 6213.6,-165.5 6213.6,-244.1 C6213.6,-298.333 6226.85,-343.792 6253.34,-380.475 C6279.83,-417.158 6336.86,-467.933 6424.43,-532.8 C6338.96,-606.167 6284.05,-660.925 6259.71,-697.075 C6235.37,-733.225 6223.2,-777.35 6223.2,-829.45 C6223.2,-902.717 6252.22,-963.592 6310.26,-1012.08 C6368.3,-1060.56 6441.4,-1084.8 6529.55,-1084.8 C6609.33,-1084.8 6675.02,-1063.22 6726.61,-1020.06 C6778.2,-976.904 6804,-921.875 6804,-854.975 C6804,-800.742 6788.04,-754.488 6756.11,-716.213 C6724.19,-677.938 6668.84,-637.533 6590.07,-595 M6465.82,-500.9 C6419.11,-463.683 6386.19,-426.467 6367.07,-389.25 C6347.96,-352.033 6338.4,-307.908 6338.4,-256.875 C6338.4,-187.758 6356.98,-131.933 6394.15,-89.4 C6431.32,-46.8667 6480.17,-25.6 6540.7,-25.6 C6592.77,-25.6 6635,-41.8167 6667.4,-74.25 C6699.8,-106.683 6716,-148.95 6716,-201.05 C6716,-218.067 6714.14,-234.017 6710.43,-248.9 C6706.71,-263.783 6702.99,-276.808 6699.26,-287.975 C6695.54,-299.142 6688.1,-311.638 6676.94,-325.463 C6665.78,-339.288 6656.75,-350.188 6649.85,-358.163 C6642.95,-366.137 6630.47,-377.567 6612.4,-392.45 C6594.33,-407.333 6580.78,-417.963 6571.75,-424.338 C6562.72,-430.713 6545.72,-442.942 6520.77,-461.025 C6495.82,-479.108 6477.51,-492.4 6465.82,-500.9 M6543.88,-623.7 C6544.94,-624.767 6552.11,-629.817 6565.39,-638.85 C6578.66,-647.883 6588.22,-655.058 6594.06,-660.375 C6599.9,-665.692 6608.93,-673.933 6621.14,-685.1 C6633.35,-696.267 6642.63,-706.9 6649,-717 C6655.37,-727.1 6662.53,-739.329 6670.5,-753.688 C6678.47,-768.046 6684.31,-783.996 6688.02,-801.538 C6691.74,-819.079 6693.6,-837.425 6693.6,-856.575 C6693.6,-911.858 6677.68,-955.717 6645.82,-988.15 C6613.97,-1020.58 6570.97,-1036.8 6516.8,-1036.8 C6466.9,-1036.8 6425.76,-1021.91 6393.38,-992.138 C6360.99,-962.363 6344.8,-924.617 6344.8,-878.9 C6344.8,-834.233 6360.2,-792.229 6390.99,-752.888 C6421.78,-713.546 6472.74,-670.483 6543.88,-623.7 M7644.4,-1059.2 L7644.4,-1033.95 L7305.2,12.8 L7201.2,12.8 L7518,-942.4 L7170.8,-942.4 C7127.07,-942.4 7093.73,-934.388 7070.8,-918.363 C7047.87,-902.338 7019.33,-867.075 6985.2,-812.575 L6958,-825.4 L7052.4,-1059.2 L7644.4,-1059.2 M7793.2,-1081.6 C7820.93,-1064.53 7849.73,-1044 7879.6,-1020 C7909.47,-996 7943.33,-962.667 7981.2,-920 C8019.07,-877.333 8052.25,-831.733 8080.75,-783.2 C8109.25,-734.667 8133.25,-676.267 8152.75,-608 C8172.25,-539.733 8182,-468.8 8182,-395.2 C8182,-318.4 8172.25,-245.6 8152.75,-176.8 C8133.25,-108 8110.32,-50.9333 8083.95,-5.6 C8057.58,39.7333 8023.87,83.4667 7982.8,125.6 C7941.73,167.733 7907.87,198.933 7881.2,219.2 C7854.53,239.467 7823.6,260.8 7788.4,283.2 L7774,257.6 C7820.93,219.2 7858.8,184.533 7887.6,153.6 C7916.4,122.667 7944.13,82.4 7970.8,32.8 C7997.47,-16.8 8016.67,-76 8028.4,-144.8 C8040.13,-213.6 8046,-295.467 8046,-390.4 C8046,-489.6 8040.13,-574.933 8028.4,-646.4 C8016.67,-717.867 7997.47,-778.933 7970.8,-829.6 C7944.13,-880.267 7916.4,-921.6 7887.6,-953.6 C7858.8,-985.6 7820.93,-1019.73 7774,-1056 L7793.2,-1081.6 "/>
<path class="StaffText" transform="matrix(0.01,0,0,0.01,262.938,74.3099)" d="M1054.3,-131.2 C990.25,-28.8 903.617,22.4 794.4,22.4 C685.183,22.4 598.546,-29.8667 534.487,-134.4 C470.429,-238.933 438.4,-373.333 438.4,-537.6 C438.4,-692.267 470.967,-821.6 536.1,-925.6 C601.233,-1029.6 689.475,-1081.6 800.825,-1081.6 C903.708,-1081.6 987.692,-1030.4 1052.78,-928 C1117.86,-825.6 1150.4,-692.267 1150.4,-528 C1150.4,-365.867 1118.37,-233.6 1054.3,-131.2 M796,-1040 C655.733,-1040 585.6,-867.733 585.6,-523.2 C585.6,-187.2 655.2,-19.2 794.4,-19.2 C933.6,-19.2 1003.2,-187.733 1003.2,-524.8 C1003.2,-692.267 985.533,-820 950.2,-908 C914.867,-996 863.467,-1040 796,-1040 M1394.2,-160 C1418.52,-160 1439.4,-150.933 1456.84,-132.8 C1474.28,-114.667 1483,-93.3333 1483,-68.8 C1483,-45.3333 1474.02,-25.0667 1456.05,-8 C1438.08,9.06667 1416.94,17.6 1392.62,17.6 C1369.38,17.6 1349.29,9.06667 1332.38,-8 C1315.46,-25.0667 1307,-45.3333 1307,-68.8 C1307,-93.3333 1315.72,-114.667 1333.16,-132.8 C1350.6,-150.933 1370.95,-160 1394.2,-160 M2313.4,-1059.2 L2313.4,-1033.95 L1974.2,12.8 L1870.2,12.8 L2187,-942.4 L1839.8,-942.4 C1796.07,-942.4 1762.73,-934.388 1739.8,-918.363 C1716.87,-902.338 1688.33,-867.075 1654.2,-812.575 L1627,-825.4 L1721.4,-1059.2 L2313.4,-1059.2 M2807.03,22.4 C2699.53,22.4 2613.05,-20.6167 2547.59,-106.65 C2482.13,-192.683 2449.4,-306.233 2449.4,-447.3 C2449.4,-490.967 2453.68,-535.971 2462.25,-582.312 C2470.82,-628.654 2489.55,-681.383 2518.45,-740.5 C2547.35,-799.617 2584.82,-852.608 2630.86,-899.475 C2676.9,-946.342 2741.41,-988.15 2824.38,-1024.9 C2907.34,-1061.65 3002.89,-1084.82 3111.03,-1094.4 L3114.3,-1068.8 C2987.38,-1048.53 2881.44,-997.592 2796.47,-915.975 C2711.51,-834.358 2658.27,-733.275 2636.75,-612.725 C2687.08,-641.292 2725.1,-659.913 2750.8,-668.588 C2776.5,-677.263 2807.03,-681.6 2842.38,-681.6 C2935.28,-681.6 3009.27,-651.883 3064.36,-592.45 C3119.45,-533.017 3147,-452.808 3147,-351.825 C3147,-241.542 3115.43,-151.6 3052.29,-82 C2989.15,-12.4 2907.39,22.4 2807.03,22.4 M2781.32,-611.2 C2708.51,-611.2 2659.52,-595.288 2634.35,-563.462 C2609.18,-531.637 2596.6,-484.425 2596.6,-421.825 C2596.6,-298.775 2616.95,-201.975 2657.64,-131.425 C2698.33,-60.875 2754.02,-25.6 2824.7,-25.6 C2881.47,-25.6 2924.84,-49.2042 2954.82,-96.4125 C2984.81,-143.621 2999.8,-210.725 2999.8,-297.725 C2999.8,-397.442 2980.79,-474.617 2942.78,-529.25 C2904.76,-583.883 2850.94,-611.2 2781.32,-611.2"/>
<path class="StaffText" transform="matrix(0.01,0,0,0.01,262.938,93.3099)" d="M465.6,283.2 C437.867,266.133 409.067,245.6 379.2,221.6 C349.333,197.6 315.467,164.267 277.6,121.6 C239.733,78.9333 206.55,33.3333 178.05,-15.2 C149.55,-63.7333 125.55,-122.133 106.05,-190.4 C86.55,-258.667 76.8,-329.6 76.8,-403.2 C76.8,-480 86.55,-552.8 106.05,-621.6 C125.55,-690.4 148.483,-747.467 174.85,-792.8 C201.217,-838.133 234.933,-881.867 276,-924 C317.067,-966.133 350.933,-997.333 377.6,-1017.6 C404.267,-1037.87 435.2,-1059.2 470.4,-1081.6 L484.8,-1056 C437.867,-1017.6 400,-982.933 371.2,-952 C342.4,-921.067 314.667,-880.8 288,-831.2 C261.333,-781.6 242.133,-722.4 230.4,-653.6 C218.667,-584.8 212.8,-502.933 212.8,-408 C212.8,-308.8 218.667,-223.467 230.4,-152 C242.133,-80.5333 261.333,-19.4667 288,31.2 C314.667,81.8667 342.4,123.2 371.2,155.2 C400,187.2 437.867,221.333 484.8,257.6 L465.6,283.2 M1187.3,-131.2 C1123.25,-28.8 1036.62,22.4 927.4,22.4 C818.183,22.4 731.546,-29.8667 667.487,-134.4 C603.429,-238.933 571.4,-373.333 571.4,-537.6 C571.4,-692.267 603.967,-821.6 669.1,-925.6 C734.233,-1029.6 822.475,-1081.6 933.825,-1081.6 C1036.71,-1081.6 1120.69,-1030.4 1185.78,-928 C1250.86,-825.6 1283.4,-692.267 1283.4,-528 C1283.4,-365.867 1251.37,-233.6 1187.3,-131.2 M929,-1040 C788.733,-1040 718.6,-867.733 718.6,-523.2 C718.6,-187.2 788.2,-19.2 927.4,-19.2 C1066.6,-19.2 1136.2,-187.733 1136.2,-524.8 C1136.2,-692.267 1118.53,-820 1083.2,-908 C1047.87,-996 996.467,-1040 929,-1040 M1527.2,-160 C1551.52,-160 1572.4,-150.933 1589.84,-132.8 C1607.28,-114.667 1616,-93.3333 1616,-68.8 C1616,-45.3333 1607.02,-25.0667 1589.05,-8 C1571.08,9.06667 1549.94,17.6 1525.62,17.6 C1502.38,17.6 1482.29,9.06667 1465.38,-8 C1448.46,-25.0667 1440,-45.3333 1440,-68.8 C1440,-93.3333 1448.72,-114.667 1466.16,-132.8 C1483.6,-150.933 1503.95,-160 1527.2,-160 M2194.07,-595 C2291.12,-523.767 2357.17,-463.958 2392.22,-415.575 C2427.28,-367.192 2444.8,-312.167 2444.8,-250.5 C2444.8,-167.6 2416.05,-101.392 2358.54,-51.875 C2301.03,-2.35833 2223.91,22.4 2127.18,22.4 C2035.81,22.4 1961.37,-2.36667 1903.86,-51.9 C1846.35,-101.433 1817.6,-165.5 1817.6,-244.1 C1817.6,-298.333 1830.85,-343.792 1857.34,-380.475 C1883.83,-417.158 1940.86,-467.933 2028.42,-532.8 C1942.96,-606.167 1888.05,-660.925 1863.71,-697.075 C1839.37,-733.225 1827.2,-777.35 1827.2,-829.45 C1827.2,-902.717 1856.22,-963.592 1914.26,-1012.08 C1972.3,-1060.56 2045.4,-1084.8 2133.55,-1084.8 C2213.33,-1084.8 2279.02,-1063.22 2330.61,-1020.06 C2382.2,-976.904 2408,-921.875 2408,-854.975 C2408,-800.742 2392.04,-754.488 2360.11,-716.213 C2328.19,-677.938 2272.84,-637.533 2194.07,-595 M2069.82,-500.9 C2023.11,-463.683 1990.19,-426.467 1971.08,-389.25 C1951.96,-352.033 1942.4,-307.908 1942.4,-256.875 C1942.4,-187.758 1960.98,-131.933 1998.15,-89.4 C2035.32,-46.8667 2084.17,-25.6 2144.7,-25.6 C2196.77,-25.6 2239,-41.8167 2271.4,-74.25 C2303.8,-106.683 2320,-148.95 2320,-201.05 C2320,-218.067 2318.14,-234.017 2314.43,-248.9 C2310.71,-263.783 2306.99,-276.808 2303.26,-287.975 C2299.54,-299.142 2292.1,-311.638 2280.94,-325.463 C2269.78,-339.288 2260.75,-350.188 2253.85,-358.163 C2246.95,-366.137 2234.47,-377.567 2216.4,-392.45 C2198.33,-407.333 2184.78,-417.963 2175.75,-424.338 C2166.72,-430.713 2149.72,-442.942 2124.78,-461.025 C2099.83,-479.108 2081.51,-492.4 2069.82,-500.9 M2147.88,-623.7 C2148.94,-624.767 2156.11,-629.817 2169.39,-638.85 C2182.66,-647.883 2192.22,-655.058 2198.06,-660.375 C2203.9,-665.692 2212.93,-673.933 2225.14,-685.1 C2237.35,-696.267 2246.63,-706.9 2253,-717 C2259.37,-727.1 2266.53,-739.329 2274.5,-753.688 C2282.47,-768.046 2288.31,-783.996 2292.03,-801.538 C2295.74,-819.079 2297.6,-837.425 2297.6,-856.575 C2297.6,-911.858 2281.67,-955.717 2249.82,-988.15 C2217.97,-1020.58 2174.97,-1036.8 2120.8,-1036.8 C2070.9,-1036.8 2029.76,-1021.91 1997.38,-992.138 C1964.99,-962.363 1948.8,-924.617 1948.8,-878.9 C1948.8,-834.233 1964.2,-792.229 1994.99,-752.888 C2025.78,-713.546 2076.74,-670.483 2147.88,-623.7 M3248.4,-1059.2 L3248.4,-1033.95 L2909.2,12.8 L2805.2,12.8 L3122,-942.4 L2774.8,-942.4 C2731.07,-942.4 2697.73,-934.388 2674.8,-918.363 C2651.87,-902.338 2623.33,-867.075 2589.2,-812.575 L2562,-825.4 L2656.4,-1059.2 L3248.4,-1059.2 M4072.4,-484.475 C4072.4,-495.142 4079.87,-523.675 4094.8,-570.075 C4109.73,-616.475 4117.2,-670.075 4117.2,-730.875 C4075.6,-705.142 4041.47,-677.258 4014.8,-647.225 C3988.13,-617.192 3968.13,-595.413 3954.8,-581.888 C3941.47,-568.363 3923.07,-561.6 3899.6,-561.6 C3861.2,-561.6 3842,-580.533 3842,-618.4 C3842,-636.733 3848.92,-650.488 3862.76,-659.663 C3876.6,-668.838 3893.64,-675.313 3913.88,-679.088 C3934.11,-682.863 3962.6,-691.379 3999.34,-704.638 C4036.08,-717.896 4071.49,-734.592 4105.57,-754.725 C4064.04,-775.942 4019.05,-792.379 3970.59,-804.038 C3922.13,-815.696 3888.58,-826.3 3869.95,-835.85 C3851.32,-845.4 3842,-862.9 3842,-888.35 C3842,-904.25 3847.33,-917.767 3858,-928.9 C3868.67,-940.033 3881.47,-945.6 3896.4,-945.6 C3913.47,-945.6 3928.67,-940.829 3942,-931.288 C3955.33,-921.746 3966.8,-910.083 3976.4,-896.3 C3986,-882.517 4003.33,-864.492 4028.4,-842.225 C4053.47,-819.958 4083.07,-798.75 4117.2,-778.6 C4117.2,-839.4 4110.27,-893.267 4096.4,-940.2 C4082.53,-987.133 4075.6,-1015.93 4075.6,-1026.6 C4075.6,-1042.6 4081.15,-1055.93 4092.25,-1066.6 C4103.35,-1077.27 4117.12,-1082.6 4133.56,-1082.6 C4150,-1082.6 4164.45,-1077 4176.91,-1065.8 C4189.37,-1054.6 4195.6,-1040.47 4195.6,-1023.4 C4195.6,-1009.53 4187.6,-980.467 4171.6,-936.2 C4155.6,-891.933 4147.6,-838.342 4147.6,-775.425 C4185.85,-798.758 4219.11,-825.533 4247.38,-855.75 C4275.64,-885.967 4297.51,-909.029 4312.98,-924.938 C4328.44,-940.846 4345.78,-948.8 4364.98,-948.8 C4382.04,-948.8 4395.91,-942.967 4406.57,-931.3 C4417.24,-919.633 4422.57,-904.792 4422.57,-886.775 C4422.57,-864.508 4411.91,-848.6 4390.57,-839.05 C4369.24,-829.5 4335.11,-818.1 4288.18,-804.85 C4241.24,-791.6 4199.11,-774.367 4161.77,-753.15 C4193.77,-733 4227.91,-716.829 4264.18,-704.638 C4300.44,-692.446 4328.97,-684.758 4349.77,-681.575 C4370.57,-678.392 4388.18,-671.933 4402.57,-662.2 C4416.97,-652.467 4424.18,-638.408 4424.18,-620.025 C4424.18,-601.642 4419.11,-587.042 4408.98,-576.225 C4398.84,-565.408 4385.24,-560 4368.18,-560 C4345.78,-560 4327.11,-566.742 4312.18,-580.225 C4297.24,-593.708 4275.64,-615.825 4247.38,-646.575 C4219.11,-677.325 4185.85,-705.425 4147.6,-730.875 C4147.6,-670.075 4155.87,-615.942 4172.4,-568.475 C4188.93,-521.008 4197.2,-494.608 4197.2,-489.275 C4197.2,-472.208 4190.6,-457.275 4177.39,-444.475 C4164.18,-431.675 4148.38,-425.275 4130,-425.275 C4114.63,-425.275 4101.19,-431.142 4089.68,-442.875 C4078.16,-454.608 4072.4,-468.475 4072.4,-484.475 M5585.3,-131.2 C5521.25,-28.8 5434.62,22.4 5325.4,22.4 C5216.18,22.4 5129.55,-29.8667 5065.49,-134.4 C5001.43,-238.933 4969.4,-373.333 4969.4,-537.6 C4969.4,-692.267 5001.97,-821.6 5067.1,-925.6 C5132.23,-1029.6 5220.47,-1081.6 5331.82,-1081.6 C5434.71,-1081.6 5518.69,-1030.4 5583.77,-928 C5648.86,-825.6 5681.4,-692.267 5681.4,-528 C5681.4,-365.867 5649.37,-233.6 5585.3,-131.2 M5327,-1040 C5186.73,-1040 5116.6,-867.733 5116.6,-523.2 C5116.6,-187.2 5186.2,-19.2 5325.4,-19.2 C5464.6,-19.2 5534.2,-187.733 5534.2,-524.8 C5534.2,-692.267 5516.53,-820 5481.2,-908 C5445.87,-996 5394.47,-1040 5327,-1040 M5925.2,-160 C5949.52,-160 5970.4,-150.933 5987.84,-132.8 C6005.28,-114.667 6014,-93.3333 6014,-68.8 C6014,-45.3333 6005.02,-25.0667 5987.05,-8 C5969.08,9.06667 5947.94,17.6 5923.62,17.6 C5900.38,17.6 5880.29,9.06667 5863.38,-8 C5846.46,-25.0667 5838,-45.3333 5838,-68.8 C5838,-93.3333 5846.72,-114.667 5864.16,-132.8 C5881.6,-150.933 5901.95,-160 5925.2,-160 M6592.07,-595 C6689.12,-523.767 6755.18,-463.958 6790.23,-415.575 C6825.28,-367.192 6842.8,-312.167 6842.8,-250.5 C6842.8,-167.6 6814.05,-101.392 6756.54,-51.875 C6699.03,-2.35833 6621.91,22.4 6525.18,22.4 C6433.81,22.4 6359.37,-2.36667 6301.86,-51.9 C6244.35,-101.433 6215.6,-165.5 6215.6,-244.1 C6215.6,-298.333 6228.85,-343.792 6255.34,-380.475 C6281.83,-417.158 6338.86,-467.933 6426.43,-532.8 C6340.96,-606.167 6286.05,-660.925 6261.71,-697.075 C6237.37,-733.225 6225.2,-777.35 6225.2,-829.45 C6225.2,-902.717 6254.22,-963.592 6312.26,-1012.08 C6370.3,-1060.56 6443.4,-1084.8 6531.55,-1084.8 C6611.33,-1084.8 6677.02,-1063.22 6728.61,-1020.06 C6780.2,-976.904 6806,-921.875 6806,-854.975 C6806,-800.742 6790.04,-754.488 6758.11,-716.213 C6726.19,-677.938 6670.84,-637.533 6592.07,-595 M6467.82,-500.9 C6421.11,-463.683 6388.19,-426.467 6369.07,-389.25 C6349.96,-352.033 6340.4,-307.908 6340.4,-256.875 C6340.4,-187.758 6358.98,-131.933 6396.15,-89.4 C6433.32,-46.8667 6482.17,-25.6 6542.7,-25.6 C6594.77,-25.6 6637,-41.8167 6669.4,-74.25 C6701.8,-106.683 6718,-148.95 6718,-201.05 C6718,-218.067 6716.14,-234.017 6712.43,-248.9 C6708.71,-263.783 6704.99,-276.808 6701.26,-287.975 C6697.54,-299.142 6690.1,-311.638 6678.94,-325.463 C6667.78,-339.288 6658.75,-350.188 6651.85,-358.163 C6644.95,-366.137 6632.47,-377.567 6614.4,-392.45 C6596.33,-407.333 6582.78,-417.963 6573.75,-424.338 C6564.72,-430.713 6547.72,-442.942 6522.77,-461.025 C6497.82,-479.108 6479.51,-492.4 6467.82,-500.9 M6545.88,-623.7 C6546.94,-624.767 6554.11,-629.817 6567.39,-638.85 C6580.66,-647.883 6590.22,-655.058 6596.06,-660.375 C6601.9,-665.692 6610.93,-673.933 6623.14,-685.1 C6635.35,-696.267 6644.63,-706.9 6651,-717 C6657.37,-727.1 6664.53,-739.329 6672.5,-753.688 C6680.47,-768.046 6686.31,-783.996 6690.02,-801.538 C6693.74,-819.079 6695.6,-837.425 6695.6,-856.575 C6695.6,-911.858 6679.68,-955.717 6647.82,-988.15 C6615.97,-1020.58 6572.97,-1036.8 6518.8,-1036.8 C6468.9,-1036.8 6427.76,-1021.91 6395.38,-992.138 C6362.99,-962.363 6346.8,-924.617 6346.8,-878.9 C6346.8,-834.233 6362.2,-792.229 6392.99,-752.888 C6423.78,-713.546 6474.74,-670.483 6545.88,-623.7 M7646.4,-1059.2 L7646.4,-1033.95 L7307.2,12.8 L7203.2,12.8 L7520,-942.4 L7172.8,-942.4 C7129.07,-942.4 7095.73,-934.388 7072.8,-918.363 C7049.87,-902.338 7021.33,-867.075 6987.2,-812.575 L6960,-825.4 L7054.4,-1059.2 L7646.4,-1059.2 M7795.2,-1081.6 C7822.93,-1064.53 7851.73,-1044 7881.6,-1020 C7911.47,-996 7945.33,-962.667 7983.2,-920 C8021.07,-877.333 8054.25,-831.733 8082.75,-783.2 C8111.25,-734.667 8135.25,-676.267 8154.75,-608 C8174.25,-539.733 8184,-468.8 8184,-395.2 C8184,-318.4 8174.25,-245.6 8154.75,-176.8 C8135.25,-108 8112.32,-50.9333 8085.95,-5.6 C8059.58,39.7333 8025.87,83.4667 7984.8,125.6 C7943.73,167.733 7909.87,198.933 7883.2,219.2 C7856.53,239.467 7825.6,260.8 7790.4,283.2 L7776,257.6 C7822.93,219.2 7860.8,184.533 7889.6,153.6 C7918.4,122.667 7946.13,82.4 7972.8,32.8 C7999.47,-16.8 8018.67,-76 8030.4,-144.8 C8042.13,-213.6 8048,-295.467 8048,-390.4 C8048,-489.6 8042.13,-574.933 8030.4,-646.4 C8018.67,-717.867 7999.47,-778.933 7972.8,-829.6 C7946.13,-880.267 7918.4,-921.6 7889.6,-953.6 C7860.8,-985.6 7822.93,-1019.73 7776,-1056 L7795.2,-1081.6 "/>
<path class="StaffText" transform="matrix(0.01,0,0,0.01,167.98,74.3099)" d="M654.3,-131.2 C590.25,-28.8 503.617,22.4 394.4,22.4 C285.183,22.4 198.546,-29.8667 134.488,-134.4 C70.4292,-238.933 38.4,-373.333 38.4,-537.6 C38.4,-692.267 70.9667,-821.6 136.1,-925.6 C201.233,-1029.6 289.475,-1081.6 400.825,-1081.6 C503.708,-1081.6 587.692,-1030.4 652.775,-928 C717.858,-825.6 750.4,-692.267 750.4,-528 C750.4,-365.867 718.367,-233.6 654.3,-131.2 M396,-1040 C255.733,-1040 185.6,-867.733 185.6,-523.2 C185.6,-187.2 255.2,-19.2 394.4,-19.2 C533.6,-19.2 603.2,-187.733 603.2,-524.8 C603.2,-692.267 585.533,-820 550.2,-908 C514.867,-996 463.467,-1040 396,-1040 M994.2,-160 C1018.52,-160 1039.4,-150.933 1056.84,-132.8 C1074.28,-114.667 1083,-93.3333 1083,-68.8 C1083,-45.3333 1074.02,-25.0667 1056.05,-8 C1038.08,9.06667 1016.94,17.6 992.625,17.6 C969.375,17.6 949.292,9.06667 932.375,-8 C915.458,-25.0667 907,-45.3333 907,-68.8 C907,-93.3333 915.721,-114.667 933.163,-132.8 C950.604,-150.933 970.95,-160 994.2,-160 M1661.08,-595 C1758.12,-523.767 1824.18,-463.958 1859.23,-415.575 C1894.27,-367.192 1911.8,-312.167 1911.8,-250.5 C1911.8,-167.6 1883.05,-101.392 1825.54,-51.875 C1768.03,-2.35833 1690.91,22.4 1594.17,22.4 C1502.81,22.4 1428.37,-2.36667 1370.86,-51.9 C1313.35,-101.433 1284.6,-165.5 1284.6,-244.1 C1284.6,-298.333 1297.85,-343.792 1324.34,-380.475 C1350.83,-417.158 1407.86,-467.933 1495.42,-532.8 C1409.96,-606.167 1355.05,-660.925 1330.71,-697.075 C1306.37,-733.225 1294.2,-777.35 1294.2,-829.45 C1294.2,-902.717 1323.22,-963.592 1381.26,-1012.08 C1439.3,-1060.56 1512.4,-1084.8 1600.55,-1084.8 C1680.33,-1084.8 1746.02,-1063.22 1797.61,-1020.06 C1849.2,-976.904 1875,-921.875 1875,-854.975 C1875,-800.742 1859.04,-754.488 1827.11,-716.213 C1795.19,-677.938 1739.84,-637.533 1661.08,-595 M1536.83,-500.9 C1490.11,-463.683 1457.19,-426.467 1438.08,-389.25 C1418.96,-352.033 1409.4,-307.908 1409.4,-256.875 C1409.4,-187.758 1427.98,-131.933 1465.15,-89.4 C1502.32,-46.8667 1551.17,-25.6 1611.7,-25.6 C1663.77,-25.6 1706,-41.8167 1738.4,-74.25 C1770.8,-106.683 1787,-148.95 1787,-201.05 C1787,-218.067 1785.14,-234.017 1781.42,-248.9 C1777.71,-263.783 1773.99,-276.808 1770.26,-287.975 C1766.54,-299.142 1759.1,-311.638 1747.94,-325.463 C1736.78,-339.288 1727.75,-350.188 1720.85,-358.163 C1713.95,-366.137 1701.47,-377.567 1683.4,-392.45 C1665.33,-407.333 1651.78,-417.963 1642.75,-424.338 C1633.72,-430.713 1616.73,-442.942 1591.78,-461.025 C1566.83,-479.108 1548.51,-492.4 1536.83,-500.9 M1614.88,-623.7 C1615.94,-624.767 1623.11,-629.817 1636.39,-638.85 C1649.66,-647.883 1659.22,-655.058 1665.06,-660.375 C1670.9,-665.692 1679.93,-673.933 1692.14,-685.1 C1704.35,-696.267 1713.63,-706.9 1720,-717 C1726.37,-727.1 1733.53,-739.329 1741.5,-753.688 C1749.47,-768.046 1755.31,-783.996 1759.03,-801.538 C1762.74,-819.079 1764.6,-837.425 1764.6,-856.575 C1764.6,-911.858 1748.68,-955.717 1716.83,-988.15 C1684.98,-1020.58 1641.97,-1036.8 1587.8,-1036.8 C1537.9,-1036.8 1496.76,-1021.91 1464.38,-992.138 C1431.99,-962.363 1415.8,-924.617 1415.8,-878.9 C1415.8,-834.233 1431.2,-792.229 1461.99,-752.888 C1492.78,-713.546 1543.74,-670.483 1614.88,-623.7 M2715.4,-1059.2 L2715.4,-1033.95 L2376.2,12.8 L2272.2,12.8 L2589,-942.4 L2241.8,-942.4 C2198.07,-942.4 2164.73,-934.388 2141.8,-918.363 C2118.87,-902.338 2090.33,-867.075 2056.2,-812.575 L2029,-825.4 L2123.4,-1059.2 L2715.4,-1059.2 "/>
<path class="StaffText" transform="matrix(0.01,0,0,0.01,79.723,74.3099)" d="M292.8,-948.8 C273.6,-948.8 235.2,-937.067 177.6,-913.6 L177.6,-936 L464.15,-1081.6 L476.8,-1078.4 L476.8,-118.4 C476.8,-80 486.5,-54.9333 505.9,-43.2 C525.3,-31.4667 566.8,-25.0667 630.4,-24 L630.4,0 L187.2,0 L187.2,-24 C247.567,-26.1333 288.258,-34.9333 309.275,-50.4 C330.292,-65.8667 340.8,-98.6667 340.8,-148.8 L340.8,-873.6 C340.8,-923.733 324.8,-948.8 292.8,-948.8"/>
</svg>
