<?xml version="1.0" encoding="UTF-8" standalone="no"?>
<svg width="595.275px" height="99.2125px" viewBox="0 0 595.275 99.2125"
 xmlns="http://www.w3.org/2000/svg" xmlns:xlink="http://www.w3.org/1999/xlink" version="1.2" baseProfile="tiny">
<title>articulations</title>
<desc>Generated by MuseScore 2.0.3</desc>
<polyline class="StaffLines" fill="none" stroke="#000000" stroke-width="0.54" stroke-linejoin="bevel" points="28.3465,53.6088 566.929,53.6088"/>
<polyline class="Stem" fill="none" stroke="#000000" stroke-width="0.87" stroke-linecap="round" stroke-linejoin="bevel" points="470.181,52.3503 470.181,36.0184"/>
<polyline class="Stem" fill="none" stroke="#000000" stroke-width="0.87" stroke-linecap="round" stroke-linejoin="bevel" points="393.365,52.3503 393.365,36.0184"/>
<polyline class="Stem" fill="none" stroke="#000000" stroke-width="0.87" stroke-linecap="round" stroke-linejoin="bevel" points="316.549,52.3503 316.549,36.0184"/>
<polyline class="Stem" fill="none" stroke="#000000" stroke-width="0.87" stroke-linecap="round" stroke-linejoin="bevel" points="239.732,52.3503 239.732,36.0184"/>
<polyline class="Stem" fill="none" stroke="#000000" stroke-width="0.87" stroke-linecap="round" stroke-linejoin="bevel" points="162.916,52.3503 162.916,36.0184"/>
<polyline class="Stem" fill="none" stroke="#000000" stroke-width="0.87" stroke-linecap="round" stroke-linejoin="bevel" points="86.0995,52.3503 86.0995,36.0184"/>
<path class="Note" d="M468.199,50.8549 C468.824,50.8549 469.352,51.0177 469.781,51.3432 C470.185,51.6948 470.387,52.1375 470.387,52.6713 C470.387,53.5698 469.925,54.4096 469,55.1909 C468.063,55.9721 467.06,56.3627 465.992,56.3627 C465.367,56.3627 464.84,56.2 464.41,55.8744 C464.007,55.5229 463.805,55.0802 463.805,54.5463 C463.805,53.6479 464.274,52.808 465.211,52.0268 C466.123,51.2455 467.119,50.8549 468.199,50.8549"/>
<path class="Note" d="M391.383,50.8549 C392.008,50.8549 392.535,51.0177 392.965,51.3432 C393.369,51.6948 393.571,52.1375 393.571,52.6713 C393.571,53.5698 393.108,54.4096 392.184,55.1909 C391.246,55.9721 390.244,56.3627 389.176,56.3627 C388.551,56.3627 388.024,56.2 387.594,55.8744 C387.19,55.5229 386.989,55.0802 386.989,54.5463 C386.989,53.6479 387.457,52.808 388.395,52.0268 C389.306,51.2455 390.302,50.8549 391.383,50.8549"/>
<path class="Note" d="M314.567,50.8549 C315.192,50.8549 315.719,51.0177 316.149,51.3432 C316.552,51.6948 316.754,52.1375 316.754,52.6713 C316.754,53.5698 316.292,54.4096 315.367,55.1909 C314.43,55.9721 313.427,56.3627 312.36,56.3627 C311.735,56.3627 311.207,56.2 310.778,55.8744 C310.374,55.5229 310.172,55.0802 310.172,54.5463 C310.172,53.6479 310.641,52.808 311.578,52.0268 C312.49,51.2455 313.486,50.8549 314.567,50.8549"/>
<path class="Note" d="M237.75,50.8549 C238.375,50.8549 238.903,51.0177 239.332,51.3432 C239.736,51.6948 239.938,52.1375 239.938,52.6713 C239.938,53.5698 239.476,54.4096 238.551,55.1909 C237.614,55.9721 236.611,56.3627 235.543,56.3627 C234.918,56.3627 234.391,56.2 233.961,55.8744 C233.558,55.5229 233.356,55.0802 233.356,54.5463 C233.356,53.6479 233.824,52.808 234.762,52.0268 C235.673,51.2455 236.67,50.8549 237.75,50.8549"/>
<path class="Note" d="M160.934,50.8549 C161.559,50.8549 162.086,51.0177 162.516,51.3432 C162.92,51.6948 163.121,52.1375 163.121,52.6713 C163.121,53.5698 162.659,54.4096 161.735,55.1909 C160.797,55.9721 159.795,56.3627 158.727,56.3627 C158.102,56.3627 157.575,56.2 157.145,55.8744 C156.741,55.5229 156.539,55.0802 156.539,54.5463 C156.539,53.6479 157.008,52.808 157.946,52.0268 C158.857,51.2455 159.853,50.8549 160.934,50.8549"/>
<path class="Note" d="M84.1175,50.8549 C84.7425,50.8549 85.2698,51.0177 85.6995,51.3432 C86.1032,51.6948 86.305,52.1375 86.305,52.6713 C86.305,53.5698 85.8428,54.4096 84.9183,55.1909 C83.9808,55.9721 82.9782,56.3627 81.9105,56.3627 C81.2855,56.3627 80.7581,56.2 80.3284,55.8744 C79.9248,55.5229 79.723,55.0802 79.723,54.5463 C79.723,53.6479 80.1917,52.808 81.1292,52.0268 C82.0407,51.2455 83.0368,50.8549 84.1175,50.8549"/>
<path class="Rest" d="M486.417,49.5073 C486.795,49.5073 487.081,49.6114 487.276,49.8198 C487.472,50.0541 487.576,50.2755 487.589,50.4838 C487.615,50.6791 487.68,50.9005 487.784,51.1479 C487.901,51.3562 488.051,51.4604 488.233,51.4604 C488.377,51.4604 488.591,51.2976 488.878,50.9721 C489.138,50.6856 489.327,50.4317 489.444,50.2104 C489.509,50.0802 489.601,50.0151 489.718,50.0151 L489.737,50.0151 C489.868,50.0281 489.959,50.0932 490.011,50.2104 L487.55,58.6088 C487.42,58.739 487.237,58.8041 487.003,58.8041 C486.769,58.8041 486.586,58.739 486.456,58.6088 L488.8,52.0854 C487.966,52.3849 487.263,52.5346 486.69,52.5346 C486.222,52.5346 485.818,52.3849 485.479,52.0854 C485.128,51.7989 484.952,51.4213 484.952,50.9526 C484.952,50.5489 485.095,50.2104 485.382,49.9369 C485.668,49.6505 486.013,49.5073 486.417,49.5073"/>
<path class="Articulation" d="M390.8,31.2413 L390.039,27.1006 C390.039,26.8793 390.136,26.6775 390.332,26.4952 C390.514,26.3259 390.755,26.2413 391.054,26.2413 C391.354,26.2413 391.595,26.3259 391.777,26.4952 C391.972,26.6775 392.07,26.8793 392.07,27.1006 L391.308,31.2413 C391.295,31.4105 391.21,31.4952 391.054,31.4952 C390.898,31.4952 390.813,31.4105 390.8,31.2413"/>
<path class="Articulation" d="M312.607,30.6996 C312.412,30.5043 312.314,30.2699 312.314,29.9965 C312.314,29.7231 312.412,29.4887 312.607,29.2934 C312.803,29.0981 313.037,29.0004 313.31,29.0004 C313.584,29.0004 313.818,29.0981 314.014,29.2934 C314.209,29.4887 314.307,29.7231 314.307,29.9965 C314.307,30.2699 314.209,30.5043 314.014,30.6996 C313.818,30.8949 313.584,30.9926 313.31,30.9926 C313.037,30.9926 312.803,30.8949 312.607,30.6996"/>
<path class="Articulation" d="M236.188,33.9412 C236.031,33.785 235.953,33.5962 235.953,33.3748 C235.953,33.1535 236.031,32.9647 236.188,32.8084 C236.344,32.6522 236.533,32.5741 236.754,32.5741 C236.975,32.5741 237.164,32.6522 237.321,32.8084 C237.477,32.9647 237.555,33.1535 237.555,33.3748 C237.555,33.5962 237.477,33.785 237.321,33.9412 C237.164,34.0975 236.975,34.1756 236.754,34.1756 C236.533,34.1756 236.344,34.0975 236.188,33.9412 M239.391,29.7225 C239.495,29.7225 239.58,29.755 239.645,29.8202 C239.723,29.8853 239.762,29.9699 239.762,30.0741 C239.762,30.1782 239.723,30.2629 239.645,30.328 C239.58,30.3931 239.495,30.4256 239.391,30.4256 L234.117,30.4256 C234.013,30.4256 233.929,30.3931 233.863,30.328 C233.785,30.2629 233.746,30.1782 233.746,30.0741 C233.746,29.9699 233.785,29.8853 233.863,29.8202 C233.929,29.755 234.013,29.7225 234.117,29.7225 L239.391,29.7225 "/>
<path class="Articulation" d="M160.525,30.9926 L155.33,30.9926 C155.239,30.9926 155.141,30.9535 155.037,30.8754 C154.959,30.7973 154.92,30.7061 154.92,30.602 C154.92,30.4978 154.959,30.4067 155.037,30.3285 C155.141,30.2504 155.239,30.2113 155.33,30.2113 L160.525,30.2113 C160.616,30.2113 160.714,30.2504 160.818,30.3285 C160.896,30.4067 160.935,30.4978 160.935,30.602 C160.935,30.7061 160.896,30.7973 160.818,30.8754 C160.714,30.9535 160.616,30.9926 160.525,30.9926"/>
<path class="Hook" d="M469.746,41.0184 L469.746,36.0184 L470.371,36.0184 C470.371,36.7606 470.514,37.5028 470.801,38.245 C471.113,39.0523 471.458,39.7554 471.836,40.3544 C472.109,40.7841 472.519,41.4416 473.066,42.327 C473.483,43.0041 473.834,43.7137 474.121,44.4559 C474.407,45.1981 474.551,45.9403 474.551,46.6825 C474.551,48.0367 474.271,49.4169 473.711,50.8231 C473.62,50.9794 473.496,51.0575 473.34,51.0575 C473.209,51.0575 473.092,51.0054 472.988,50.9012 C472.91,50.8231 472.871,50.7255 472.871,50.6083 L472.871,50.5106 C473.431,49.2216 473.711,47.9455 473.711,46.6825 C473.711,46.0314 473.515,45.3283 473.125,44.5731 C472.734,43.8049 472.337,43.1929 471.933,42.7372 C471.478,42.2033 470.957,41.6304 470.371,41.0184 L469.746,41.0184 "/>
<path class="StaffText" d="M469.317,71.2439 C468.796,72.0759 468.092,72.4919 467.205,72.4919 C466.318,72.4919 465.614,72.0673 465.093,71.2179 C464.573,70.3686 464.312,69.2766 464.312,67.9419 C464.312,66.6853 464.577,65.6344 465.106,64.7894 C465.636,63.9444 466.352,63.5219 467.257,63.5219 C468.093,63.5219 468.775,63.9379 469.304,64.7699 C469.833,65.6019 470.097,66.6853 470.097,68.0199 C470.097,69.3373 469.837,70.4119 469.317,71.2439 M467.218,63.8599 C466.078,63.8599 465.508,65.2596 465.508,68.0589 C465.508,70.7889 466.074,72.1539 467.205,72.1539 C468.336,72.1539 468.901,70.7846 468.901,68.0459 C468.901,66.6853 468.758,65.6474 468.471,64.9324 C468.184,64.2174 467.766,63.8599 467.218,63.8599 M471.619,71.0099 C471.817,71.0099 471.986,71.0836 472.128,71.2309 C472.27,71.3783 472.34,71.5516 472.34,71.7509 C472.34,71.9416 472.267,72.1063 472.122,72.2449 C471.976,72.3836 471.804,72.4529 471.606,72.4529 C471.417,72.4529 471.254,72.3836 471.117,72.2449 C470.979,72.1063 470.91,71.9416 470.91,71.7509 C470.91,71.5516 470.981,71.3783 471.123,71.2309 C471.265,71.0836 471.43,71.0099 471.619,71.0099 M477.641,69.755 C477.641,69.2916 477.54,68.8807 477.336,68.5221 C477.132,68.1636 476.885,67.886 476.595,67.6892 C476.305,67.4925 475.98,67.3307 475.62,67.204 C475.26,67.0772 474.948,66.9942 474.684,66.9548 C474.42,66.9155 474.188,66.8958 473.988,66.8958 C473.884,66.8958 473.832,66.8608 473.832,66.7908 C473.832,66.7654 473.837,66.7441 473.845,66.727 L475.262,63.7039 L477.979,63.7039 C478.118,63.7039 478.229,63.6823 478.311,63.6389 C478.393,63.5956 478.482,63.5046 478.577,63.3659 L478.694,63.4569 L478.2,64.5449 C478.166,64.6169 478.066,64.6529 477.901,64.6529 L475.353,64.6529 L474.807,65.7679 C476.073,65.9951 477.013,66.3645 477.628,66.876 C478.244,67.3876 478.551,68.1374 478.551,69.1255 C478.551,69.6428 478.471,70.1031 478.311,70.5063 C478.151,70.9095 477.947,71.2338 477.7,71.4793 C477.453,71.7249 477.167,71.9265 476.842,72.0842 C476.517,72.242 476.205,72.3494 475.906,72.4064 C475.607,72.4634 475.306,72.4919 475.002,72.4919 C474.517,72.4919 474.131,72.4204 473.845,72.2774 C473.559,72.1344 473.416,71.9373 473.416,71.6859 C473.416,71.3653 473.603,71.2049 473.975,71.2049 C474.218,71.2049 474.532,71.3371 474.918,71.6014 C475.304,71.8658 475.609,71.9979 475.834,71.9979 C476.346,71.9979 476.775,71.7815 477.121,71.3486 C477.468,70.9158 477.641,70.3846 477.641,69.755"/>
<path class="StaffText" d="M446.783,90.6109 C446.558,90.4723 446.324,90.3054 446.081,90.1104 C445.839,89.9154 445.564,89.6446 445.256,89.2979 C444.948,88.9513 444.679,88.5808 444.447,88.1864 C444.216,87.7921 444.021,87.3176 443.862,86.7629 C443.704,86.2083 443.624,85.6319 443.624,85.0339 C443.624,84.4099 443.704,83.8184 443.862,83.2594 C444.021,82.7004 444.207,82.2368 444.421,81.8684 C444.635,81.5001 444.909,81.1448 445.243,80.8024 C445.577,80.4601 445.852,80.2066 446.068,80.0419 C446.285,79.8773 446.536,79.7039 446.822,79.5219 L446.939,79.7299 C446.558,80.0419 446.25,80.3236 446.016,80.5749 C445.782,80.8263 445.557,81.1534 445.34,81.5564 C445.124,81.9594 444.968,82.4404 444.872,82.9994 C444.777,83.5584 444.729,84.2236 444.729,84.9949 C444.729,85.8009 444.777,86.4943 444.872,87.0749 C444.968,87.6556 445.124,88.1518 445.34,88.5634 C445.557,88.9751 445.782,89.3109 446.016,89.5709 C446.25,89.8309 446.558,90.1083 446.939,90.4029 L446.783,90.6109 M452.317,87.2439 C451.796,88.0759 451.092,88.4919 450.205,88.4919 C449.318,88.4919 448.614,88.0673 448.093,87.2179 C447.573,86.3686 447.312,85.2766 447.312,83.9419 C447.312,82.6853 447.577,81.6344 448.106,80.7894 C448.636,79.9444 449.352,79.5219 450.257,79.5219 C451.093,79.5219 451.775,79.9379 452.304,80.7699 C452.833,81.6019 453.097,82.6853 453.097,84.0199 C453.097,85.3373 452.837,86.4119 452.317,87.2439 M450.218,79.8599 C449.078,79.8599 448.508,81.2596 448.508,84.0589 C448.508,86.7889 449.074,88.1539 450.205,88.1539 C451.336,88.1539 451.901,86.7846 451.901,84.0459 C451.901,82.6853 451.758,81.6474 451.471,80.9324 C451.184,80.2174 450.766,79.8599 450.218,79.8599 M454.619,87.0099 C454.817,87.0099 454.986,87.0836 455.128,87.2309 C455.27,87.3783 455.34,87.5516 455.34,87.7509 C455.34,87.9416 455.267,88.1063 455.122,88.2449 C454.976,88.3836 454.804,88.4529 454.606,88.4529 C454.417,88.4529 454.254,88.3836 454.117,88.2449 C453.979,88.1063 453.91,87.9416 453.91,87.7509 C453.91,87.5516 453.981,87.3783 454.123,87.2309 C454.265,87.0836 454.43,87.0099 454.619,87.0099 M460.641,85.755 C460.641,85.2916 460.54,84.8807 460.336,84.5221 C460.132,84.1636 459.885,83.886 459.595,83.6892 C459.305,83.4925 458.98,83.3307 458.62,83.204 C458.26,83.0772 457.948,82.9942 457.684,82.9548 C457.42,82.9155 457.188,82.8958 456.988,82.8958 C456.884,82.8958 456.832,82.8608 456.832,82.7908 C456.832,82.7654 456.837,82.7441 456.845,82.727 L458.262,79.7039 L460.979,79.7039 C461.118,79.7039 461.229,79.6823 461.311,79.6389 C461.393,79.5956 461.482,79.5046 461.577,79.3659 L461.694,79.4569 L461.2,80.5449 C461.166,80.6169 461.066,80.6529 460.901,80.6529 L458.353,80.6529 L457.807,81.7679 C459.073,81.9951 460.013,82.3645 460.628,82.876 C461.244,83.3876 461.551,84.1374 461.551,85.1255 C461.551,85.6428 461.471,86.1031 461.311,86.5063 C461.151,86.9095 460.947,87.2338 460.7,87.4793 C460.453,87.7249 460.167,87.9265 459.842,88.0842 C459.517,88.242 459.205,88.3494 458.906,88.4064 C458.607,88.4634 458.306,88.4919 458.002,88.4919 C457.517,88.4919 457.131,88.4204 456.845,88.2774 C456.559,88.1344 456.416,87.9373 456.416,87.6859 C456.416,87.3653 456.603,87.2049 456.975,87.2049 C457.218,87.2049 457.532,87.3371 457.918,87.6014 C458.304,87.8658 458.609,87.9979 458.834,87.9979 C459.346,87.9979 459.775,87.7815 460.121,87.3486 C460.468,86.9158 460.641,86.3846 460.641,85.755 M467.837,79.7039 L467.837,79.9091 L465.081,88.4139 L464.236,88.4139 L466.81,80.6529 L463.989,80.6529 C463.634,80.6529 463.363,80.718 463.177,80.8482 C462.991,80.9784 462.759,81.2649 462.481,81.7077 L462.26,81.6035 L463.027,79.7039 L467.837,79.7039 M474.782,84.3736 C474.782,84.2869 474.843,84.0551 474.964,83.6781 C475.086,83.3011 475.146,82.8656 475.146,82.3716 C474.808,82.5806 474.531,82.8072 474.314,83.0512 C474.098,83.2952 473.935,83.4722 473.827,83.5821 C473.719,83.692 473.569,83.7469 473.378,83.7469 C473.066,83.7469 472.91,83.5931 472.91,83.2854 C472.91,83.1365 472.967,83.0247 473.079,82.9502 C473.192,82.8756 473.33,82.823 473.494,82.7923 C473.659,82.7617 473.89,82.6925 474.189,82.5847 C474.487,82.477 474.775,82.3414 475.052,82.1778 C474.715,82.0054 474.349,81.8718 473.955,81.7771 C473.562,81.6824 473.289,81.5962 473.138,81.5186 C472.986,81.441 472.91,81.2989 472.91,81.0921 C472.91,80.9629 472.954,80.8531 473.04,80.7626 C473.127,80.6722 473.231,80.6269 473.352,80.6269 C473.491,80.6269 473.615,80.6657 473.723,80.7432 C473.831,80.8207 473.924,80.9155 474.002,81.0275 C474.08,81.1395 474.221,81.2859 474.425,81.4668 C474.629,81.6478 474.869,81.8201 475.146,81.9838 C475.146,81.4898 475.09,81.0521 474.977,80.6708 C474.865,80.2895 474.808,80.0555 474.808,79.9688 C474.808,79.8388 474.854,79.7305 474.944,79.6438 C475.034,79.5571 475.146,79.5138 475.279,79.5138 C475.413,79.5138 475.53,79.5593 475.632,79.6503 C475.733,79.7413 475.783,79.8561 475.783,79.9948 C475.783,80.1075 475.718,80.3436 475.588,80.7033 C475.458,81.063 475.393,81.4984 475.393,82.0096 C475.704,81.82 475.974,81.6025 476.204,81.357 C476.434,81.1114 476.611,80.9241 476.737,80.7948 C476.863,80.6655 477.004,80.6009 477.16,80.6009 C477.298,80.6009 477.411,80.6483 477.498,80.7431 C477.584,80.8379 477.628,80.9585 477.628,81.1049 C477.628,81.2858 477.541,81.415 477.368,81.4926 C477.194,81.5702 476.917,81.6629 476.536,81.7705 C476.154,81.8782 475.812,82.0182 475.509,82.1906 C475.769,82.3543 476.046,82.4857 476.341,82.5847 C476.635,82.6838 476.867,82.7463 477.036,82.7721 C477.205,82.798 477.348,82.8505 477.465,82.9295 C477.582,83.0086 477.641,83.1229 477.641,83.2722 C477.641,83.4216 477.599,83.5402 477.517,83.6281 C477.435,83.716 477.324,83.7599 477.186,83.7599 C477.004,83.7599 476.852,83.7051 476.731,83.5956 C476.609,83.486 476.434,83.3063 476.204,83.0565 C475.974,82.8067 475.704,82.5783 475.393,82.3716 C475.393,82.8656 475.461,83.3054 475.595,83.6911 C475.729,84.0767 475.796,84.2912 475.796,84.3346 C475.796,84.4732 475.743,84.5946 475.636,84.6986 C475.528,84.8026 475.4,84.8546 475.25,84.8546 C475.126,84.8546 475.016,84.8069 474.923,84.7116 C474.829,84.6162 474.782,84.5036 474.782,84.3736 M486.317,87.2439 C485.796,88.0759 485.092,88.4919 484.205,88.4919 C483.318,88.4919 482.614,88.0673 482.093,87.2179 C481.573,86.3686 481.312,85.2766 481.312,83.9419 C481.312,82.6853 481.577,81.6344 482.106,80.7894 C482.636,79.9444 483.352,79.5219 484.257,79.5219 C485.093,79.5219 485.775,79.9379 486.304,80.7699 C486.833,81.6019 487.097,82.6853 487.097,84.0199 C487.097,85.3373 486.837,86.4119 486.317,87.2439 M484.218,79.8599 C483.078,79.8599 482.508,81.2596 482.508,84.0589 C482.508,86.7889 483.074,88.1539 484.205,88.1539 C485.336,88.1539 485.901,86.7846 485.901,84.0459 C485.901,82.6853 485.758,81.6474 485.471,80.9324 C485.184,80.2174 484.766,79.8599 484.218,79.8599 M488.619,87.0099 C488.817,87.0099 488.986,87.0836 489.128,87.2309 C489.27,87.3783 489.34,87.5516 489.34,87.7509 C489.34,87.9416 489.267,88.1063 489.122,88.2449 C488.976,88.3836 488.804,88.4529 488.606,88.4529 C488.417,88.4529 488.254,88.3836 488.117,88.2449 C487.979,88.1063 487.91,87.9416 487.91,87.7509 C487.91,87.5516 487.981,87.3783 488.123,87.2309 C488.265,87.0836 488.43,87.0099 488.619,87.0099 M493.787,83.4755 C494.576,84.0543 495.113,84.5403 495.397,84.9334 C495.682,85.3265 495.824,85.7736 495.824,86.2746 C495.824,86.9482 495.591,87.4861 495.124,87.8884 C494.656,88.2908 494.03,88.4919 493.244,88.4919 C492.501,88.4919 491.897,88.2907 491.429,87.8882 C490.962,87.4858 490.728,86.9652 490.728,86.3266 C490.728,85.886 490.836,85.5166 491.051,85.2186 C491.267,84.9205 491.73,84.508 492.441,83.9809 C491.747,83.3848 491.301,82.9399 491.103,82.6462 C490.905,82.3525 490.806,81.994 490.806,81.5706 C490.806,80.9753 491.042,80.4807 491.514,80.0868 C491.985,79.6929 492.579,79.4959 493.296,79.4959 C493.944,79.4959 494.478,79.6713 494.897,80.0219 C495.316,80.3726 495.525,80.8197 495.525,81.3632 C495.525,81.8039 495.396,82.1797 495.136,82.4907 C494.877,82.8017 494.427,83.13 493.787,83.4755 M492.778,84.2401 C492.398,84.5425 492.131,84.8449 491.975,85.1473 C491.82,85.4497 491.742,85.8082 491.742,86.2228 C491.742,86.7844 491.893,87.238 492.195,87.5835 C492.497,87.9291 492.894,88.1019 493.386,88.1019 C493.809,88.1019 494.152,87.9702 494.416,87.7066 C494.679,87.4431 494.81,87.0997 494.81,86.6764 C494.81,86.5381 494.795,86.4085 494.765,86.2876 C494.735,86.1667 494.705,86.0609 494.674,85.9701 C494.644,85.8794 494.584,85.7779 494.493,85.6655 C494.402,85.5532 494.329,85.4646 494.273,85.3999 C494.217,85.3351 494.116,85.2422 493.969,85.1213 C493.822,85.0003 493.712,84.914 493.638,84.8622 C493.565,84.8104 493.427,84.711 493.224,84.5641 C493.022,84.4172 492.873,84.3092 492.778,84.2401 M493.412,83.2424 C493.421,83.2337 493.479,83.1927 493.587,83.1193 C493.695,83.0459 493.772,82.9876 493.82,82.9444 C493.867,82.9012 493.941,82.8342 494.04,82.7435 C494.139,82.6528 494.214,82.5664 494.266,82.4843 C494.318,82.4022 494.376,82.3029 494.441,82.1862 C494.506,82.0695 494.553,81.94 494.583,81.7974 C494.613,81.6549 494.628,81.5058 494.628,81.3502 C494.628,80.9011 494.499,80.5447 494.24,80.2812 C493.982,80.0177 493.632,79.8859 493.192,79.8859 C492.787,79.8859 492.452,80.0069 492.189,80.2488 C491.926,80.4907 491.794,80.7974 491.794,81.1689 C491.794,81.5318 491.92,81.8731 492.17,82.1927 C492.42,82.5124 492.834,82.8622 493.412,83.2424 M501.837,79.7039 L501.837,79.9091 L499.081,88.4139 L498.236,88.4139 L500.81,80.6529 L497.989,80.6529 C497.634,80.6529 497.363,80.718 497.177,80.8482 C496.991,80.9784 496.759,81.2649 496.481,81.7077 L496.26,81.6035 L497.027,79.7039 L501.837,79.7039 M503.546,79.5219 C503.772,79.6606 504.006,79.8274 504.248,80.0224 C504.491,80.2174 504.766,80.4883 505.074,80.8349 C505.382,81.1816 505.651,81.5521 505.883,81.9464 C506.114,82.3408 506.309,82.8153 506.468,83.3699 C506.626,83.9246 506.705,84.5009 506.705,85.0989 C506.705,85.7229 506.626,86.3144 506.468,86.8734 C506.309,87.4324 506.123,87.8961 505.909,88.2644 C505.695,88.6328 505.421,88.9881 505.087,89.3304 C504.753,89.6728 504.478,89.9263 504.261,90.0909 C504.045,90.2556 503.793,90.4289 503.507,90.6109 L503.39,90.4029 C503.772,90.0909 504.079,89.8093 504.313,89.5579 C504.547,89.3066 504.773,88.9794 504.989,88.5764 C505.206,88.1734 505.362,87.6924 505.457,87.1334 C505.553,86.5744 505.6,85.9093 505.6,85.1379 C505.6,84.3319 505.553,83.6386 505.457,83.0579 C505.362,82.4773 505.206,81.9811 504.989,81.5694 C504.773,81.1578 504.547,80.8219 504.313,80.5619 C504.079,80.3019 503.772,80.0246 503.39,79.7299 L503.546,79.5219 "/>
<path class="StaffText" d="M392.5,71.2439 C391.98,72.0759 391.276,72.4919 390.389,72.4919 C389.501,72.4919 388.797,72.0673 388.277,71.2179 C387.756,70.3686 387.496,69.2766 387.496,67.9419 C387.496,66.6853 387.761,65.6344 388.29,64.7894 C388.819,63.9444 389.536,63.5219 390.441,63.5219 C391.277,63.5219 391.959,63.9379 392.488,64.7699 C393.017,65.6019 393.281,66.6853 393.281,68.0199 C393.281,69.3373 393.021,70.4119 392.5,71.2439 M390.402,63.8599 C389.262,63.8599 388.692,65.2596 388.692,68.0589 C388.692,70.7889 389.258,72.1539 390.389,72.1539 C391.52,72.1539 392.085,70.7846 392.085,68.0459 C392.085,66.6853 391.942,65.6474 391.654,64.9324 C391.367,64.2174 390.95,63.8599 390.402,63.8599 M394.803,71.0099 C395,71.0099 395.17,71.0836 395.312,71.2309 C395.453,71.3783 395.524,71.5516 395.524,71.7509 C395.524,71.9416 395.451,72.1063 395.305,72.2449 C395.159,72.3836 394.987,72.4529 394.79,72.4529 C394.601,72.4529 394.438,72.3836 394.3,72.2449 C394.163,72.1063 394.094,71.9416 394.094,71.7509 C394.094,71.5516 394.165,71.3783 394.307,71.2309 C394.448,71.0836 394.614,71.0099 394.803,71.0099 M400.825,69.755 C400.825,69.2916 400.723,68.8807 400.52,68.5221 C400.316,68.1636 400.069,67.886 399.779,67.6892 C399.488,67.4925 399.163,67.3307 398.804,67.204 C398.444,67.0772 398.132,66.9942 397.868,66.9548 C397.603,66.9155 397.371,66.8958 397.172,66.8958 C397.068,66.8958 397.016,66.8608 397.016,66.7908 C397.016,66.7654 397.02,66.7441 397.029,66.727 L398.446,63.7039 L401.163,63.7039 C401.302,63.7039 401.412,63.6823 401.495,63.6389 C401.577,63.5956 401.666,63.5046 401.761,63.3659 L401.878,63.4569 L401.384,64.5449 C401.349,64.6169 401.25,64.6529 401.085,64.6529 L398.537,64.6529 L397.991,65.7679 C399.256,65.9951 400.197,66.3645 400.812,66.876 C401.427,67.3876 401.735,68.1374 401.735,69.1255 C401.735,69.6428 401.655,70.1031 401.495,70.5063 C401.334,70.9095 401.131,71.2338 400.884,71.4793 C400.637,71.7249 400.351,71.9265 400.026,72.0842 C399.701,72.242 399.389,72.3494 399.09,72.4064 C398.791,72.4634 398.489,72.4919 398.186,72.4919 C397.701,72.4919 397.315,72.4204 397.029,72.2774 C396.743,72.1344 396.6,71.9373 396.6,71.6859 C396.6,71.3653 396.786,71.2049 397.159,71.2049 C397.402,71.2049 397.716,71.3371 398.102,71.6014 C398.487,71.8658 398.793,71.9979 399.018,71.9979 C399.529,71.9979 399.958,71.7815 400.305,71.3486 C400.652,70.9158 400.825,70.3846 400.825,69.755 M408.021,63.7039 L408.021,63.9091 L405.265,72.4139 L404.42,72.4139 L406.994,64.6529 L404.173,64.6529 C403.818,64.6529 403.547,64.718 403.361,64.8482 C403.174,64.9784 402.942,65.2649 402.665,65.7077 L402.444,65.6035 L403.211,63.7039 L408.021,63.7039 "/>
<path class="StaffText" d="M369.967,90.6109 C369.742,90.4723 369.508,90.3054 369.265,90.1104 C369.022,89.9154 368.747,89.6446 368.44,89.2979 C368.132,88.9513 367.862,88.5808 367.631,88.1864 C367.399,87.7921 367.204,87.3176 367.046,86.7629 C366.887,86.2083 366.808,85.6319 366.808,85.0339 C366.808,84.4099 366.887,83.8184 367.046,83.2594 C367.204,82.7004 367.391,82.2368 367.605,81.8684 C367.819,81.5001 368.093,81.1448 368.427,80.8024 C368.76,80.4601 369.035,80.2066 369.252,80.0419 C369.469,79.8773 369.72,79.7039 370.006,79.5219 L370.123,79.7299 C369.742,80.0419 369.434,80.3236 369.2,80.5749 C368.966,80.8263 368.741,81.1534 368.524,81.5564 C368.307,81.9594 368.151,82.4404 368.056,82.9994 C367.961,83.5584 367.913,84.2236 367.913,84.9949 C367.913,85.8009 367.961,86.4943 368.056,87.0749 C368.151,87.6556 368.307,88.1518 368.524,88.5634 C368.741,88.9751 368.966,89.3109 369.2,89.5709 C369.434,89.8309 369.742,90.1083 370.123,90.4029 L369.967,90.6109 M375.5,87.2439 C374.98,88.0759 374.276,88.4919 373.389,88.4919 C372.501,88.4919 371.797,88.0673 371.277,87.2179 C370.756,86.3686 370.496,85.2766 370.496,83.9419 C370.496,82.6853 370.761,81.6344 371.29,80.7894 C371.819,79.9444 372.536,79.5219 373.441,79.5219 C374.277,79.5219 374.959,79.9379 375.488,80.7699 C376.017,81.6019 376.281,82.6853 376.281,84.0199 C376.281,85.3373 376.021,86.4119 375.5,87.2439 M373.402,79.8599 C372.262,79.8599 371.692,81.2596 371.692,84.0589 C371.692,86.7889 372.258,88.1539 373.389,88.1539 C374.52,88.1539 375.085,86.7846 375.085,84.0459 C375.085,82.6853 374.942,81.6474 374.654,80.9324 C374.367,80.2174 373.95,79.8599 373.402,79.8599 M377.803,87.0099 C378,87.0099 378.17,87.0836 378.312,87.2309 C378.453,87.3783 378.524,87.5516 378.524,87.7509 C378.524,87.9416 378.451,88.1063 378.305,88.2449 C378.159,88.3836 377.987,88.4529 377.79,88.4529 C377.601,88.4529 377.438,88.3836 377.3,88.2449 C377.163,88.1063 377.094,87.9416 377.094,87.7509 C377.094,87.5516 377.165,87.3783 377.307,87.2309 C377.448,87.0836 377.614,87.0099 377.803,87.0099 M382.532,88.4919 C381.658,88.4919 380.956,88.1424 380.424,87.4434 C379.892,86.7444 379.626,85.8218 379.626,84.6756 C379.626,84.3208 379.661,83.9552 379.731,83.5786 C379.8,83.2021 379.952,82.7737 380.187,82.2934 C380.422,81.813 380.726,81.3825 381.1,81.0017 C381.475,80.6209 381.999,80.2812 382.673,79.9826 C383.347,79.684 384.123,79.4958 385.002,79.4179 L385.028,79.6259 C383.997,79.7906 383.136,80.2045 382.446,80.8676 C381.756,81.5308 381.323,82.3521 381.148,83.3315 C381.557,83.0994 381.866,82.9481 382.075,82.8776 C382.284,82.8072 382.532,82.7719 382.819,82.7719 C383.574,82.7719 384.175,83.0134 384.623,83.4963 C385.07,83.9792 385.294,84.6309 385.294,85.4513 C385.294,86.3474 385.038,87.0782 384.525,87.6437 C384.012,88.2092 383.347,88.4919 382.532,88.4919 M382.323,83.3439 C381.731,83.3439 381.333,83.4732 381.129,83.7318 C380.924,83.9904 380.822,84.374 380.822,84.8826 C380.822,85.8824 380.987,86.6689 381.318,87.2421 C381.649,87.8153 382.101,88.1019 382.675,88.1019 C383.137,88.1019 383.489,87.9101 383.733,87.5266 C383.976,87.143 384.098,86.5978 384.098,85.8909 C384.098,85.0807 383.944,84.4537 383.635,84.0098 C383.326,83.5659 382.889,83.3439 382.323,83.3439 M388.532,88.4919 C387.658,88.4919 386.956,88.1424 386.424,87.4434 C385.892,86.7444 385.626,85.8218 385.626,84.6756 C385.626,84.3208 385.661,83.9552 385.731,83.5786 C385.8,83.2021 385.952,82.7737 386.187,82.2934 C386.422,81.813 386.726,81.3825 387.1,81.0017 C387.475,80.6209 387.999,80.2812 388.673,79.9826 C389.347,79.684 390.123,79.4958 391.002,79.4179 L391.028,79.6259 C389.997,79.7906 389.136,80.2045 388.446,80.8676 C387.756,81.5308 387.323,82.3521 387.148,83.3315 C387.557,83.0994 387.866,82.9481 388.075,82.8776 C388.284,82.8072 388.532,82.7719 388.819,82.7719 C389.574,82.7719 390.175,83.0134 390.623,83.4963 C391.07,83.9792 391.294,84.6309 391.294,85.4513 C391.294,86.3474 391.038,87.0782 390.525,87.6437 C390.012,88.2092 389.347,88.4919 388.532,88.4919 M388.323,83.3439 C387.731,83.3439 387.333,83.4732 387.129,83.7318 C386.924,83.9904 386.822,84.374 386.822,84.8826 C386.822,85.8824 386.987,86.6689 387.318,87.2421 C387.649,87.8153 388.101,88.1019 388.675,88.1019 C389.137,88.1019 389.489,87.9101 389.733,87.5266 C389.976,87.143 390.098,86.5978 390.098,85.8909 C390.098,85.0807 389.944,84.4537 389.635,84.0098 C389.326,83.5659 388.889,83.3439 388.323,83.3439 M396.966,84.3736 C396.966,84.2869 397.027,84.0551 397.148,83.6781 C397.269,83.3011 397.33,82.8656 397.33,82.3716 C396.992,82.5806 396.715,82.8072 396.498,83.0512 C396.281,83.2952 396.119,83.4722 396.011,83.5821 C395.902,83.692 395.753,83.7469 395.562,83.7469 C395.25,83.7469 395.094,83.5931 395.094,83.2854 C395.094,83.1365 395.15,83.0247 395.263,82.9502 C395.375,82.8756 395.514,82.823 395.678,82.7923 C395.842,82.7617 396.074,82.6925 396.372,82.5847 C396.671,82.477 396.959,82.3414 397.236,82.1778 C396.898,82.0054 396.533,81.8718 396.139,81.7771 C395.745,81.6824 395.473,81.5962 395.321,81.5186 C395.17,81.441 395.094,81.2989 395.094,81.0921 C395.094,80.9629 395.137,80.8531 395.224,80.7626 C395.311,80.6722 395.415,80.6269 395.536,80.6269 C395.675,80.6269 395.798,80.6657 395.907,80.7432 C396.015,80.8207 396.108,80.9155 396.186,81.0275 C396.264,81.1395 396.405,81.2859 396.609,81.4668 C396.812,81.6478 397.053,81.8201 397.33,81.9838 C397.33,81.4898 397.274,81.0521 397.161,80.6708 C397.048,80.2895 396.992,80.0555 396.992,79.9688 C396.992,79.8388 397.037,79.7305 397.127,79.6438 C397.218,79.5571 397.329,79.5138 397.463,79.5138 C397.597,79.5138 397.714,79.5593 397.815,79.6503 C397.916,79.7413 397.967,79.8561 397.967,79.9948 C397.967,80.1075 397.902,80.3436 397.772,80.7033 C397.642,81.063 397.577,81.4984 397.577,82.0096 C397.888,81.82 398.158,81.6025 398.388,81.357 C398.617,81.1114 398.795,80.9241 398.921,80.7948 C399.046,80.6655 399.187,80.6009 399.343,80.6009 C399.482,80.6009 399.595,80.6483 399.681,80.7431 C399.768,80.8379 399.811,80.9585 399.811,81.1049 C399.811,81.2858 399.725,81.415 399.551,81.4926 C399.378,81.5702 399.101,81.6629 398.719,81.7705 C398.338,81.8782 397.996,82.0182 397.692,82.1906 C397.952,82.3543 398.23,82.4857 398.524,82.5847 C398.819,82.6838 399.051,82.7463 399.22,82.7721 C399.389,82.798 399.532,82.8505 399.649,82.9295 C399.766,83.0086 399.824,83.1229 399.824,83.2722 C399.824,83.4216 399.783,83.5402 399.701,83.6281 C399.618,83.716 399.508,83.7599 399.369,83.7599 C399.187,83.7599 399.036,83.7051 398.914,83.5956 C398.793,83.486 398.617,83.3063 398.388,83.0565 C398.158,82.8067 397.888,82.5783 397.577,82.3716 C397.577,82.8656 397.644,83.3054 397.779,83.6911 C397.913,84.0767 397.98,84.2912 397.98,84.3346 C397.98,84.4732 397.926,84.5946 397.819,84.6986 C397.712,84.8026 397.583,84.8546 397.434,84.8546 C397.309,84.8546 397.2,84.8069 397.106,84.7116 C397.013,84.6162 396.966,84.5036 396.966,84.3736 M408.5,87.2439 C407.98,88.0759 407.276,88.4919 406.389,88.4919 C405.501,88.4919 404.797,88.0673 404.277,87.2179 C403.756,86.3686 403.496,85.2766 403.496,83.9419 C403.496,82.6853 403.761,81.6344 404.29,80.7894 C404.819,79.9444 405.536,79.5219 406.441,79.5219 C407.277,79.5219 407.959,79.9379 408.488,80.7699 C409.017,81.6019 409.281,82.6853 409.281,84.0199 C409.281,85.3373 409.021,86.4119 408.5,87.2439 M406.402,79.8599 C405.262,79.8599 404.692,81.2596 404.692,84.0589 C404.692,86.7889 405.258,88.1539 406.389,88.1539 C407.52,88.1539 408.085,86.7846 408.085,84.0459 C408.085,82.6853 407.942,81.6474 407.654,80.9324 C407.367,80.2174 406.95,79.8599 406.402,79.8599 M410.803,87.0099 C411,87.0099 411.17,87.0836 411.312,87.2309 C411.453,87.3783 411.524,87.5516 411.524,87.7509 C411.524,87.9416 411.451,88.1063 411.305,88.2449 C411.159,88.3836 410.987,88.4529 410.79,88.4529 C410.601,88.4529 410.438,88.3836 410.3,88.2449 C410.163,88.1063 410.094,87.9416 410.094,87.7509 C410.094,87.5516 410.165,87.3783 410.307,87.2309 C410.448,87.0836 410.614,87.0099 410.803,87.0099 M415.971,83.4755 C416.759,84.0543 417.296,84.5403 417.581,84.9334 C417.866,85.3265 418.008,85.7736 418.008,86.2746 C418.008,86.9482 417.774,87.4861 417.307,87.8884 C416.84,88.2908 416.213,88.4919 415.427,88.4919 C414.685,88.4919 414.08,88.2907 413.613,87.8882 C413.146,87.4858 412.912,86.9652 412.912,86.3266 C412.912,85.886 413.02,85.5166 413.235,85.2186 C413.45,84.9205 413.914,84.508 414.625,83.9809 C413.931,83.3848 413.485,82.9399 413.287,82.6462 C413.089,82.3525 412.99,81.994 412.99,81.5706 C412.99,80.9753 413.226,80.4807 413.697,80.0868 C414.169,79.6929 414.763,79.4959 415.479,79.4959 C416.127,79.4959 416.661,79.6713 417.08,80.0219 C417.5,80.3726 417.709,80.8197 417.709,81.3632 C417.709,81.8039 417.579,82.1797 417.32,82.4907 C417.061,82.8017 416.611,83.13 415.971,83.4755 M414.961,84.2401 C414.582,84.5425 414.314,84.8449 414.159,85.1473 C414.004,85.4497 413.926,85.8082 413.926,86.2228 C413.926,86.7844 414.077,87.238 414.379,87.5835 C414.681,87.9291 415.078,88.1019 415.57,88.1019 C415.993,88.1019 416.336,87.9702 416.599,87.7066 C416.862,87.4431 416.994,87.0997 416.994,86.6764 C416.994,86.5381 416.979,86.4085 416.949,86.2876 C416.919,86.1667 416.888,86.0609 416.858,85.9701 C416.828,85.8794 416.767,85.7779 416.677,85.6655 C416.586,85.5532 416.513,85.4646 416.457,85.3999 C416.401,85.3351 416.299,85.2422 416.152,85.1213 C416.006,85.0003 415.895,84.914 415.822,84.8622 C415.749,84.8104 415.611,84.711 415.408,84.5641 C415.205,84.4172 415.056,84.3092 414.961,84.2401 M415.596,83.2424 C415.604,83.2337 415.663,83.1927 415.77,83.1193 C415.878,83.0459 415.956,82.9876 416.003,82.9444 C416.051,82.9012 416.124,82.8342 416.223,82.7435 C416.323,82.6528 416.398,82.5664 416.45,82.4843 C416.501,82.4022 416.56,82.3029 416.624,82.1862 C416.689,82.0695 416.737,81.94 416.767,81.7974 C416.797,81.6549 416.812,81.5058 416.812,81.3502 C416.812,80.9011 416.683,80.5447 416.424,80.2812 C416.165,80.0177 415.816,79.8859 415.376,79.8859 C414.97,79.8859 414.636,80.0069 414.373,80.2488 C414.11,80.4907 413.978,80.7974 413.978,81.1689 C413.978,81.5318 414.103,81.8731 414.353,82.1927 C414.604,82.5124 415.018,82.8622 415.596,83.2424 M424.021,79.7039 L424.021,79.9091 L421.265,88.4139 L420.42,88.4139 L422.994,80.6529 L420.173,80.6529 C419.818,80.6529 419.547,80.718 419.361,80.8482 C419.174,80.9784 418.942,81.2649 418.665,81.7077 L418.444,81.6035 L419.211,79.7039 L424.021,79.7039 M425.73,79.5219 C425.955,79.6606 426.189,79.8274 426.432,80.0224 C426.675,80.2174 426.95,80.4883 427.258,80.8349 C427.565,81.1816 427.835,81.5521 428.066,81.9464 C428.298,82.3408 428.493,82.8153 428.651,83.3699 C428.81,83.9246 428.889,84.5009 428.889,85.0989 C428.889,85.7229 428.81,86.3144 428.651,86.8734 C428.493,87.4324 428.307,87.8961 428.092,88.2644 C427.878,88.6328 427.604,88.9881 427.271,89.3304 C426.937,89.6728 426.662,89.9263 426.445,90.0909 C426.228,90.2556 425.977,90.4289 425.691,90.6109 L425.574,90.4029 C425.955,90.0909 426.263,89.8093 426.497,89.5579 C426.731,89.3066 426.956,88.9794 427.173,88.5764 C427.39,88.1734 427.546,87.6924 427.641,87.1334 C427.736,86.5744 427.784,85.9093 427.784,85.1379 C427.784,84.3319 427.736,83.6386 427.641,83.0579 C427.546,82.4773 427.39,81.9811 427.173,81.5694 C426.956,81.1578 426.731,80.8219 426.497,80.5619 C426.263,80.3019 425.955,80.0246 425.574,79.7299 L425.73,79.5219 "/>
<path class="StaffText" d="M315.684,71.2439 C315.163,72.0759 314.46,72.4919 313.572,72.4919 C312.685,72.4919 311.981,72.0673 311.46,71.2179 C310.94,70.3686 310.68,69.2766 310.68,67.9419 C310.68,66.6853 310.944,65.6344 311.474,64.7894 C312.003,63.9444 312.72,63.5219 313.624,63.5219 C314.46,63.5219 315.143,63.9379 315.672,64.7699 C316.2,65.6019 316.465,66.6853 316.465,68.0199 C316.465,69.3373 316.204,70.4119 315.684,71.2439 M313.585,63.8599 C312.446,63.8599 311.876,65.2596 311.876,68.0589 C311.876,70.7889 312.441,72.1539 313.572,72.1539 C314.703,72.1539 315.269,70.7846 315.269,68.0459 C315.269,66.6853 315.125,65.6474 314.838,64.9324 C314.551,64.2174 314.133,63.8599 313.585,63.8599 M317.986,71.0099 C318.184,71.0099 318.353,71.0836 318.495,71.2309 C318.637,71.3783 318.708,71.5516 318.708,71.7509 C318.708,71.9416 318.635,72.1063 318.489,72.2449 C318.343,72.3836 318.171,72.4529 317.973,72.4529 C317.785,72.4529 317.621,72.3836 317.484,72.2449 C317.346,72.1063 317.278,71.9416 317.278,71.7509 C317.278,71.5516 317.349,71.3783 317.49,71.2309 C317.632,71.0836 317.797,71.0099 317.986,71.0099 M322.715,72.4919 C321.842,72.4919 321.139,72.1424 320.607,71.4434 C320.076,70.7444 319.81,69.8218 319.81,68.6756 C319.81,68.3208 319.845,67.9552 319.914,67.5786 C319.984,67.2021 320.136,66.7737 320.371,66.2934 C320.606,65.813 320.91,65.3825 321.284,65.0017 C321.658,64.6209 322.182,64.2812 322.856,63.9826 C323.53,63.684 324.307,63.4958 325.185,63.4179 L325.212,63.6259 C324.181,63.7906 323.32,64.2045 322.63,64.8676 C321.939,65.5308 321.507,66.3521 321.332,67.3315 C321.741,67.0994 322.05,66.9481 322.259,66.8776 C322.467,66.8072 322.715,66.7719 323.003,66.7719 C323.757,66.7719 324.359,67.0134 324.806,67.4963 C325.254,67.9792 325.478,68.6309 325.478,69.4513 C325.478,70.3474 325.221,71.0782 324.708,71.6437 C324.195,72.2092 323.531,72.4919 322.715,72.4919 M322.507,67.3439 C321.915,67.3439 321.517,67.4732 321.312,67.7318 C321.108,67.9904 321.006,68.374 321.006,68.8826 C321.006,69.8824 321.171,70.6689 321.502,71.2421 C321.832,71.8153 322.285,72.1019 322.859,72.1019 C323.32,72.1019 323.673,71.9101 323.916,71.5266 C324.16,71.143 324.282,70.5978 324.282,69.8909 C324.282,69.0807 324.127,68.4537 323.818,68.0098 C323.51,67.5659 323.072,67.3439 322.507,67.3439 M328.715,72.4919 C327.842,72.4919 327.139,72.1424 326.607,71.4434 C326.076,70.7444 325.81,69.8218 325.81,68.6756 C325.81,68.3208 325.845,67.9552 325.914,67.5786 C325.984,67.2021 326.136,66.7737 326.371,66.2934 C326.606,65.813 326.91,65.3825 327.284,65.0017 C327.658,64.6209 328.182,64.2812 328.856,63.9826 C329.53,63.684 330.307,63.4958 331.185,63.4179 L331.212,63.6259 C330.181,63.7906 329.32,64.2045 328.63,64.8676 C327.939,65.5308 327.507,66.3521 327.332,67.3315 C327.741,67.0994 328.05,66.9481 328.259,66.8776 C328.467,66.8072 328.715,66.7719 329.003,66.7719 C329.757,66.7719 330.359,67.0134 330.806,67.4963 C331.254,67.9792 331.478,68.6309 331.478,69.4513 C331.478,70.3474 331.221,71.0782 330.708,71.6437 C330.195,72.2092 329.531,72.4919 328.715,72.4919 M328.507,67.3439 C327.915,67.3439 327.517,67.4732 327.312,67.7318 C327.108,67.9904 327.006,68.374 327.006,68.8826 C327.006,69.8824 327.171,70.6689 327.502,71.2421 C327.832,71.8153 328.285,72.1019 328.859,72.1019 C329.32,72.1019 329.673,71.9101 329.916,71.5266 C330.16,71.143 330.282,70.5978 330.282,69.8909 C330.282,69.0807 330.127,68.4537 329.818,68.0098 C329.51,67.5659 329.072,67.3439 328.507,67.3439"/>
<path class="StaffText" d="M293.151,90.6109 C292.925,90.4723 292.691,90.3054 292.449,90.1104 C292.206,89.9154 291.931,89.6446 291.623,89.2979 C291.316,88.9513 291.046,88.5808 290.814,88.1864 C290.583,87.7921 290.388,87.3176 290.229,86.7629 C290.071,86.2083 289.992,85.6319 289.992,85.0339 C289.992,84.4099 290.071,83.8184 290.229,83.2594 C290.388,82.7004 290.574,82.2368 290.788,81.8684 C291.003,81.5001 291.277,81.1448 291.61,80.8024 C291.944,80.4601 292.219,80.2066 292.436,80.0419 C292.652,79.8773 292.904,79.7039 293.19,79.5219 L293.307,79.7299 C292.925,80.0419 292.618,80.3236 292.384,80.5749 C292.15,80.8263 291.924,81.1534 291.708,81.5564 C291.491,81.9594 291.335,82.4404 291.24,82.9994 C291.144,83.5584 291.097,84.2236 291.097,84.9949 C291.097,85.8009 291.144,86.4943 291.24,87.0749 C291.335,87.6556 291.491,88.1518 291.708,88.5634 C291.924,88.9751 292.15,89.3109 292.384,89.5709 C292.618,89.8309 292.925,90.1083 293.307,90.4029 L293.151,90.6109 M298.684,87.2439 C298.163,88.0759 297.46,88.4919 296.572,88.4919 C295.685,88.4919 294.981,88.0673 294.46,87.2179 C293.94,86.3686 293.68,85.2766 293.68,83.9419 C293.68,82.6853 293.944,81.6344 294.474,80.7894 C295.003,79.9444 295.72,79.5219 296.624,79.5219 C297.46,79.5219 298.143,79.9379 298.672,80.7699 C299.2,81.6019 299.465,82.6853 299.465,84.0199 C299.465,85.3373 299.204,86.4119 298.684,87.2439 M296.585,79.8599 C295.446,79.8599 294.876,81.2596 294.876,84.0589 C294.876,86.7889 295.441,88.1539 296.572,88.1539 C297.703,88.1539 298.269,86.7846 298.269,84.0459 C298.269,82.6853 298.125,81.6474 297.838,80.9324 C297.551,80.2174 297.133,79.8599 296.585,79.8599 M300.986,87.0099 C301.184,87.0099 301.353,87.0836 301.495,87.2309 C301.637,87.3783 301.708,87.5516 301.708,87.7509 C301.708,87.9416 301.635,88.1063 301.489,88.2449 C301.343,88.3836 301.171,88.4529 300.973,88.4529 C300.785,88.4529 300.621,88.3836 300.484,88.2449 C300.346,88.1063 300.278,87.9416 300.278,87.7509 C300.278,87.5516 300.349,87.3783 300.49,87.2309 C300.632,87.0836 300.797,87.0099 300.986,87.0099 M308.205,79.7039 L308.205,79.9091 L305.449,88.4139 L304.604,88.4139 L307.178,80.6529 L304.357,80.6529 C304.001,80.6529 303.731,80.718 303.544,80.8482 C303.358,80.9784 303.126,81.2649 302.849,81.7077 L302.628,81.6035 L303.395,79.7039 L308.205,79.7039 M313.155,83.4755 C313.943,84.0543 314.48,84.5403 314.765,84.9334 C315.049,85.3265 315.192,85.7736 315.192,86.2746 C315.192,86.9482 314.958,87.4861 314.491,87.8884 C314.024,88.2908 313.397,88.4919 312.611,88.4919 C311.869,88.4919 311.264,88.2907 310.797,87.8882 C310.329,87.4858 310.096,86.9652 310.096,86.3266 C310.096,85.886 310.203,85.5166 310.419,85.2186 C310.634,84.9205 311.097,84.508 311.809,83.9809 C311.114,83.3848 310.668,82.9399 310.47,82.6462 C310.273,82.3525 310.174,81.994 310.174,81.5706 C310.174,80.9753 310.41,80.4807 310.881,80.0868 C311.353,79.6929 311.947,79.4959 312.663,79.4959 C313.311,79.4959 313.845,79.6713 314.264,80.0219 C314.683,80.3726 314.893,80.8197 314.893,81.3632 C314.893,81.8039 314.763,82.1797 314.504,82.4907 C314.244,82.8017 313.795,83.13 313.155,83.4755 M312.145,84.2401 C311.765,84.5425 311.498,84.8449 311.343,85.1473 C311.187,85.4497 311.11,85.8082 311.11,86.2228 C311.11,86.7844 311.261,87.238 311.563,87.5835 C311.865,87.9291 312.262,88.1019 312.753,88.1019 C313.176,88.1019 313.52,87.9702 313.783,87.7066 C314.046,87.4431 314.178,87.0997 314.178,86.6764 C314.178,86.5381 314.163,86.4085 314.132,86.2876 C314.102,86.1667 314.072,86.0609 314.042,85.9701 C314.011,85.8794 313.951,85.7779 313.86,85.6655 C313.77,85.5532 313.696,85.4646 313.64,85.3999 C313.584,85.3351 313.483,85.2422 313.336,85.1213 C313.189,85.0003 313.079,84.914 313.006,84.8622 C312.932,84.8104 312.794,84.711 312.592,84.5641 C312.389,84.4172 312.24,84.3092 312.145,84.2401 M312.779,83.2424 C312.788,83.2337 312.846,83.1927 312.954,83.1193 C313.062,83.0459 313.14,82.9876 313.187,82.9444 C313.234,82.9012 313.308,82.8342 313.407,82.7435 C313.506,82.6528 313.582,82.5664 313.633,82.4843 C313.685,82.4022 313.743,82.3029 313.808,82.1862 C313.873,82.0695 313.92,81.94 313.95,81.7974 C313.981,81.6549 313.996,81.5058 313.996,81.3502 C313.996,80.9011 313.866,80.5447 313.608,80.2812 C313.349,80.0177 312.999,79.8859 312.559,79.8859 C312.154,79.8859 311.82,80.0069 311.556,80.2488 C311.293,80.4907 311.162,80.7974 311.162,81.1689 C311.162,81.5318 311.287,81.8731 311.537,82.1927 C311.787,82.5124 312.201,82.8622 312.779,83.2424 M321.15,84.3736 C321.15,84.2869 321.21,84.0551 321.332,83.6781 C321.453,83.3011 321.514,82.8656 321.514,82.3716 C321.176,82.5806 320.898,82.8072 320.682,83.0512 C320.465,83.2952 320.303,83.4722 320.194,83.5821 C320.086,83.692 319.936,83.7469 319.746,83.7469 C319.434,83.7469 319.278,83.5931 319.278,83.2854 C319.278,83.1365 319.334,83.0247 319.446,82.9502 C319.559,82.8756 319.697,82.823 319.862,82.7923 C320.026,82.7617 320.258,82.6925 320.556,82.5847 C320.855,82.477 321.142,82.3414 321.419,82.1778 C321.082,82.0054 320.716,81.8718 320.322,81.7771 C319.929,81.6824 319.656,81.5962 319.505,81.5186 C319.353,81.441 319.278,81.2989 319.278,81.0921 C319.278,80.9629 319.321,80.8531 319.408,80.7626 C319.494,80.6722 319.598,80.6269 319.72,80.6269 C319.858,80.6269 319.982,80.6657 320.09,80.7432 C320.199,80.8207 320.292,80.9155 320.37,81.0275 C320.448,81.1395 320.589,81.2859 320.792,81.4668 C320.996,81.6478 321.236,81.8201 321.514,81.9838 C321.514,81.4898 321.457,81.0521 321.345,80.6708 C321.232,80.2895 321.176,80.0555 321.176,79.9688 C321.176,79.8388 321.221,79.7305 321.311,79.6438 C321.401,79.5571 321.513,79.5138 321.647,79.5138 C321.78,79.5138 321.898,79.5593 321.999,79.6503 C322.1,79.7413 322.151,79.8561 322.151,79.9948 C322.151,80.1075 322.086,80.3436 321.956,80.7033 C321.826,81.063 321.761,81.4984 321.761,82.0096 C322.071,81.82 322.342,81.6025 322.571,81.357 C322.801,81.1114 322.979,80.9241 323.104,80.7948 C323.23,80.6655 323.371,80.6009 323.527,80.6009 C323.666,80.6009 323.778,80.6483 323.865,80.7431 C323.952,80.8379 323.995,80.9585 323.995,81.1049 C323.995,81.2858 323.908,81.415 323.735,81.4926 C323.562,81.5702 323.284,81.6629 322.903,81.7705 C322.522,81.8782 322.179,82.0182 321.876,82.1906 C322.136,82.3543 322.413,82.4857 322.708,82.5847 C323.003,82.6838 323.234,82.7463 323.403,82.7721 C323.572,82.798 323.715,82.8505 323.832,82.9295 C323.949,83.0086 324.008,83.1229 324.008,83.2722 C324.008,83.4216 323.967,83.5402 323.884,83.6281 C323.802,83.716 323.692,83.7599 323.553,83.7599 C323.371,83.7599 323.219,83.7051 323.098,83.5956 C322.977,83.486 322.801,83.3063 322.571,83.0565 C322.342,82.8067 322.071,82.5783 321.761,82.3716 C321.761,82.8656 321.828,83.3054 321.962,83.6911 C322.097,84.0767 322.164,84.2912 322.164,84.3346 C322.164,84.4732 322.11,84.5946 322.003,84.6986 C321.895,84.8026 321.767,84.8546 321.618,84.8546 C321.493,84.8546 321.384,84.8069 321.29,84.7116 C321.197,84.6162 321.15,84.5036 321.15,84.3736 M332.684,87.2439 C332.163,88.0759 331.46,88.4919 330.572,88.4919 C329.685,88.4919 328.981,88.0673 328.46,87.2179 C327.94,86.3686 327.68,85.2766 327.68,83.9419 C327.68,82.6853 327.944,81.6344 328.474,80.7894 C329.003,79.9444 329.72,79.5219 330.624,79.5219 C331.46,79.5219 332.143,79.9379 332.672,80.7699 C333.2,81.6019 333.465,82.6853 333.465,84.0199 C333.465,85.3373 333.204,86.4119 332.684,87.2439 M330.585,79.8599 C329.446,79.8599 328.876,81.2596 328.876,84.0589 C328.876,86.7889 329.441,88.1539 330.572,88.1539 C331.703,88.1539 332.269,86.7846 332.269,84.0459 C332.269,82.6853 332.125,81.6474 331.838,80.9324 C331.551,80.2174 331.133,79.8599 330.585,79.8599 M334.986,87.0099 C335.184,87.0099 335.353,87.0836 335.495,87.2309 C335.637,87.3783 335.708,87.5516 335.708,87.7509 C335.708,87.9416 335.635,88.1063 335.489,88.2449 C335.343,88.3836 335.171,88.4529 334.973,88.4529 C334.785,88.4529 334.621,88.3836 334.484,88.2449 C334.346,88.1063 334.278,87.9416 334.278,87.7509 C334.278,87.5516 334.349,87.3783 334.49,87.2309 C334.632,87.0836 334.797,87.0099 334.986,87.0099 M340.155,83.4755 C340.943,84.0543 341.48,84.5403 341.765,84.9334 C342.049,85.3265 342.192,85.7736 342.192,86.2746 C342.192,86.9482 341.958,87.4861 341.491,87.8884 C341.024,88.2908 340.397,88.4919 339.611,88.4919 C338.869,88.4919 338.264,88.2907 337.797,87.8882 C337.329,87.4858 337.096,86.9652 337.096,86.3266 C337.096,85.886 337.203,85.5166 337.419,85.2186 C337.634,84.9205 338.097,84.508 338.809,83.9809 C338.114,83.3848 337.668,82.9399 337.47,82.6462 C337.273,82.3525 337.174,81.994 337.174,81.5706 C337.174,80.9753 337.41,80.4807 337.881,80.0868 C338.353,79.6929 338.947,79.4959 339.663,79.4959 C340.311,79.4959 340.845,79.6713 341.264,80.0219 C341.683,80.3726 341.893,80.8197 341.893,81.3632 C341.893,81.8039 341.763,82.1797 341.504,82.4907 C341.244,82.8017 340.795,83.13 340.155,83.4755 M339.145,84.2401 C338.765,84.5425 338.498,84.8449 338.343,85.1473 C338.187,85.4497 338.11,85.8082 338.11,86.2228 C338.11,86.7844 338.261,87.238 338.563,87.5835 C338.865,87.9291 339.262,88.1019 339.753,88.1019 C340.176,88.1019 340.52,87.9702 340.783,87.7066 C341.046,87.4431 341.178,87.0997 341.178,86.6764 C341.178,86.5381 341.163,86.4085 341.132,86.2876 C341.102,86.1667 341.072,86.0609 341.042,85.9701 C341.011,85.8794 340.951,85.7779 340.86,85.6655 C340.77,85.5532 340.696,85.4646 340.64,85.3999 C340.584,85.3351 340.483,85.2422 340.336,85.1213 C340.189,85.0003 340.079,84.914 340.006,84.8622 C339.932,84.8104 339.794,84.711 339.592,84.5641 C339.389,84.4172 339.24,84.3092 339.145,84.2401 M339.779,83.2424 C339.788,83.2337 339.846,83.1927 339.954,83.1193 C340.062,83.0459 340.14,82.9876 340.187,82.9444 C340.234,82.9012 340.308,82.8342 340.407,82.7435 C340.506,82.6528 340.582,82.5664 340.633,82.4843 C340.685,82.4022 340.743,82.3029 340.808,82.1862 C340.873,82.0695 340.92,81.94 340.95,81.7974 C340.981,81.6549 340.996,81.5058 340.996,81.3502 C340.996,80.9011 340.866,80.5447 340.608,80.2812 C340.349,80.0177 339.999,79.8859 339.559,79.8859 C339.154,79.8859 338.82,80.0069 338.556,80.2488 C338.293,80.4907 338.162,80.7974 338.162,81.1689 C338.162,81.5318 338.287,81.8731 338.537,82.1927 C338.787,82.5124 339.201,82.8622 339.779,83.2424 M348.205,79.7039 L348.205,79.9091 L345.449,88.4139 L344.604,88.4139 L347.178,80.6529 L344.357,80.6529 C344.001,80.6529 343.731,80.718 343.544,80.8482 C343.358,80.9784 343.126,81.2649 342.849,81.7077 L342.628,81.6035 L343.395,79.7039 L348.205,79.7039 M349.914,79.5219 C350.139,79.6606 350.373,79.8274 350.616,80.0224 C350.858,80.2174 351.134,80.4883 351.441,80.8349 C351.749,81.1816 352.018,81.5521 352.25,81.9464 C352.482,82.3408 352.677,82.8153 352.835,83.3699 C352.993,83.9246 353.073,84.5009 353.073,85.0989 C353.073,85.7229 352.993,86.3144 352.835,86.8734 C352.677,87.4324 352.49,87.8961 352.276,88.2644 C352.062,88.6328 351.788,88.9881 351.454,89.3304 C351.121,89.6728 350.845,89.9263 350.629,90.0909 C350.412,90.2556 350.161,90.4289 349.875,90.6109 L349.758,90.4029 C350.139,90.0909 350.447,89.8093 350.681,89.5579 C350.915,89.3066 351.14,88.9794 351.357,88.5764 C351.573,88.1734 351.729,87.6924 351.825,87.1334 C351.92,86.5744 351.968,85.9093 351.968,85.1379 C351.968,84.3319 351.92,83.6386 351.825,83.0579 C351.729,82.4773 351.573,81.9811 351.357,81.5694 C351.14,81.1578 350.915,80.8219 350.681,80.5619 C350.447,80.3019 350.139,80.0246 349.758,79.7299 L349.914,79.5219 "/>
<path class="StaffText" d="M238.868,71.2439 C238.347,72.0759 237.643,72.4919 236.756,72.4919 C235.868,72.4919 235.165,72.0673 234.644,71.2179 C234.124,70.3686 233.863,69.2766 233.863,67.9419 C233.863,66.6853 234.128,65.6344 234.657,64.7894 C235.186,63.9444 235.903,63.5219 236.808,63.5219 C237.644,63.5219 238.326,63.9379 238.855,64.7699 C239.384,65.6019 239.648,66.6853 239.648,68.0199 C239.648,69.3373 239.388,70.4119 238.868,71.2439 M236.769,63.8599 C235.629,63.8599 235.059,65.2596 235.059,68.0589 C235.059,70.7889 235.625,72.1539 236.756,72.1539 C237.887,72.1539 238.452,70.7846 238.452,68.0459 C238.452,66.6853 238.309,65.6474 238.022,64.9324 C237.735,64.2174 237.317,63.8599 236.769,63.8599 M241.17,71.0099 C241.367,71.0099 241.537,71.0836 241.679,71.2309 C241.82,71.3783 241.891,71.5516 241.891,71.7509 C241.891,71.9416 241.818,72.1063 241.672,72.2449 C241.526,72.3836 241.355,72.4529 241.157,72.4529 C240.968,72.4529 240.805,72.3836 240.667,72.2449 C240.53,72.1063 240.461,71.9416 240.461,71.7509 C240.461,71.5516 240.532,71.3783 240.674,71.2309 C240.816,71.0836 240.981,71.0099 241.17,71.0099 M248.388,63.7039 L248.388,63.9091 L245.632,72.4139 L244.787,72.4139 L247.361,64.6529 L244.54,64.6529 C244.185,64.6529 243.914,64.718 243.728,64.8482 C243.541,64.9784 243.31,65.2649 243.032,65.7077 L242.811,65.6035 L243.578,63.7039 L248.388,63.7039 M253.338,67.4755 C254.127,68.0543 254.663,68.5403 254.948,68.9334 C255.233,69.3265 255.375,69.7736 255.375,70.2746 C255.375,70.9482 255.142,71.4861 254.674,71.8884 C254.207,72.2908 253.581,72.4919 252.795,72.4919 C252.052,72.4919 251.447,72.2907 250.98,71.8882 C250.513,71.4858 250.279,70.9652 250.279,70.3266 C250.279,69.886 250.387,69.5166 250.602,69.2186 C250.817,68.9205 251.281,68.508 251.992,67.9809 C251.298,67.3848 250.852,66.9399 250.654,66.6462 C250.456,66.3525 250.357,65.994 250.357,65.5706 C250.357,64.9753 250.593,64.4807 251.065,64.0868 C251.536,63.6929 252.13,63.4959 252.846,63.4959 C253.495,63.4959 254.028,63.6713 254.448,64.0219 C254.867,64.3726 255.076,64.8197 255.076,65.3632 C255.076,65.8039 254.947,66.1797 254.687,66.4907 C254.428,66.8017 253.978,67.13 253.338,67.4755 M252.329,68.2401 C251.949,68.5425 251.682,68.8449 251.526,69.1473 C251.371,69.4497 251.293,69.8082 251.293,70.2228 C251.293,70.7844 251.444,71.238 251.746,71.5835 C252.048,71.9291 252.445,72.1019 252.937,72.1019 C253.36,72.1019 253.703,71.9702 253.966,71.7066 C254.23,71.4431 254.361,71.0997 254.361,70.6764 C254.361,70.5381 254.346,70.4085 254.316,70.2876 C254.286,70.1667 254.256,70.0609 254.225,69.9701 C254.195,69.8794 254.135,69.7779 254.044,69.6655 C253.953,69.5532 253.88,69.4646 253.824,69.3999 C253.768,69.3351 253.666,69.2422 253.52,69.1213 C253.373,69.0003 253.263,68.914 253.189,68.8622 C253.116,68.8104 252.978,68.711 252.775,68.5641 C252.572,68.4172 252.424,68.3092 252.329,68.2401 M252.963,67.2424 C252.971,67.2337 253.03,67.1927 253.138,67.1193 C253.245,67.0459 253.323,66.9876 253.371,66.9444 C253.418,66.9012 253.491,66.8342 253.591,66.7435 C253.69,66.6528 253.765,66.5664 253.817,66.4843 C253.869,66.4022 253.927,66.3029 253.992,66.1862 C254.056,66.0695 254.104,65.94 254.134,65.7974 C254.164,65.6549 254.179,65.5058 254.179,65.3502 C254.179,64.9011 254.05,64.5447 253.791,64.2812 C253.532,64.0177 253.183,63.8859 252.743,63.8859 C252.337,63.8859 252.003,64.0069 251.74,64.2488 C251.477,64.4907 251.345,64.7974 251.345,65.1689 C251.345,65.5318 251.47,65.8731 251.721,66.1927 C251.971,66.5124 252.385,66.8622 252.963,67.2424"/>
<path class="StaffText" d="M216.334,90.6109 C216.109,90.4723 215.875,90.3054 215.632,90.1104 C215.39,89.9154 215.114,89.6446 214.807,89.2979 C214.499,88.9513 214.23,88.5808 213.998,88.1864 C213.766,87.7921 213.571,87.3176 213.413,86.7629 C213.255,86.2083 213.175,85.6319 213.175,85.0339 C213.175,84.4099 213.255,83.8184 213.413,83.2594 C213.571,82.7004 213.758,82.2368 213.972,81.8684 C214.186,81.5001 214.46,81.1448 214.794,80.8024 C215.127,80.4601 215.403,80.2066 215.619,80.0419 C215.836,79.8773 216.087,79.7039 216.373,79.5219 L216.49,79.7299 C216.109,80.0419 215.801,80.3236 215.567,80.5749 C215.333,80.8263 215.108,81.1534 214.891,81.5564 C214.675,81.9594 214.519,82.4404 214.423,82.9994 C214.328,83.5584 214.28,84.2236 214.28,84.9949 C214.28,85.8009 214.328,86.4943 214.423,87.0749 C214.519,87.6556 214.675,88.1518 214.891,88.5634 C215.108,88.9751 215.333,89.3109 215.567,89.5709 C215.801,89.8309 216.109,90.1083 216.49,90.4029 L216.334,90.6109 M221.868,87.2439 C221.347,88.0759 220.643,88.4919 219.756,88.4919 C218.868,88.4919 218.165,88.0673 217.644,87.2179 C217.124,86.3686 216.863,85.2766 216.863,83.9419 C216.863,82.6853 217.128,81.6344 217.657,80.7894 C218.186,79.9444 218.903,79.5219 219.808,79.5219 C220.644,79.5219 221.326,79.9379 221.855,80.7699 C222.384,81.6019 222.648,82.6853 222.648,84.0199 C222.648,85.3373 222.388,86.4119 221.868,87.2439 M219.769,79.8599 C218.629,79.8599 218.059,81.2596 218.059,84.0589 C218.059,86.7889 218.625,88.1539 219.756,88.1539 C220.887,88.1539 221.452,86.7846 221.452,84.0459 C221.452,82.6853 221.309,81.6474 221.022,80.9324 C220.735,80.2174 220.317,79.8599 219.769,79.8599 M224.17,87.0099 C224.367,87.0099 224.537,87.0836 224.679,87.2309 C224.82,87.3783 224.891,87.5516 224.891,87.7509 C224.891,87.9416 224.818,88.1063 224.672,88.2449 C224.526,88.3836 224.355,88.4529 224.157,88.4529 C223.968,88.4529 223.805,88.3836 223.667,88.2449 C223.53,88.1063 223.461,87.9416 223.461,87.7509 C223.461,87.5516 223.532,87.3783 223.674,87.2309 C223.816,87.0836 223.981,87.0099 224.17,87.0099 M229.338,83.4755 C230.127,84.0543 230.663,84.5403 230.948,84.9334 C231.233,85.3265 231.375,85.7736 231.375,86.2746 C231.375,86.9482 231.142,87.4861 230.674,87.8884 C230.207,88.2908 229.581,88.4919 228.795,88.4919 C228.052,88.4919 227.447,88.2907 226.98,87.8882 C226.513,87.4858 226.279,86.9652 226.279,86.3266 C226.279,85.886 226.387,85.5166 226.602,85.2186 C226.817,84.9205 227.281,84.508 227.992,83.9809 C227.298,83.3848 226.852,82.9399 226.654,82.6462 C226.456,82.3525 226.357,81.994 226.357,81.5706 C226.357,80.9753 226.593,80.4807 227.065,80.0868 C227.536,79.6929 228.13,79.4959 228.846,79.4959 C229.495,79.4959 230.028,79.6713 230.448,80.0219 C230.867,80.3726 231.076,80.8197 231.076,81.3632 C231.076,81.8039 230.947,82.1797 230.687,82.4907 C230.428,82.8017 229.978,83.13 229.338,83.4755 M228.329,84.2401 C227.949,84.5425 227.682,84.8449 227.526,85.1473 C227.371,85.4497 227.293,85.8082 227.293,86.2228 C227.293,86.7844 227.444,87.238 227.746,87.5835 C228.048,87.9291 228.445,88.1019 228.937,88.1019 C229.36,88.1019 229.703,87.9702 229.966,87.7066 C230.23,87.4431 230.361,87.0997 230.361,86.6764 C230.361,86.5381 230.346,86.4085 230.316,86.2876 C230.286,86.1667 230.256,86.0609 230.225,85.9701 C230.195,85.8794 230.135,85.7779 230.044,85.6655 C229.953,85.5532 229.88,85.4646 229.824,85.3999 C229.768,85.3351 229.666,85.2422 229.52,85.1213 C229.373,85.0003 229.263,84.914 229.189,84.8622 C229.116,84.8104 228.978,84.711 228.775,84.5641 C228.572,84.4172 228.424,84.3092 228.329,84.2401 M228.963,83.2424 C228.971,83.2337 229.03,83.1927 229.138,83.1193 C229.245,83.0459 229.323,82.9876 229.371,82.9444 C229.418,82.9012 229.491,82.8342 229.591,82.7435 C229.69,82.6528 229.765,82.5664 229.817,82.4843 C229.869,82.4022 229.927,82.3029 229.992,82.1862 C230.056,82.0695 230.104,81.94 230.134,81.7974 C230.164,81.6549 230.179,81.5058 230.179,81.3502 C230.179,80.9011 230.05,80.5447 229.791,80.2812 C229.532,80.0177 229.183,79.8859 228.743,79.8859 C228.337,79.8859 228.003,80.0069 227.74,80.2488 C227.477,80.4907 227.345,80.7974 227.345,81.1689 C227.345,81.5318 227.47,81.8731 227.721,82.1927 C227.971,82.5124 228.385,82.8622 228.963,83.2424 M237.388,79.7039 L237.388,79.9091 L234.632,88.4139 L233.787,88.4139 L236.361,80.6529 L233.54,80.6529 C233.185,80.6529 232.914,80.718 232.728,80.8482 C232.541,80.9784 232.31,81.2649 232.032,81.7077 L231.811,81.6035 L232.578,79.7039 L237.388,79.7039 M244.333,84.3736 C244.333,84.2869 244.394,84.0551 244.515,83.6781 C244.637,83.3011 244.697,82.8656 244.697,82.3716 C244.359,82.5806 244.082,82.8072 243.865,83.0512 C243.649,83.2952 243.486,83.4722 243.378,83.5821 C243.269,83.692 243.12,83.7469 242.929,83.7469 C242.617,83.7469 242.461,83.5931 242.461,83.2854 C242.461,83.1365 242.518,83.0247 242.63,82.9502 C242.742,82.8756 242.881,82.823 243.045,82.7923 C243.21,82.7617 243.441,82.6925 243.74,82.5847 C244.038,82.477 244.326,82.3414 244.603,82.1778 C244.265,82.0054 243.9,81.8718 243.506,81.7771 C243.112,81.6824 242.84,81.5962 242.688,81.5186 C242.537,81.441 242.461,81.2989 242.461,81.0921 C242.461,80.9629 242.505,80.8531 242.591,80.7626 C242.678,80.6722 242.782,80.6269 242.903,80.6269 C243.042,80.6269 243.165,80.6657 243.274,80.7432 C243.382,80.8207 243.475,80.9155 243.553,81.0275 C243.631,81.1395 243.772,81.2859 243.976,81.4668 C244.179,81.6478 244.42,81.8201 244.697,81.9838 C244.697,81.4898 244.641,81.0521 244.528,80.6708 C244.416,80.2895 244.359,80.0555 244.359,79.9688 C244.359,79.8388 244.404,79.7305 244.495,79.6438 C244.585,79.5571 244.697,79.5138 244.83,79.5138 C244.964,79.5138 245.081,79.5593 245.182,79.6503 C245.284,79.7413 245.334,79.8561 245.334,79.9948 C245.334,80.1075 245.269,80.3436 245.139,80.7033 C245.009,81.063 244.944,81.4984 244.944,82.0096 C245.255,81.82 245.525,81.6025 245.755,81.357 C245.985,81.1114 246.162,80.9241 246.288,80.7948 C246.414,80.6655 246.554,80.6009 246.71,80.6009 C246.849,80.6009 246.962,80.6483 247.048,80.7431 C247.135,80.8379 247.178,80.9585 247.178,81.1049 C247.178,81.2858 247.092,81.415 246.918,81.4926 C246.745,81.5702 246.468,81.6629 246.086,81.7705 C245.705,81.8782 245.363,82.0182 245.059,82.1906 C245.319,82.3543 245.597,82.4857 245.891,82.5847 C246.186,82.6838 246.418,82.7463 246.587,82.7721 C246.756,82.798 246.899,82.8505 247.016,82.9295 C247.133,83.0086 247.191,83.1229 247.191,83.2722 C247.191,83.4216 247.15,83.5402 247.068,83.6281 C246.986,83.716 246.875,83.7599 246.736,83.7599 C246.554,83.7599 246.403,83.7051 246.281,83.5956 C246.16,83.486 245.985,83.3063 245.755,83.0565 C245.525,82.8067 245.255,82.5783 244.944,82.3716 C244.944,82.8656 245.011,83.3054 245.146,83.6911 C245.28,84.0767 245.347,84.2912 245.347,84.3346 C245.347,84.4732 245.294,84.5946 245.186,84.6986 C245.079,84.8026 244.951,84.8546 244.801,84.8546 C244.676,84.8546 244.567,84.8069 244.474,84.7116 C244.38,84.6162 244.333,84.5036 244.333,84.3736 M255.868,87.2439 C255.347,88.0759 254.643,88.4919 253.756,88.4919 C252.868,88.4919 252.165,88.0673 251.644,87.2179 C251.124,86.3686 250.863,85.2766 250.863,83.9419 C250.863,82.6853 251.128,81.6344 251.657,80.7894 C252.186,79.9444 252.903,79.5219 253.808,79.5219 C254.644,79.5219 255.326,79.9379 255.855,80.7699 C256.384,81.6019 256.648,82.6853 256.648,84.0199 C256.648,85.3373 256.388,86.4119 255.868,87.2439 M253.769,79.8599 C252.629,79.8599 252.059,81.2596 252.059,84.0589 C252.059,86.7889 252.625,88.1539 253.756,88.1539 C254.887,88.1539 255.452,86.7846 255.452,84.0459 C255.452,82.6853 255.309,81.6474 255.022,80.9324 C254.735,80.2174 254.317,79.8599 253.769,79.8599 M258.17,87.0099 C258.367,87.0099 258.537,87.0836 258.679,87.2309 C258.82,87.3783 258.891,87.5516 258.891,87.7509 C258.891,87.9416 258.818,88.1063 258.672,88.2449 C258.526,88.3836 258.355,88.4529 258.157,88.4529 C257.968,88.4529 257.805,88.3836 257.667,88.2449 C257.53,88.1063 257.461,87.9416 257.461,87.7509 C257.461,87.5516 257.532,87.3783 257.674,87.2309 C257.816,87.0836 257.981,87.0099 258.17,87.0099 M263.338,83.4755 C264.127,84.0543 264.663,84.5403 264.948,84.9334 C265.233,85.3265 265.375,85.7736 265.375,86.2746 C265.375,86.9482 265.142,87.4861 264.674,87.8884 C264.207,88.2908 263.581,88.4919 262.795,88.4919 C262.052,88.4919 261.447,88.2907 260.98,87.8882 C260.513,87.4858 260.279,86.9652 260.279,86.3266 C260.279,85.886 260.387,85.5166 260.602,85.2186 C260.817,84.9205 261.281,84.508 261.992,83.9809 C261.298,83.3848 260.852,82.9399 260.654,82.6462 C260.456,82.3525 260.357,81.994 260.357,81.5706 C260.357,80.9753 260.593,80.4807 261.065,80.0868 C261.536,79.6929 262.13,79.4959 262.846,79.4959 C263.495,79.4959 264.028,79.6713 264.448,80.0219 C264.867,80.3726 265.076,80.8197 265.076,81.3632 C265.076,81.8039 264.947,82.1797 264.687,82.4907 C264.428,82.8017 263.978,83.13 263.338,83.4755 M262.329,84.2401 C261.949,84.5425 261.682,84.8449 261.526,85.1473 C261.371,85.4497 261.293,85.8082 261.293,86.2228 C261.293,86.7844 261.444,87.238 261.746,87.5835 C262.048,87.9291 262.445,88.1019 262.937,88.1019 C263.36,88.1019 263.703,87.9702 263.966,87.7066 C264.23,87.4431 264.361,87.0997 264.361,86.6764 C264.361,86.5381 264.346,86.4085 264.316,86.2876 C264.286,86.1667 264.256,86.0609 264.225,85.9701 C264.195,85.8794 264.135,85.7779 264.044,85.6655 C263.953,85.5532 263.88,85.4646 263.824,85.3999 C263.768,85.3351 263.666,85.2422 263.52,85.1213 C263.373,85.0003 263.263,84.914 263.189,84.8622 C263.116,84.8104 262.978,84.711 262.775,84.5641 C262.572,84.4172 262.424,84.3092 262.329,84.2401 M262.963,83.2424 C262.971,83.2337 263.03,83.1927 263.138,83.1193 C263.245,83.0459 263.323,82.9876 263.371,82.9444 C263.418,82.9012 263.491,82.8342 263.591,82.7435 C263.69,82.6528 263.765,82.5664 263.817,82.4843 C263.869,82.4022 263.927,82.3029 263.992,82.1862 C264.056,82.0695 264.104,81.94 264.134,81.7974 C264.164,81.6549 264.179,81.5058 264.179,81.3502 C264.179,80.9011 264.05,80.5447 263.791,80.2812 C263.532,80.0177 263.183,79.8859 262.743,79.8859 C262.337,79.8859 262.003,80.0069 261.74,80.2488 C261.477,80.4907 261.345,80.7974 261.345,81.1689 C261.345,81.5318 261.47,81.8731 261.721,82.1927 C261.971,82.5124 262.385,82.8622 262.963,83.2424 M271.388,79.7039 L271.388,79.9091 L268.632,88.4139 L267.787,88.4139 L270.361,80.6529 L267.54,80.6529 C267.185,80.6529 266.914,80.718 266.728,80.8482 C266.541,80.9784 266.31,81.2649 266.032,81.7077 L265.811,81.6035 L266.578,79.7039 L271.388,79.7039 M273.097,79.5219 C273.323,79.6606 273.557,79.8274 273.799,80.0224 C274.042,80.2174 274.317,80.4883 274.625,80.8349 C274.932,81.1816 275.202,81.5521 275.434,81.9464 C275.665,82.3408 275.86,82.8153 276.019,83.3699 C276.177,83.9246 276.256,84.5009 276.256,85.0989 C276.256,85.7229 276.177,86.3144 276.019,86.8734 C275.86,87.4324 275.674,87.8961 275.46,88.2644 C275.245,88.6328 274.971,88.9881 274.638,89.3304 C274.304,89.6728 274.029,89.9263 273.812,90.0909 C273.596,90.2556 273.344,90.4289 273.058,90.6109 L272.941,90.4029 C273.323,90.0909 273.63,89.8093 273.864,89.5579 C274.098,89.3066 274.324,88.9794 274.54,88.5764 C274.757,88.1734 274.913,87.6924 275.008,87.1334 C275.104,86.5744 275.151,85.9093 275.151,85.1379 C275.151,84.3319 275.104,83.6386 275.008,83.0579 C274.913,82.4773 274.757,81.9811 274.54,81.5694 C274.324,81.1578 274.098,80.8219 273.864,80.5619 C273.63,80.3019 273.323,80.0246 272.941,79.7299 L273.097,79.5219 "/>
<path class="StaffText" d="M161.856,71.2439 C161.335,72.0759 160.631,72.4919 159.744,72.4919 C158.856,72.4919 158.153,72.0673 157.632,71.2179 C157.112,70.3686 156.851,69.2766 156.851,67.9419 C156.851,66.6853 157.116,65.6344 157.645,64.7894 C158.174,63.9444 158.891,63.5219 159.796,63.5219 C160.632,63.5219 161.314,63.9379 161.843,64.7699 C162.372,65.6019 162.636,66.6853 162.636,68.0199 C162.636,69.3373 162.376,70.4119 161.856,71.2439 M159.757,63.8599 C158.617,63.8599 158.047,65.2596 158.047,68.0589 C158.047,70.7889 158.613,72.1539 159.744,72.1539 C160.875,72.1539 161.44,70.7846 161.44,68.0459 C161.44,66.6853 161.297,65.6474 161.01,64.9324 C160.723,64.2174 160.305,63.8599 159.757,63.8599 M164.158,71.0099 C164.355,71.0099 164.525,71.0836 164.667,71.2309 C164.808,71.3783 164.879,71.5516 164.879,71.7509 C164.879,71.9416 164.806,72.1063 164.66,72.2449 C164.514,72.3836 164.343,72.4529 164.145,72.4529 C163.956,72.4529 163.793,72.3836 163.656,72.2449 C163.518,72.1063 163.449,71.9416 163.449,71.7509 C163.449,71.5516 163.52,71.3783 163.662,71.2309 C163.804,71.0836 163.969,71.0099 164.158,71.0099 M169.326,67.4755 C170.115,68.0543 170.651,68.5403 170.936,68.9334 C171.221,69.3265 171.363,69.7736 171.363,70.2746 C171.363,70.9482 171.13,71.4861 170.662,71.8884 C170.195,72.2908 169.569,72.4919 168.783,72.4919 C168.04,72.4919 167.435,72.2907 166.968,71.8882 C166.501,71.4858 166.267,70.9652 166.267,70.3266 C166.267,69.886 166.375,69.5166 166.59,69.2186 C166.805,68.9205 167.269,68.508 167.98,67.9809 C167.286,67.3848 166.84,66.9399 166.642,66.6462 C166.444,66.3525 166.345,65.994 166.345,65.5706 C166.345,64.9753 166.581,64.4807 167.053,64.0868 C167.524,63.6929 168.118,63.4959 168.834,63.4959 C169.483,63.4959 170.016,63.6713 170.436,64.0219 C170.855,64.3726 171.064,64.8197 171.064,65.3632 C171.064,65.8039 170.935,66.1797 170.675,66.4907 C170.416,66.8017 169.966,67.13 169.326,67.4755 M168.317,68.2401 C167.937,68.5425 167.67,68.8449 167.514,69.1473 C167.359,69.4497 167.281,69.8082 167.281,70.2228 C167.281,70.7844 167.432,71.238 167.734,71.5835 C168.036,71.9291 168.433,72.1019 168.925,72.1019 C169.348,72.1019 169.691,71.9702 169.954,71.7066 C170.218,71.4431 170.349,71.0997 170.349,70.6764 C170.349,70.5381 170.334,70.4085 170.304,70.2876 C170.274,70.1667 170.244,70.0609 170.213,69.9701 C170.183,69.8794 170.123,69.7779 170.032,69.6655 C169.941,69.5532 169.868,69.4646 169.812,69.3999 C169.756,69.3351 169.654,69.2422 169.508,69.1213 C169.361,69.0003 169.251,68.914 169.177,68.8622 C169.104,68.8104 168.966,68.711 168.763,68.5641 C168.56,68.4172 168.412,68.3092 168.317,68.2401 M168.951,67.2424 C168.96,67.2337 169.018,67.1927 169.126,67.1193 C169.233,67.0459 169.311,66.9876 169.359,66.9444 C169.406,66.9012 169.479,66.8342 169.579,66.7435 C169.678,66.6528 169.753,66.5664 169.805,66.4843 C169.857,66.4022 169.915,66.3029 169.98,66.1862 C170.044,66.0695 170.092,65.94 170.122,65.7974 C170.152,65.6549 170.167,65.5058 170.167,65.3502 C170.167,64.9011 170.038,64.5447 169.779,64.2812 C169.52,64.0177 169.171,63.8859 168.731,63.8859 C168.325,63.8859 167.991,64.0069 167.728,64.2488 C167.465,64.4907 167.333,64.7974 167.333,65.1689 C167.333,65.5318 167.458,65.8731 167.709,66.1927 C167.959,66.5124 168.373,66.8622 168.951,67.2424 M177.376,63.7039 L177.376,63.9091 L174.62,72.4139 L173.775,72.4139 L176.349,64.6529 L173.528,64.6529 C173.173,64.6529 172.902,64.718 172.716,64.8482 C172.53,64.9784 172.298,65.2649 172.02,65.7077 L171.799,65.6035 L172.566,63.7039 L177.376,63.7039 "/>
<path class="StaffText" d="M82.102,64.6009 C81.946,64.6009 81.634,64.6963 81.166,64.8869 L81.166,64.7049 L83.4942,63.5219 L83.597,63.5479 L83.597,71.3479 C83.597,71.6599 83.6758,71.8636 83.8334,71.9589 C83.991,72.0543 84.3282,72.1063 84.845,72.1149 L84.845,72.3099 L81.244,72.3099 L81.244,72.1149 C81.7344,72.0976 82.0651,72.0261 82.2358,71.9004 C82.4066,71.7748 82.492,71.5083 82.492,71.1009 L82.492,65.2119 C82.492,64.8046 82.362,64.6009 82.102,64.6009"/>
</svg>
